<svg width="2196" height="1080" viewBox="0 0 2196 1080" fill="none" xmlns="http://www.w3.org/2000/svg">
<rect width="2195.85" height="1080" fill="#EF233C"/>
<path d="M830.792 616.8C823.112 616.8 815.792 615.6 808.832 613.2C801.872 610.8 795.812 607.44 790.652 603.12C785.492 598.8 781.712 593.82 779.312 588.18C778.112 585.66 778.112 583.32 779.312 581.16C780.632 579 782.792 577.62 785.792 577.02C787.952 576.54 790.052 576.9 792.092 578.1C794.252 579.18 795.872 580.86 796.952 583.14C798.392 586.14 800.732 588.9 803.972 591.42C807.332 593.94 811.352 595.98 816.032 597.54C820.712 599.1 825.632 599.88 830.792 599.88C836.552 599.88 841.832 598.98 846.632 597.18C851.552 595.38 855.512 592.8 858.512 589.44C861.512 585.96 863.012 581.7 863.012 576.66C863.012 570.3 860.492 564.6 855.452 559.56C850.532 554.52 842.372 551.4 830.972 550.2C816.092 548.76 804.392 544.38 795.872 537.06C787.352 529.74 783.092 520.68 783.092 509.88C783.092 501.96 785.312 495.24 789.752 489.72C794.192 484.2 800.192 480 807.752 477.12C815.432 474.24 823.952 472.8 833.312 472.8C844.232 472.8 853.172 475.02 860.132 479.46C867.092 483.9 872.852 489.78 877.412 497.1C879.092 499.74 879.752 502.26 879.392 504.66C879.152 506.94 878.012 508.74 875.972 510.06C873.692 511.5 871.232 511.8 868.592 510.96C865.952 510.12 863.972 508.56 862.652 506.28C859.652 501.12 855.752 497.1 850.952 494.22C846.272 491.34 840.212 489.84 832.772 489.72C823.892 489.6 816.452 491.28 810.452 494.76C804.452 498.12 801.452 503.34 801.452 510.42C801.452 514.02 802.352 517.5 804.152 520.86C806.072 524.1 809.492 526.92 814.412 529.32C819.452 531.72 826.652 533.4 836.012 534.36C850.292 535.8 861.392 540.18 869.312 547.5C877.352 554.7 881.372 564.24 881.372 576.12C881.372 582.96 879.932 588.9 877.052 593.94C874.292 598.98 870.512 603.24 865.712 606.72C861.032 610.08 855.632 612.6 849.512 614.28C843.512 615.96 837.272 616.8 830.792 616.8ZM910.257 657.12C907.617 657.12 905.397 656.22 903.597 654.42C901.917 652.74 901.077 650.58 901.077 647.94V565.86C901.197 556.38 903.417 547.86 907.737 540.3C912.057 532.74 917.937 526.8 925.377 522.48C932.817 518.04 941.217 515.82 950.577 515.82C960.057 515.82 968.517 518.04 975.957 522.48C983.397 526.8 989.277 532.74 993.597 540.3C998.037 547.86 1000.26 556.38 1000.26 565.86C1000.26 575.34 998.217 583.86 994.137 591.42C990.177 598.86 984.717 604.8 977.757 609.24C970.797 613.56 962.937 615.72 954.177 615.72C947.097 615.72 940.557 614.28 934.557 611.4C928.677 608.4 923.637 604.38 919.437 599.34V647.94C919.437 650.58 918.597 652.74 916.917 654.42C915.237 656.22 913.017 657.12 910.257 657.12ZM950.577 599.52C956.697 599.52 962.157 598.08 966.957 595.2C971.757 592.2 975.537 588.18 978.297 583.14C981.177 577.98 982.617 572.22 982.617 565.86C982.617 559.38 981.177 553.62 978.297 548.58C975.537 543.42 971.757 539.4 966.957 536.52C962.157 533.52 956.697 532.02 950.577 532.02C944.577 532.02 939.117 533.52 934.197 536.52C929.397 539.4 925.617 543.42 922.857 548.58C920.097 553.62 918.717 559.38 918.717 565.86C918.717 572.22 920.097 577.98 922.857 583.14C925.617 588.18 929.397 592.2 934.197 595.2C939.117 598.08 944.577 599.52 950.577 599.52ZM1061.48 615.72C1052.72 615.72 1044.86 613.56 1037.9 609.24C1030.94 604.8 1025.42 598.86 1021.34 591.42C1017.38 583.86 1015.4 575.34 1015.4 565.86C1015.4 556.38 1017.56 547.86 1021.88 540.3C1026.32 532.74 1032.26 526.8 1039.7 522.48C1047.26 518.04 1055.72 515.82 1065.08 515.82C1074.44 515.82 1082.84 518.04 1090.28 522.48C1097.72 526.8 1103.6 532.74 1107.92 540.3C1112.36 547.86 1114.58 556.38 1114.58 565.86V606C1114.58 608.64 1113.68 610.86 1111.88 612.66C1110.2 614.34 1108.04 615.18 1105.4 615.18C1102.76 615.18 1100.54 614.34 1098.74 612.66C1097.06 610.86 1096.22 608.64 1096.22 606V599.34C1092.02 604.38 1086.92 608.4 1080.92 611.4C1075.04 614.28 1068.56 615.72 1061.48 615.72ZM1065.08 599.52C1071.2 599.52 1076.66 598.08 1081.46 595.2C1086.26 592.2 1090.04 588.18 1092.8 583.14C1095.56 577.98 1096.94 572.22 1096.94 565.86C1096.94 559.38 1095.56 553.62 1092.8 548.58C1090.04 543.42 1086.26 539.4 1081.46 536.52C1076.66 533.52 1071.2 532.02 1065.08 532.02C1059.08 532.02 1053.62 533.52 1048.7 536.52C1043.9 539.4 1040.06 543.42 1037.18 548.58C1034.42 553.62 1033.04 559.38 1033.04 565.86C1033.04 572.22 1034.42 577.98 1037.18 583.14C1040.06 588.18 1043.9 592.2 1048.7 595.2C1053.62 598.08 1059.08 599.52 1065.08 599.52ZM1143.88 657.12C1141.24 657.12 1139.02 656.22 1137.22 654.42C1135.54 652.74 1134.7 650.58 1134.7 647.94V565.86C1134.82 556.38 1137.04 547.86 1141.36 540.3C1145.68 532.74 1151.56 526.8 1159 522.48C1166.44 518.04 1174.84 515.82 1184.2 515.82C1193.68 515.82 1202.14 518.04 1209.58 522.48C1217.02 526.8 1222.9 532.74 1227.22 540.3C1231.66 547.86 1233.88 556.38 1233.88 565.86C1233.88 575.34 1231.84 583.86 1227.76 591.42C1223.8 598.86 1218.34 604.8 1211.38 609.24C1204.42 613.56 1196.56 615.72 1187.8 615.72C1180.72 615.72 1174.18 614.28 1168.18 611.4C1162.3 608.4 1157.26 604.38 1153.06 599.34V647.94C1153.06 650.58 1152.22 652.74 1150.54 654.42C1148.86 656.22 1146.64 657.12 1143.88 657.12ZM1184.2 599.52C1190.32 599.52 1195.78 598.08 1200.58 595.2C1205.38 592.2 1209.16 588.18 1211.92 583.14C1214.8 577.98 1216.24 572.22 1216.24 565.86C1216.24 559.38 1214.8 553.62 1211.92 548.58C1209.16 543.42 1205.38 539.4 1200.58 536.52C1195.78 533.52 1190.32 532.02 1184.2 532.02C1178.2 532.02 1172.74 533.52 1167.82 536.52C1163.02 539.4 1159.24 543.42 1156.48 548.58C1153.72 553.62 1152.34 559.38 1152.34 565.86C1152.34 572.22 1153.72 577.98 1156.48 583.14C1159.24 588.18 1163.02 592.2 1167.82 595.2C1172.74 598.08 1178.2 599.52 1184.2 599.52ZM1289.89 615.72C1281.49 615.72 1273.69 614.46 1266.49 611.94C1259.41 609.3 1253.89 606 1249.93 602.04C1248.13 600.12 1247.35 597.96 1247.59 595.56C1247.95 593.04 1249.15 591 1251.19 589.44C1253.59 587.52 1255.93 586.74 1258.21 587.1C1260.61 587.34 1262.65 588.36 1264.33 590.16C1266.37 592.44 1269.61 594.6 1274.05 596.64C1278.61 598.56 1283.65 599.52 1289.17 599.52C1296.13 599.52 1301.41 598.38 1305.01 596.1C1308.73 593.82 1310.65 590.88 1310.77 587.28C1310.89 583.68 1309.15 580.56 1305.55 577.92C1302.07 575.28 1295.65 573.12 1286.29 571.44C1274.17 569.04 1265.35 565.44 1259.83 560.64C1254.43 555.84 1251.73 549.96 1251.73 543C1251.73 536.88 1253.53 531.84 1257.13 527.88C1260.73 523.8 1265.35 520.8 1270.99 518.88C1276.63 516.84 1282.51 515.82 1288.63 515.82C1296.55 515.82 1303.57 517.08 1309.69 519.6C1315.81 522.12 1320.67 525.6 1324.27 530.04C1325.95 531.96 1326.73 534 1326.61 536.16C1326.49 538.2 1325.47 539.94 1323.55 541.38C1321.63 542.7 1319.35 543.12 1316.71 542.64C1314.07 542.16 1311.85 541.08 1310.05 539.4C1307.05 536.52 1303.81 534.54 1300.33 533.46C1296.85 532.38 1292.83 531.84 1288.27 531.84C1282.99 531.84 1278.49 532.74 1274.77 534.54C1271.17 536.34 1269.37 538.98 1269.37 542.46C1269.37 544.62 1269.91 546.6 1270.99 548.4C1272.19 550.08 1274.47 551.64 1277.83 553.08C1281.19 554.4 1286.11 555.72 1292.59 557.04C1306.15 559.68 1315.51 563.46 1320.67 568.38C1325.95 573.18 1328.59 579.12 1328.59 586.2C1328.59 591.72 1327.09 596.7 1324.09 601.14C1321.21 605.58 1316.89 609.12 1311.13 611.76C1305.49 614.4 1298.41 615.72 1289.89 615.72ZM1353.78 615.18C1351.14 615.18 1348.92 614.34 1347.12 612.66C1345.44 610.86 1344.6 608.64 1344.6 606V525.72C1344.6 522.96 1345.44 520.74 1347.12 519.06C1348.92 517.38 1351.14 516.54 1353.78 516.54C1356.54 516.54 1358.76 517.38 1360.44 519.06C1362.12 520.74 1362.96 522.96 1362.96 525.72V527.7C1366.68 523.98 1371.18 521.04 1376.46 518.88C1381.74 516.72 1387.44 515.64 1393.56 515.64C1401.84 515.64 1409.22 517.44 1415.7 521.04C1422.3 524.52 1427.46 529.68 1431.18 536.52C1435.02 543.36 1436.94 551.76 1436.94 561.72V606C1436.94 608.64 1436.04 610.86 1434.24 612.66C1432.56 614.34 1430.4 615.18 1427.76 615.18C1425.12 615.18 1422.9 614.34 1421.1 612.66C1419.42 610.86 1418.58 608.64 1418.58 606V561.72C1418.58 551.52 1415.82 544.08 1410.3 539.4C1404.9 534.6 1398.12 532.2 1389.96 532.2C1384.92 532.2 1380.36 533.22 1376.28 535.26C1372.2 537.3 1368.96 540.06 1366.56 543.54C1364.16 546.9 1362.96 550.8 1362.96 555.24V606C1362.96 608.64 1362.12 610.86 1360.44 612.66C1358.76 614.34 1356.54 615.18 1353.78 615.18ZM1353.78 579.18C1351.14 579.18 1348.92 578.34 1347.12 576.66C1345.44 574.86 1344.6 572.64 1344.6 570V483.6C1344.6 480.84 1345.44 478.62 1347.12 476.94C1348.92 475.26 1351.14 474.42 1353.78 474.42C1356.54 474.42 1358.76 475.26 1360.44 476.94C1362.12 478.62 1362.96 480.84 1362.96 483.6V570C1362.96 572.64 1362.12 574.86 1360.44 576.66C1358.76 578.34 1356.54 579.18 1353.78 579.18ZM1504.91 615.72C1495.19 615.72 1486.61 613.62 1479.17 609.42C1471.73 605.1 1465.85 599.22 1461.53 591.78C1457.33 584.22 1455.23 575.58 1455.23 565.86C1455.23 556.02 1457.33 547.38 1461.53 539.94C1465.85 532.38 1471.73 526.5 1479.17 522.3C1486.61 517.98 1495.19 515.82 1504.91 515.82C1514.51 515.82 1523.03 517.98 1530.47 522.3C1537.91 526.5 1543.73 532.38 1547.93 539.94C1552.25 547.38 1554.41 556.02 1554.41 565.86C1554.41 575.58 1552.31 584.22 1548.11 591.78C1543.91 599.22 1538.09 605.1 1530.65 609.42C1523.21 613.62 1514.63 615.72 1504.91 615.72ZM1504.91 599.52C1511.15 599.52 1516.67 598.08 1521.47 595.2C1526.27 592.32 1529.99 588.36 1532.63 583.32C1535.39 578.28 1536.77 572.46 1536.77 565.86C1536.77 559.26 1535.39 553.44 1532.63 548.4C1529.99 543.24 1526.27 539.22 1521.47 536.34C1516.67 533.46 1511.15 532.02 1504.91 532.02C1498.67 532.02 1493.15 533.46 1488.35 536.34C1483.55 539.22 1479.77 543.24 1477.01 548.4C1474.25 553.44 1472.87 559.26 1472.87 565.86C1472.87 572.46 1474.25 578.28 1477.01 583.32C1479.77 588.36 1483.55 592.32 1488.35 595.2C1493.15 598.08 1498.67 599.52 1504.91 599.52ZM1619.18 615.72C1609.46 615.72 1600.88 613.62 1593.44 609.42C1586 605.1 1580.12 599.22 1575.8 591.78C1571.6 584.22 1569.5 575.58 1569.5 565.86C1569.5 556.02 1571.6 547.38 1575.8 539.94C1580.12 532.38 1586 526.5 1593.44 522.3C1600.88 517.98 1609.46 515.82 1619.18 515.82C1628.78 515.82 1637.3 517.98 1644.74 522.3C1652.18 526.5 1658 532.38 1662.2 539.94C1666.52 547.38 1668.68 556.02 1668.68 565.86C1668.68 575.58 1666.58 584.22 1662.38 591.78C1658.18 599.22 1652.36 605.1 1644.92 609.42C1637.48 613.62 1628.9 615.72 1619.18 615.72ZM1619.18 599.52C1625.42 599.52 1630.94 598.08 1635.74 595.2C1640.54 592.32 1644.26 588.36 1646.9 583.32C1649.66 578.28 1651.04 572.46 1651.04 565.86C1651.04 559.26 1649.66 553.44 1646.9 548.4C1644.26 543.24 1640.54 539.22 1635.74 536.34C1630.94 533.46 1625.42 532.02 1619.18 532.02C1612.94 532.02 1607.42 533.46 1602.62 536.34C1597.82 539.22 1594.04 543.24 1591.28 548.4C1588.52 553.44 1587.14 559.26 1587.14 565.86C1587.14 572.46 1588.52 578.28 1591.28 583.32C1594.04 588.36 1597.82 592.32 1602.62 595.2C1607.42 598.08 1612.94 599.52 1619.18 599.52ZM1724.62 615C1718.62 615 1713.22 613.5 1708.42 610.5C1703.62 607.38 1699.84 603.18 1697.08 597.9C1694.32 592.62 1692.94 586.68 1692.94 580.08V535.62H1684.66C1682.14 535.62 1680.1 534.9 1678.54 533.46C1676.98 532.02 1676.2 530.22 1676.2 528.06C1676.2 525.66 1676.98 523.74 1678.54 522.3C1680.1 520.86 1682.14 520.14 1684.66 520.14H1692.94V494.22C1692.94 491.58 1693.78 489.42 1695.46 487.74C1697.14 486.06 1699.3 485.22 1701.94 485.22C1704.58 485.22 1706.74 486.06 1708.42 487.74C1710.1 489.42 1710.94 491.58 1710.94 494.22V520.14H1726.24C1728.76 520.14 1730.8 520.86 1732.36 522.3C1733.92 523.74 1734.7 525.66 1734.7 528.06C1734.7 530.22 1733.92 532.02 1732.36 533.46C1730.8 534.9 1728.76 535.62 1726.24 535.62H1710.94V580.08C1710.94 584.88 1712.26 588.9 1714.9 592.14C1717.54 595.38 1720.78 597 1724.62 597H1730.74C1732.9 597 1734.7 597.84 1736.14 599.52C1737.7 601.2 1738.48 603.36 1738.48 606C1738.48 608.64 1737.46 610.8 1735.42 612.48C1733.5 614.16 1730.98 615 1727.86 615H1724.62Z" fill="white"/>
<path d="M759.183 268.542L488.779 535.263C478.957 525.577 471.166 514.077 465.851 501.421C460.536 488.764 457.8 475.199 457.8 461.499C457.8 447.8 460.536 434.234 465.851 421.578C471.166 408.921 478.957 397.421 488.779 387.735L609.597 268.542C629.438 248.985 656.34 238 684.39 238C712.439 238 739.341 248.985 759.183 268.542Z" fill="url(#paint0_linear)"/>
<path style="mix-blend-mode:soft-light" d="M525.9 396.865L646.331 278.034C663.086 261.473 685.033 250.996 708.596 248.311C694.005 245.864 679.031 246.902 664.931 251.339C650.83 255.776 638.013 263.482 627.554 273.811L521.537 378.384C511.107 388.708 503.332 401.344 498.863 415.236C494.394 429.129 493.36 443.875 495.849 458.242C498.557 435.024 509.148 413.393 525.9 396.865V396.865Z" fill="url(#paint1_linear)"/>
<path d="M677.583 626.343L481.962 819.28C462.137 799.712 451 773.18 451 745.516C451 717.851 462.137 691.319 481.962 671.751L677.685 478.794C687.501 488.489 695.284 499.996 700.591 512.657C705.898 525.319 708.624 538.888 708.615 552.589C708.605 566.29 705.86 579.856 700.536 592.51C695.211 605.165 687.412 616.661 677.583 626.343V626.343Z" fill="url(#paint2_linear)"/>
<path style="mix-blend-mode:soft-light" d="M508.224 678.407L679.482 509.482C678.324 505.68 676.222 502.224 673.366 499.427V499.427L505.003 665.456C496.425 673.928 489.659 684.012 485.106 695.112C480.553 706.211 478.306 718.099 478.499 730.071C483.491 710.516 493.764 692.662 508.224 678.407V678.407Z" fill="url(#paint3_linear)"/>
<path d="M659.868 473.525L594.239 453.998L506.694 540.351L573.036 559.174L659.868 473.525Z" fill="url(#paint4_linear)"/>
<path d="M723.54 534.68C724.424 540.606 724.867 546.588 724.865 552.578C724.909 568.393 721.773 584.06 715.638 598.672C709.503 613.284 700.492 626.55 689.125 637.704L494.482 829.697C497.811 834.246 501.5 838.53 505.512 842.507V842.507L701.236 649.449C716.144 634.701 726.235 615.889 730.211 595.434C734.186 574.98 731.862 553.82 723.54 534.68V534.68Z" fill="url(#paint5_linear)"/>
<defs>
<linearGradient id="paint0_linear" x1="647.029" y1="248.975" x2="464.836" y2="768.971" gradientUnits="userSpaceOnUse">
<stop stop-color="#385BA7"/>
<stop offset="0.203125" stop-color="#8860FF"/>
<stop offset="0.39" stop-color="#FF60D0"/>
<stop offset="1" stop-color="#78F6FF"/>
</linearGradient>
<linearGradient id="paint1_linear" x1="524.269" y1="448.146" x2="648.804" y2="255.694" gradientUnits="userSpaceOnUse">
<stop stop-color="white" stop-opacity="0"/>
<stop offset="1" stop-color="white"/>
</linearGradient>
<linearGradient id="paint2_linear" x1="579.807" y1="478.794" x2="579.807" y2="819.28" gradientUnits="userSpaceOnUse">
<stop stop-color="white" stop-opacity="0"/>
<stop offset="0.0677083" stop-color="#D854B5"/>
<stop offset="0.324268" stop-color="#37B4FA" stop-opacity="0.675732"/>
<stop offset="0.557292" stop-color="#266CF6"/>
<stop offset="1" stop-color="#132C62"/>
<stop offset="1" stop-color="#D854B5"/>
</linearGradient>
<linearGradient id="paint3_linear" x1="10508.1" y1="50911.2" x2="18215" y2="33551.6" gradientUnits="userSpaceOnUse">
<stop stop-color="white" stop-opacity="0"/>
<stop offset="1" stop-color="white"/>
</linearGradient>
<linearGradient id="paint4_linear" x1="672.916" y1="258.045" x2="490.703" y2="778.041" gradientUnits="userSpaceOnUse">
<stop stop-color="#14213D"/>
<stop offset="0.31" stop-color="#4E2A55"/>
<stop offset="0.34" stop-color="#582D5C"/>
<stop offset="0.39" stop-color="#72356E"/>
<stop offset="0.45" stop-color="#9D428C"/>
<stop offset="0.53" stop-color="#D854B5"/>
<stop offset="0.57" stop-color="#FF60D0"/>
<stop offset="0.78" stop-color="#7860FF"/>
<stop offset="1" stop-color="#78F6FF"/>
</linearGradient>
<linearGradient id="paint5_linear" x1="765.07" y1="290.321" x2="582.857" y2="810.338" gradientUnits="userSpaceOnUse">
<stop stop-color="#14213D"/>
<stop offset="0.45" stop-color="#352752"/>
<stop offset="0.5" stop-color="#382A5A"/>
<stop offset="0.57" stop-color="#413171"/>
<stop offset="0.66" stop-color="#4F3D96"/>
<stop offset="0.77" stop-color="#634EC9"/>
<stop offset="0.87" stop-color="#7860FF"/>
<stop offset="1" stop-color="#78F6FF"/>
</linearGradient>
</defs>
</svg>
