<svg width="1920" height="1080" viewBox="0 0 1920 1080" fill="none" xmlns="http://www.w3.org/2000/svg">
<rect width="1920" height="1080" fill="white"/>
<path d="M527.398 504.96C528.821 505.184 530.239 505.444 531.613 505.733C531.875 505.788 532.147 505.814 532.415 505.814C533.212 505.814 533.971 505.583 534.302 505.198C534.746 504.683 534.261 504.088 533.219 503.869C531.727 503.556 530.188 503.273 528.643 503.03C527.564 502.86 526.411 503.154 526.067 503.687C525.723 504.22 526.319 504.79 527.398 504.96Z" fill="#F44336"/>
<path d="M492.362 557.51C491.91 556.846 490.87 556.601 490.041 556.964C489.212 557.326 488.907 558.158 489.359 558.822C490.069 559.863 490.854 560.887 491.694 561.866C492.026 562.253 492.561 562.461 493.106 562.461C493.439 562.461 493.776 562.383 494.072 562.22C494.851 561.792 495.049 560.939 494.514 560.316C493.74 559.414 493.016 558.47 492.362 557.51Z" fill="#F44336"/>
<path d="M523.874 577.505C514.124 575.863 505.145 571.292 498.593 564.632C497.923 563.951 496.761 563.861 495.999 564.43C495.237 565 495.162 566.015 495.833 566.696C502.941 573.921 512.684 578.881 523.266 580.663C523.32 580.672 523.372 580.678 523.425 580.683C524.366 580.77 525.224 580.214 525.383 579.389C525.551 578.517 524.875 577.673 523.874 577.505Z" fill="#F44336"/>
<path d="M543.119 508.927C542.248 508.426 541.06 508.614 540.465 509.347C539.869 510.079 540.093 511.079 540.964 511.579C549.836 516.679 556.254 524.269 559.036 532.949C559.265 533.665 560.036 534.137 560.879 534.137C561.043 534.137 561.21 534.119 561.377 534.082C562.395 533.851 562.998 532.969 562.724 532.113C559.706 522.693 552.743 514.459 543.119 508.927Z" fill="#F44336"/>
<path d="M607.703 558.386L601.645 554.889C602.663 549.829 603.177 544.763 603.177 539.802C603.177 534.769 602.671 529.698 601.671 524.7L607.703 521.218C609.571 520.139 610.907 518.398 611.465 516.314C612.023 514.231 611.737 512.054 610.658 510.186L594.163 481.616C593.084 479.748 591.343 478.411 589.26 477.853C587.176 477.295 585 477.581 583.131 478.66L577.095 482.145C569.47 475.437 560.496 470.245 550.943 467.015V460.076C550.943 455.623 547.32 452 542.867 452H509.877C505.424 452 501.801 455.623 501.801 460.076V467.015C492.299 470.232 483.338 475.431 475.684 482.166L469.612 478.66C467.744 477.581 465.568 477.295 463.484 477.853C461.401 478.411 459.659 479.748 458.581 481.616L442.085 510.186C441.007 512.054 440.72 514.231 441.279 516.314C441.837 518.398 443.173 520.139 445.041 521.218L451.098 524.715C450.082 529.774 449.567 534.841 449.567 539.802C449.567 544.835 450.073 549.906 451.073 554.904L445.042 558.386C441.185 560.613 439.859 565.561 442.085 569.418L458.581 597.989C460.807 601.845 465.756 603.171 469.612 600.944L475.649 597.459C483.274 604.167 492.248 609.359 501.801 612.59V619.529C501.801 623.982 505.424 627.604 509.877 627.604H542.867C547.32 627.604 550.943 623.982 550.943 619.529V612.589C560.445 609.372 569.407 604.173 577.06 597.439L583.132 600.944C586.988 603.171 591.937 601.845 594.164 597.989L610.659 569.418C612.885 565.561 611.559 560.613 607.703 558.386ZM603.177 561.045V558.416C602.372 559.811 594.164 555.617 596.22 556.751L585.449 590.542C582.97 560.965 537.299 587.71 530.218 590.542C527.386 590.542 557.643 605.143 547.603 608.253C546.524 608.588 545.788 609.586 545.788 610.715V619.529C545.788 621.139 550.045 596.449 542.867 622.45L547.603 608.253C545.992 608.253 524.554 609.194 523.137 614.859L533.051 616.275C591.717 605.26 508.77 581.811 506.956 586.536C496.854 583.406 489.897 571.12 482.069 563.877C481.58 563.425 476.617 591.713 475.983 591.713C475.541 591.713 475.097 591.826 474.695 592.058L467.035 596.48C465.64 597.285 463.85 596.806 463.045 595.411L467.035 600.944C466.23 599.549 473.3 592.863 474.695 592.058L480.653 580.871C481.63 580.307 478.069 529.574 477.82 528.473C455.273 527.057 460.826 545.08 460.826 539.802C460.826 534.613 493.398 519.976 484.901 508.647C485.149 507.546 456.276 521.752 455.299 521.188L467.907 532.721C467.231 532.331 457.018 516.481 456.816 515.727C477.82 507.23 446.16 513.439 446.55 512.764L477.82 532.721C479.236 534.137 464.065 483.034 464.819 482.832C462.242 483.521 454.564 497.349 465.075 485.988L455.299 521.188C456.277 521.753 485.488 509.413 486.317 508.647C499.063 511.479 499.063 477.491 505.141 471.35C506.221 471.016 506.956 470.018 506.956 468.889V460.076C506.956 458.465 494.62 498.733 496.23 498.733L552.877 484.572C554.488 484.572 545.789 458.465 545.789 460.076V468.889C545.789 470.018 546.524 471.016 547.603 471.35C557.705 474.48 503.979 464.107 511.808 471.35C512.637 472.118 567.867 510.108 568.845 509.543L585.709 483.124C570.592 506.835 568.78 505.612 569.534 505.814C570.287 506.016 568.455 508.868 568.845 509.543L603.859 514.311C604.249 514.987 606.689 514.226 606.487 514.98C603.859 508.647 569.521 509.153 568.845 509.543L565.622 497.317C564.645 497.881 566.487 511.731 568.788 508.647C571.287 551.131 598.194 548.299 595.362 538.386C545.796 569.542 591.113 553.964 595.362 552.548C595.114 553.648 585.449 534.137 557.125 579.08L586.865 592.058L605.126 562.85C606.52 563.656 603.983 559.65 603.177 561.045Z" fill="#72D9DD"/>
<path d="M518.889 464.745C490.182 464.745 452.33 545.083 452.33 573.79C452.33 602.497 497.664 591.865 526.372 591.865C555.08 591.865 589.697 569.926 589.697 541.218C589.697 512.511 547.597 464.745 518.889 464.745ZM526.372 586.71C500.507 586.71 479.464 565.667 479.464 539.802C479.464 513.937 500.507 492.894 526.372 492.894C552.237 492.894 573.28 513.937 573.28 539.802C573.28 565.667 552.237 586.71 526.372 586.71Z" fill="#72D9DD"/>
<path d="M555.828 539.205C555.569 538.752 555.193 538.377 554.741 538.118L513.767 514.704C512.367 513.896 510.577 514.375 509.769 515.775C509.509 516.224 509.374 516.734 509.377 517.253V564.081C509.378 565.125 509.935 566.09 510.84 566.612C511.745 567.135 512.861 567.135 513.767 566.612L554.741 543.198C556.144 542.396 556.631 540.608 555.828 539.205Z" fill="#F44336"/>
<path d="M688.24 553.4V587H672.16V553.4L640.54 500.24H654.76C656.16 500.24 657.26 500.58 658.06 501.26C658.9 501.94 659.6 502.8 660.16 503.84L676 532.82C676.92 534.54 677.72 536.16 678.4 537.68C679.12 539.2 679.76 540.72 680.32 542.24C680.84 540.72 681.44 539.2 682.12 537.68C682.8 536.16 683.58 534.54 684.46 532.82L700.24 503.84C700.68 502.96 701.34 502.14 702.22 501.38C703.1 500.62 704.22 500.24 705.58 500.24H719.86L688.24 553.4ZM740.099 524.48C744.659 524.48 748.799 525.22 752.519 526.7C756.279 528.18 759.479 530.28 762.119 533C764.799 535.72 766.859 539.04 768.299 542.96C769.739 546.88 770.459 551.26 770.459 556.1C770.459 560.98 769.739 565.38 768.299 569.3C766.859 573.22 764.799 576.56 762.119 579.32C759.479 582.08 756.279 584.2 752.519 585.68C748.799 587.16 744.659 587.9 740.099 587.9C735.499 587.9 731.319 587.16 727.559 585.68C723.799 584.2 720.579 582.08 717.899 579.32C715.259 576.56 713.199 573.22 711.719 569.3C710.279 565.38 709.559 560.98 709.559 556.1C709.559 551.26 710.279 546.88 711.719 542.96C713.199 539.04 715.259 535.72 717.899 533C720.579 530.28 723.799 528.18 727.559 526.7C731.319 525.22 735.499 524.48 740.099 524.48ZM740.099 576.5C745.219 576.5 748.999 574.78 751.439 571.34C753.919 567.9 755.159 562.86 755.159 556.22C755.159 549.58 753.919 544.52 751.439 541.04C748.999 537.56 745.219 535.82 740.099 535.82C734.899 535.82 731.039 537.58 728.519 541.1C726.039 544.58 724.799 549.62 724.799 556.22C724.799 562.82 726.039 567.86 728.519 571.34C731.039 574.78 734.899 576.5 740.099 576.5ZM834.805 525.44V587H825.745C823.785 587 822.545 586.1 822.025 584.3L821.005 579.38C818.485 581.94 815.705 584.02 812.665 585.62C809.625 587.18 806.045 587.96 801.925 587.96C798.565 587.96 795.585 587.4 792.985 586.28C790.425 585.12 788.265 583.5 786.505 581.42C784.745 579.34 783.405 576.88 782.485 574.04C781.605 571.16 781.165 568 781.165 564.56V525.44H795.985V564.56C795.985 568.32 796.845 571.24 798.565 573.32C800.325 575.36 802.945 576.38 806.425 576.38C808.985 576.38 811.385 575.82 813.625 574.7C815.865 573.54 817.985 571.96 819.985 569.96V525.44H834.805ZM900.721 513.5H874.561V587H858.421V513.5H832.261V500.24H900.721V513.5ZM951.641 525.44V587H942.581C940.621 587 939.381 586.1 938.861 584.3L937.841 579.38C935.321 581.94 932.541 584.02 929.501 585.62C926.461 587.18 922.881 587.96 918.761 587.96C915.401 587.96 912.421 587.4 909.821 586.28C907.261 585.12 905.101 583.5 903.341 581.42C901.581 579.34 900.241 576.88 899.321 574.04C898.441 571.16 898.001 568 898.001 564.56V525.44H912.821V564.56C912.821 568.32 913.681 571.24 915.401 573.32C917.161 575.36 919.781 576.38 923.261 576.38C925.821 576.38 928.221 575.82 930.461 574.7C932.701 573.54 934.821 571.96 936.821 569.96V525.44H951.641ZM981.156 571.04C982.836 573.08 984.656 574.52 986.616 575.36C988.616 576.2 990.716 576.62 992.916 576.62C995.196 576.62 997.236 576.22 999.036 575.42C1000.88 574.58 1002.44 573.3 1003.72 571.58C1005 569.82 1005.98 567.6 1006.66 564.92C1007.34 562.2 1007.68 558.96 1007.68 555.2C1007.68 548.44 1006.56 543.56 1004.32 540.56C1002.08 537.52 998.856 536 994.656 536C991.816 536 989.336 536.66 987.216 537.98C985.096 539.26 983.076 541.08 981.156 543.44V571.04ZM981.156 533C983.636 530.4 986.376 528.34 989.376 526.82C992.416 525.26 995.876 524.48 999.756 524.48C1003.32 524.48 1006.52 525.18 1009.36 526.58C1012.24 527.98 1014.68 530 1016.68 532.64C1018.72 535.24 1020.28 538.4 1021.36 542.12C1022.44 545.84 1022.98 550.02 1022.98 554.66C1022.98 559.66 1022.36 564.2 1021.12 568.28C1019.88 572.36 1018.1 575.86 1015.78 578.78C1013.5 581.66 1010.74 583.9 1007.5 585.5C1004.26 587.1 1000.66 587.9 996.696 587.9C994.776 587.9 993.036 587.7 991.476 587.3C989.916 586.94 988.476 586.42 987.156 585.74C985.836 585.06 984.616 584.24 983.496 583.28C982.416 582.28 981.376 581.18 980.376 579.98L979.716 584.12C979.476 585.16 979.056 585.9 978.456 586.34C977.896 586.78 977.116 587 976.116 587H966.336V497.84H981.156V533ZM1074.08 549.14C1074.08 547.22 1073.8 545.42 1073.24 543.74C1072.72 542.02 1071.92 540.52 1070.84 539.24C1069.76 537.96 1068.38 536.96 1066.7 536.24C1065.06 535.48 1063.14 535.1 1060.94 535.1C1056.66 535.1 1053.28 536.32 1050.8 538.76C1048.36 541.2 1046.8 544.66 1046.12 549.14H1074.08ZM1045.82 558.08C1046.06 561.24 1046.62 563.98 1047.5 566.3C1048.38 568.58 1049.54 570.48 1050.98 572C1052.42 573.48 1054.12 574.6 1056.08 575.36C1058.08 576.08 1060.28 576.44 1062.68 576.44C1065.08 576.44 1067.14 576.16 1068.86 575.6C1070.62 575.04 1072.14 574.42 1073.42 573.74C1074.74 573.06 1075.88 572.44 1076.84 571.88C1077.84 571.32 1078.8 571.04 1079.72 571.04C1080.96 571.04 1081.88 571.5 1082.48 572.42L1086.74 577.82C1085.1 579.74 1083.26 581.36 1081.22 582.68C1079.18 583.96 1077.04 585 1074.8 585.8C1072.6 586.56 1070.34 587.1 1068.02 587.42C1065.74 587.74 1063.52 587.9 1061.36 587.9C1057.08 587.9 1053.1 587.2 1049.42 585.8C1045.74 584.36 1042.54 582.26 1039.82 579.5C1037.1 576.7 1034.96 573.26 1033.4 569.18C1031.84 565.06 1031.06 560.3 1031.06 554.9C1031.06 550.7 1031.74 546.76 1033.1 543.08C1034.46 539.36 1036.4 536.14 1038.92 533.42C1041.48 530.66 1044.58 528.48 1048.22 526.88C1051.9 525.28 1056.04 524.48 1060.64 524.48C1064.52 524.48 1068.1 525.1 1071.38 526.34C1074.66 527.58 1077.48 529.4 1079.84 531.8C1082.2 534.16 1084.04 537.08 1085.36 540.56C1086.72 544 1087.4 547.94 1087.4 552.38C1087.4 554.62 1087.16 556.14 1086.68 556.94C1086.2 557.7 1085.28 558.08 1083.92 558.08H1045.82ZM1176.24 516.02C1175.76 516.86 1175.24 517.48 1174.68 517.88C1174.16 518.24 1173.5 518.42 1172.7 518.42C1171.86 518.42 1170.94 518.12 1169.94 517.52C1168.98 516.88 1167.82 516.18 1166.46 515.42C1165.1 514.66 1163.5 513.98 1161.66 513.38C1159.86 512.74 1157.72 512.42 1155.24 512.42C1153 512.42 1151.04 512.7 1149.36 513.26C1147.68 513.78 1146.26 514.52 1145.1 515.48C1143.98 516.44 1143.14 517.6 1142.58 518.96C1142.02 520.28 1141.74 521.74 1141.74 523.34C1141.74 525.38 1142.3 527.08 1143.42 528.44C1144.58 529.8 1146.1 530.96 1147.98 531.92C1149.86 532.88 1152 533.74 1154.4 534.5C1156.8 535.26 1159.26 536.08 1161.78 536.96C1164.3 537.8 1166.76 538.8 1169.16 539.96C1171.56 541.08 1173.7 542.52 1175.58 544.28C1177.46 546 1178.96 548.12 1180.08 550.64C1181.24 553.16 1181.82 556.22 1181.82 559.82C1181.82 563.74 1181.14 567.42 1179.78 570.86C1178.46 574.26 1176.5 577.24 1173.9 579.8C1171.34 582.32 1168.2 584.32 1164.48 585.8C1160.76 587.24 1156.5 587.96 1151.7 587.96C1148.94 587.96 1146.22 587.68 1143.54 587.12C1140.86 586.6 1138.28 585.84 1135.8 584.84C1133.36 583.84 1131.06 582.64 1128.9 581.24C1126.74 579.84 1124.82 578.28 1123.14 576.56L1127.88 568.82C1128.28 568.26 1128.8 567.8 1129.44 567.44C1130.08 567.04 1130.76 566.84 1131.48 566.84C1132.48 566.84 1133.56 567.26 1134.72 568.1C1135.88 568.9 1137.26 569.8 1138.86 570.8C1140.46 571.8 1142.32 572.72 1144.44 573.56C1146.6 574.36 1149.18 574.76 1152.18 574.76C1156.78 574.76 1160.34 573.68 1162.86 571.52C1165.38 569.32 1166.64 566.18 1166.64 562.1C1166.64 559.82 1166.06 557.96 1164.9 556.52C1163.78 555.08 1162.28 553.88 1160.4 552.92C1158.52 551.92 1156.38 551.08 1153.98 550.4C1151.58 549.72 1149.14 548.98 1146.66 548.18C1144.18 547.38 1141.74 546.42 1139.34 545.3C1136.94 544.18 1134.8 542.72 1132.92 540.92C1131.04 539.12 1129.52 536.88 1128.36 534.2C1127.24 531.48 1126.68 528.14 1126.68 524.18C1126.68 521.02 1127.3 517.94 1128.54 514.94C1129.82 511.94 1131.66 509.28 1134.06 506.96C1136.46 504.64 1139.42 502.78 1142.94 501.38C1146.46 499.98 1150.5 499.28 1155.06 499.28C1160.18 499.28 1164.9 500.08 1169.22 501.68C1173.54 503.28 1177.22 505.52 1180.26 508.4L1176.24 516.02ZM1232.99 549.14C1232.99 547.22 1232.71 545.42 1232.15 543.74C1231.63 542.02 1230.83 540.52 1229.75 539.24C1228.67 537.96 1227.29 536.96 1225.61 536.24C1223.97 535.48 1222.05 535.1 1219.85 535.1C1215.57 535.1 1212.19 536.32 1209.71 538.76C1207.27 541.2 1205.71 544.66 1205.03 549.14H1232.99ZM1204.73 558.08C1204.97 561.24 1205.53 563.98 1206.41 566.3C1207.29 568.58 1208.45 570.48 1209.89 572C1211.33 573.48 1213.03 574.6 1214.99 575.36C1216.99 576.08 1219.19 576.44 1221.59 576.44C1223.99 576.44 1226.05 576.16 1227.77 575.6C1229.53 575.04 1231.05 574.42 1232.33 573.74C1233.65 573.06 1234.79 572.44 1235.75 571.88C1236.75 571.32 1237.71 571.04 1238.63 571.04C1239.87 571.04 1240.79 571.5 1241.39 572.42L1245.65 577.82C1244.01 579.74 1242.17 581.36 1240.13 582.68C1238.09 583.96 1235.95 585 1233.71 585.8C1231.51 586.56 1229.25 587.1 1226.93 587.42C1224.65 587.74 1222.43 587.9 1220.27 587.9C1215.99 587.9 1212.01 587.2 1208.33 585.8C1204.65 584.36 1201.45 582.26 1198.73 579.5C1196.01 576.7 1193.87 573.26 1192.31 569.18C1190.75 565.06 1189.97 560.3 1189.97 554.9C1189.97 550.7 1190.65 546.76 1192.01 543.08C1193.37 539.36 1195.31 536.14 1197.83 533.42C1200.39 530.66 1203.49 528.48 1207.13 526.88C1210.81 525.28 1214.95 524.48 1219.55 524.48C1223.43 524.48 1227.01 525.1 1230.29 526.34C1233.57 527.58 1236.39 529.4 1238.75 531.8C1241.11 534.16 1242.95 537.08 1244.27 540.56C1245.63 544 1246.31 547.94 1246.31 552.38C1246.31 554.62 1246.07 556.14 1245.59 556.94C1245.11 557.7 1244.19 558.08 1242.83 558.08H1204.73ZM1289.95 560.72C1285.67 560.92 1282.07 561.3 1279.15 561.86C1276.23 562.38 1273.89 563.06 1272.13 563.9C1270.37 564.74 1269.11 565.72 1268.35 566.84C1267.59 567.96 1267.21 569.18 1267.21 570.5C1267.21 573.1 1267.97 574.96 1269.49 576.08C1271.05 577.2 1273.07 577.76 1275.55 577.76C1278.59 577.76 1281.21 577.22 1283.41 576.14C1285.65 575.02 1287.83 573.34 1289.95 571.1V560.72ZM1255.99 534.02C1263.07 527.54 1271.59 524.3 1281.55 524.3C1285.15 524.3 1288.37 524.9 1291.21 526.1C1294.05 527.26 1296.45 528.9 1298.41 531.02C1300.37 533.1 1301.85 535.6 1302.85 538.52C1303.89 541.44 1304.41 544.64 1304.41 548.12V587H1297.69C1296.29 587 1295.21 586.8 1294.45 586.4C1293.69 585.96 1293.09 585.1 1292.65 583.82L1291.33 579.38C1289.77 580.78 1288.25 582.02 1286.77 583.1C1285.29 584.14 1283.75 585.02 1282.15 585.74C1280.55 586.46 1278.83 587 1276.99 587.36C1275.19 587.76 1273.19 587.96 1270.99 587.96C1268.39 587.96 1265.99 587.62 1263.79 586.94C1261.59 586.22 1259.69 585.16 1258.09 583.76C1256.49 582.36 1255.25 580.62 1254.37 578.54C1253.49 576.46 1253.05 574.04 1253.05 571.28C1253.05 569.72 1253.31 568.18 1253.83 566.66C1254.35 565.1 1255.19 563.62 1256.35 562.22C1257.55 560.82 1259.09 559.5 1260.97 558.26C1262.85 557.02 1265.15 555.94 1267.87 555.02C1270.63 554.1 1273.83 553.36 1277.47 552.8C1281.11 552.2 1285.27 551.84 1289.95 551.72V548.12C1289.95 544 1289.07 540.96 1287.31 539C1285.55 537 1283.01 536 1279.69 536C1277.29 536 1275.29 536.28 1273.69 536.84C1272.13 537.4 1270.75 538.04 1269.55 538.76C1268.35 539.44 1267.25 540.06 1266.25 540.62C1265.29 541.18 1264.21 541.46 1263.01 541.46C1261.97 541.46 1261.09 541.2 1260.37 540.68C1259.65 540.12 1259.07 539.48 1258.63 538.76L1255.99 534.02ZM1332.35 536.12C1334.27 532.44 1336.55 529.56 1339.19 527.48C1341.83 525.36 1344.95 524.3 1348.55 524.3C1351.39 524.3 1353.67 524.92 1355.39 526.16L1354.43 537.26C1354.23 537.98 1353.93 538.5 1353.53 538.82C1353.17 539.1 1352.67 539.24 1352.03 539.24C1351.43 539.24 1350.53 539.14 1349.33 538.94C1348.17 538.74 1347.03 538.64 1345.91 538.64C1344.27 538.64 1342.81 538.88 1341.53 539.36C1340.25 539.84 1339.09 540.54 1338.05 541.46C1337.05 542.34 1336.15 543.42 1335.35 544.7C1334.59 545.98 1333.87 547.44 1333.19 549.08V587H1318.37V525.44H1327.07C1328.59 525.44 1329.65 525.72 1330.25 526.28C1330.85 526.8 1331.25 527.76 1331.45 529.16L1332.35 536.12ZM1405.47 538.46C1405.03 539.02 1404.59 539.46 1404.15 539.78C1403.75 540.1 1403.15 540.26 1402.35 540.26C1401.59 540.26 1400.85 540.04 1400.13 539.6C1399.41 539.12 1398.55 538.6 1397.55 538.04C1396.55 537.44 1395.35 536.92 1393.95 536.48C1392.59 536 1390.89 535.76 1388.85 535.76C1386.25 535.76 1383.97 536.24 1382.01 537.2C1380.05 538.12 1378.41 539.46 1377.09 541.22C1375.81 542.98 1374.85 545.12 1374.21 547.64C1373.57 550.12 1373.25 552.94 1373.25 556.1C1373.25 559.38 1373.59 562.3 1374.27 564.86C1374.99 567.42 1376.01 569.58 1377.33 571.34C1378.65 573.06 1380.25 574.38 1382.13 575.3C1384.01 576.18 1386.13 576.62 1388.49 576.62C1390.85 576.62 1392.75 576.34 1394.19 575.78C1395.67 575.18 1396.91 574.54 1397.91 573.86C1398.91 573.14 1399.77 572.5 1400.49 571.94C1401.25 571.34 1402.09 571.04 1403.01 571.04C1404.21 571.04 1405.11 571.5 1405.71 572.42L1409.97 577.82C1408.33 579.74 1406.55 581.36 1404.63 582.68C1402.71 583.96 1400.71 585 1398.63 585.8C1396.59 586.56 1394.47 587.1 1392.27 587.42C1390.11 587.74 1387.95 587.9 1385.79 587.9C1381.99 587.9 1378.41 587.2 1375.05 585.8C1371.69 584.36 1368.75 582.28 1366.23 579.56C1363.71 576.84 1361.71 573.52 1360.23 569.6C1358.79 565.64 1358.07 561.14 1358.07 556.1C1358.07 551.58 1358.71 547.4 1359.99 543.56C1361.31 539.68 1363.23 536.34 1365.75 533.54C1368.27 530.7 1371.39 528.48 1375.11 526.88C1378.83 525.28 1383.11 524.48 1387.95 524.48C1392.55 524.48 1396.57 525.22 1400.01 526.7C1403.49 528.18 1406.61 530.3 1409.37 533.06L1405.47 538.46ZM1434.09 532.04C1436.49 529.8 1439.13 527.98 1442.01 526.58C1444.89 525.18 1448.27 524.48 1452.15 524.48C1455.51 524.48 1458.49 525.06 1461.09 526.22C1463.69 527.34 1465.85 528.94 1467.57 531.02C1469.33 533.06 1470.65 535.52 1471.53 538.4C1472.45 541.24 1472.91 544.38 1472.91 547.82V587H1458.09V547.82C1458.09 544.06 1457.23 541.16 1455.51 539.12C1453.79 537.04 1451.17 536 1447.65 536C1445.09 536 1442.69 536.58 1440.45 537.74C1438.21 538.9 1436.09 540.48 1434.09 542.48V587H1419.27V497.84H1434.09V532.04Z" fill="#1D3557"/>
</svg>
