<svg width="618" height="149" viewBox="0 0 618 149" fill="none" xmlns="http://www.w3.org/2000/svg">
<path d="M57.04 106.8C58.04 106.8 58.88 106.68 59.56 106.44C60.24 106.2 60.78 105.88 61.18 105.48C61.5933 105.08 61.8867 104.613 62.06 104.08C62.2467 103.547 62.34 102.98 62.34 102.38C62.34 101.753 62.24 101.193 62.04 100.7C61.84 100.193 61.5267 99.7667 61.1 99.42C60.6733 99.06 60.12 98.7867 59.44 98.6C58.7733 98.4133 57.9667 98.32 57.02 98.32H51.6V106.8H57.04ZM51.6 86.24V94.6H55.88C57.72 94.6 59.1067 94.2667 60.04 93.6C60.9867 92.9333 61.46 91.8733 61.46 90.42C61.46 88.9133 61.0333 87.84 60.18 87.2C59.3267 86.56 57.9933 86.24 56.18 86.24H51.6ZM56.18 82.08C58.0733 82.08 59.6933 82.26 61.04 82.62C62.3867 82.98 63.4867 83.4933 64.34 84.16C65.2067 84.8267 65.84 85.6333 66.24 86.58C66.64 87.5267 66.84 88.5933 66.84 89.78C66.84 90.46 66.74 91.1133 66.54 91.74C66.34 92.3533 66.0267 92.9333 65.6 93.48C65.1867 94.0133 64.6533 94.5 64 94.94C63.36 95.38 62.5933 95.7533 61.7 96.06C65.6733 96.9533 67.66 99.1 67.66 102.5C67.66 103.727 67.4267 104.86 66.96 105.9C66.4933 106.94 65.8133 107.84 64.92 108.6C64.0267 109.347 62.9267 109.933 61.62 110.36C60.3133 110.787 58.82 111 57.14 111H46.22V82.08H56.18ZM84.7147 98.38C84.7147 97.74 84.6214 97.14 84.4347 96.58C84.2614 96.0067 83.9947 95.5067 83.6347 95.08C83.2747 94.6533 82.8147 94.32 82.2547 94.08C81.708 93.8267 81.068 93.7 80.3347 93.7C78.908 93.7 77.7814 94.1067 76.9547 94.92C76.1414 95.7333 75.6214 96.8867 75.3947 98.38H84.7147ZM75.2947 101.36C75.3747 102.413 75.5614 103.327 75.8547 104.1C76.148 104.86 76.5347 105.493 77.0147 106C77.4947 106.493 78.0614 106.867 78.7147 107.12C79.3814 107.36 80.1147 107.48 80.9147 107.48C81.7147 107.48 82.4014 107.387 82.9747 107.2C83.5614 107.013 84.068 106.807 84.4947 106.58C84.9347 106.353 85.3147 106.147 85.6347 105.96C85.968 105.773 86.288 105.68 86.5947 105.68C87.008 105.68 87.3147 105.833 87.5147 106.14L88.9347 107.94C88.388 108.58 87.7747 109.12 87.0947 109.56C86.4147 109.987 85.7014 110.333 84.9547 110.6C84.2214 110.853 83.468 111.033 82.6947 111.14C81.9347 111.247 81.1947 111.3 80.4747 111.3C79.048 111.3 77.7214 111.067 76.4947 110.6C75.268 110.12 74.2014 109.42 73.2947 108.5C72.388 107.567 71.6747 106.42 71.1547 105.06C70.6347 103.687 70.3747 102.1 70.3747 100.3C70.3747 98.9 70.6014 97.5867 71.0547 96.36C71.508 95.12 72.1547 94.0467 72.9947 93.14C73.848 92.22 74.8814 91.4933 76.0947 90.96C77.3214 90.4267 78.7014 90.16 80.2347 90.16C81.528 90.16 82.7214 90.3667 83.8147 90.78C84.908 91.1933 85.848 91.8 86.6347 92.6C87.4214 93.3867 88.0347 94.36 88.4747 95.52C88.928 96.6667 89.1547 97.98 89.1547 99.46C89.1547 100.207 89.0747 100.713 88.9147 100.98C88.7547 101.233 88.448 101.36 87.9947 101.36H75.2947ZM97.8019 92.68C98.6019 91.9333 99.4819 91.3267 100.442 90.86C101.402 90.3933 102.529 90.16 103.822 90.16C104.942 90.16 105.935 90.3533 106.802 90.74C107.669 91.1133 108.389 91.6467 108.962 92.34C109.549 93.02 109.989 93.84 110.282 94.8C110.589 95.7467 110.742 96.7933 110.742 97.94V111H105.802V97.94C105.802 96.6867 105.515 95.72 104.942 95.04C104.369 94.3467 103.495 94 102.322 94C101.469 94 100.669 94.1933 99.9219 94.58C99.1752 94.9667 98.4685 95.4933 97.8019 96.16V111H92.8619V81.28H97.8019V92.68ZM126.28 102.24C124.853 102.307 123.653 102.433 122.68 102.62C121.707 102.793 120.927 103.02 120.34 103.3C119.753 103.58 119.333 103.907 119.08 104.28C118.827 104.653 118.7 105.06 118.7 105.5C118.7 106.367 118.953 106.987 119.46 107.36C119.98 107.733 120.653 107.92 121.48 107.92C122.493 107.92 123.367 107.74 124.1 107.38C124.847 107.007 125.573 106.447 126.28 105.7V102.24ZM114.96 93.34C117.32 91.18 120.16 90.1 123.48 90.1C124.68 90.1 125.753 90.3 126.7 90.7C127.647 91.0867 128.447 91.6333 129.1 92.34C129.753 93.0333 130.247 93.8667 130.58 94.84C130.927 95.8133 131.1 96.88 131.1 98.04V111H128.86C128.393 111 128.033 110.933 127.78 110.8C127.527 110.653 127.327 110.367 127.18 109.94L126.74 108.46C126.22 108.927 125.713 109.34 125.22 109.7C124.727 110.047 124.213 110.34 123.68 110.58C123.147 110.82 122.573 111 121.96 111.12C121.36 111.253 120.693 111.32 119.96 111.32C119.093 111.32 118.293 111.207 117.56 110.98C116.827 110.74 116.193 110.387 115.66 109.92C115.127 109.453 114.713 108.873 114.42 108.18C114.127 107.487 113.98 106.68 113.98 105.76C113.98 105.24 114.067 104.727 114.24 104.22C114.413 103.7 114.693 103.207 115.08 102.74C115.48 102.273 115.993 101.833 116.62 101.42C117.247 101.007 118.013 100.647 118.92 100.34C119.84 100.033 120.907 99.7867 122.12 99.6C123.333 99.4 124.72 99.28 126.28 99.24V98.04C126.28 96.6667 125.987 95.6533 125.4 95C124.813 94.3333 123.967 94 122.86 94C122.06 94 121.393 94.0933 120.86 94.28C120.34 94.4667 119.88 94.68 119.48 94.92C119.08 95.1467 118.713 95.3533 118.38 95.54C118.06 95.7267 117.7 95.82 117.3 95.82C116.953 95.82 116.66 95.7333 116.42 95.56C116.18 95.3733 115.987 95.16 115.84 94.92L114.96 93.34ZM140.373 93C140.786 92.5867 141.219 92.2067 141.673 91.86C142.139 91.5 142.626 91.2 143.133 90.96C143.653 90.7067 144.206 90.5133 144.793 90.38C145.379 90.2333 146.019 90.16 146.713 90.16C147.833 90.16 148.826 90.3533 149.693 90.74C150.559 91.1133 151.279 91.6467 151.853 92.34C152.439 93.02 152.879 93.84 153.173 94.8C153.479 95.7467 153.633 96.7933 153.633 97.94V111H148.693V97.94C148.693 96.6867 148.406 95.72 147.833 95.04C147.259 94.3467 146.386 94 145.213 94C144.359 94 143.559 94.1933 142.813 94.58C142.066 94.9667 141.359 95.4933 140.693 96.16V111H135.753V90.48H138.773C139.413 90.48 139.833 90.78 140.033 91.38L140.373 93ZM173.031 94.82C172.884 95.0067 172.737 95.1533 172.591 95.26C172.457 95.3667 172.257 95.42 171.991 95.42C171.737 95.42 171.491 95.3467 171.251 95.2C171.011 95.04 170.724 94.8667 170.391 94.68C170.057 94.48 169.657 94.3067 169.191 94.16C168.737 94 168.171 93.92 167.491 93.92C166.624 93.92 165.864 94.08 165.211 94.4C164.557 94.7067 164.011 95.1533 163.571 95.74C163.144 96.3267 162.824 97.04 162.611 97.88C162.397 98.7067 162.291 99.6467 162.291 100.7C162.291 101.793 162.404 102.767 162.631 103.62C162.871 104.473 163.211 105.193 163.651 105.78C164.091 106.353 164.624 106.793 165.251 107.1C165.877 107.393 166.584 107.54 167.371 107.54C168.157 107.54 168.791 107.447 169.271 107.26C169.764 107.06 170.177 106.847 170.511 106.62C170.844 106.38 171.131 106.167 171.371 105.98C171.624 105.78 171.904 105.68 172.211 105.68C172.611 105.68 172.911 105.833 173.111 106.14L174.531 107.94C173.984 108.58 173.391 109.12 172.751 109.56C172.111 109.987 171.444 110.333 170.751 110.6C170.071 110.853 169.364 111.033 168.631 111.14C167.911 111.247 167.191 111.3 166.471 111.3C165.204 111.3 164.011 111.067 162.891 110.6C161.771 110.12 160.791 109.427 159.951 108.52C159.111 107.613 158.444 106.507 157.951 105.2C157.471 103.88 157.231 102.38 157.231 100.7C157.231 99.1933 157.444 97.8 157.871 96.52C158.311 95.2267 158.951 94.1133 159.791 93.18C160.631 92.2333 161.671 91.4933 162.911 90.96C164.151 90.4267 165.577 90.16 167.191 90.16C168.724 90.16 170.064 90.4067 171.211 90.9C172.371 91.3933 173.411 92.1 174.331 93.02L173.031 94.82ZM190.496 98.38C190.496 97.74 190.403 97.14 190.216 96.58C190.043 96.0067 189.776 95.5067 189.416 95.08C189.056 94.6533 188.596 94.32 188.036 94.08C187.489 93.8267 186.849 93.7 186.116 93.7C184.689 93.7 183.563 94.1067 182.736 94.92C181.923 95.7333 181.403 96.8867 181.176 98.38H190.496ZM181.076 101.36C181.156 102.413 181.343 103.327 181.636 104.1C181.929 104.86 182.316 105.493 182.796 106C183.276 106.493 183.843 106.867 184.496 107.12C185.163 107.36 185.896 107.48 186.696 107.48C187.496 107.48 188.183 107.387 188.756 107.2C189.343 107.013 189.849 106.807 190.276 106.58C190.716 106.353 191.096 106.147 191.416 105.96C191.749 105.773 192.069 105.68 192.376 105.68C192.789 105.68 193.096 105.833 193.296 106.14L194.716 107.94C194.169 108.58 193.556 109.12 192.876 109.56C192.196 109.987 191.483 110.333 190.736 110.6C190.003 110.853 189.249 111.033 188.476 111.14C187.716 111.247 186.976 111.3 186.256 111.3C184.829 111.3 183.503 111.067 182.276 110.6C181.049 110.12 179.983 109.42 179.076 108.5C178.169 107.567 177.456 106.42 176.936 105.06C176.416 103.687 176.156 102.1 176.156 100.3C176.156 98.9 176.383 97.5867 176.836 96.36C177.289 95.12 177.936 94.0467 178.776 93.14C179.629 92.22 180.663 91.4933 181.876 90.96C183.103 90.4267 184.483 90.16 186.016 90.16C187.309 90.16 188.503 90.3667 189.596 90.78C190.689 91.1933 191.629 91.8 192.416 92.6C193.203 93.3867 193.816 94.36 194.256 95.52C194.709 96.6667 194.936 97.98 194.936 99.46C194.936 100.207 194.856 100.713 194.696 100.98C194.536 101.233 194.229 101.36 193.776 101.36H181.076Z" fill="#676777"/>
<rect x="0.5" y="0.5" width="616.743" height="145" stroke="white" stroke-linecap="square"/>
<path d="M0 145H617.7" stroke="#7BFFA0" stroke-width="8"/>
<g clip-path="url(#clip0)">
<path d="M552.991 73C548.64 72.9982 544.387 71.7061 540.77 69.2872C537.153 66.8683 534.335 63.4312 532.671 59.4105C531.008 55.3898 530.574 50.9662 531.425 46.699C532.275 42.4317 534.372 38.5126 537.45 35.4371C540.528 32.3617 544.449 30.268 548.717 29.4209C552.985 28.5739 557.408 29.0114 561.428 30.6782C565.447 32.345 568.882 35.1662 571.297 38.7851C573.713 42.404 575.002 46.658 575 51.0092C574.994 56.8429 572.673 62.4358 568.546 66.5591C564.419 70.6824 558.824 72.999 552.991 73ZM558.49 68.6151C561.823 67.5758 564.794 65.6129 567.056 62.954C569.319 60.2951 570.782 57.0492 571.274 53.5928C571.767 50.1364 571.27 46.6111 569.841 43.4257C568.411 40.2404 566.108 37.5256 563.198 35.5962C560.288 33.6668 556.891 32.6019 553.4 32.5249C549.91 32.448 546.469 33.3622 543.477 35.1615C540.485 36.9607 538.064 39.5714 536.496 42.6906C534.927 45.8098 534.275 49.3098 534.615 52.7846C534.994 57.1052 536.921 61.1433 540.043 64.1546C542.176 66.2973 544.82 67.8611 547.726 68.6982C547.726 68.4915 547.726 68.3475 547.726 68.2036C547.726 67.0852 547.707 65.9669 547.753 64.8504C547.757 64.3014 547.87 63.7588 548.086 63.254C548.302 62.7493 548.616 62.2925 549.01 61.9105C549.132 61.7942 549.263 61.6853 549.431 61.5414C549.278 61.5137 549.196 61.4953 549.115 61.486C547.593 61.3462 546.102 60.9688 544.697 60.3677C543.728 59.966 542.85 59.3717 542.118 58.6208C541.385 57.87 540.812 56.9782 540.434 55.9994C539.915 54.5871 539.638 53.097 539.617 51.5924C539.534 50.5157 539.666 49.4332 540.004 48.4078C540.343 47.3824 540.882 46.4343 541.589 45.6186C541.656 45.5527 541.702 45.4676 541.718 45.3751C541.735 45.2826 541.723 45.1872 541.684 45.1018C541.15 43.4251 541.236 41.6129 541.923 39.9935C541.956 39.9303 542.004 39.8759 542.062 39.8348C542.12 39.7936 542.187 39.7671 542.257 39.7573C542.691 39.7527 543.124 39.7929 543.549 39.8773C544.974 40.2747 546.318 40.918 547.521 41.7781C547.613 41.8424 547.718 41.8849 547.828 41.9025C547.939 41.9201 548.052 41.9123 548.159 41.8796C551.397 41.0393 554.796 41.0393 558.034 41.8796C558.153 41.9143 558.279 41.9207 558.4 41.8982C558.522 41.8758 558.637 41.8252 558.736 41.7504C559.934 40.9008 561.272 40.2686 562.689 39.8828C563.11 39.8001 563.539 39.7618 563.968 39.7684C564.028 39.7764 564.085 39.7987 564.135 39.8333C564.185 39.868 564.225 39.9141 564.254 39.9677C564.938 41.5621 565.038 43.3465 564.538 45.0077C564.486 45.1249 564.472 45.255 564.495 45.3808C564.519 45.5066 564.58 45.6223 564.671 45.7127C565.874 47.0961 566.546 48.8623 566.566 50.6955C566.622 52.2475 566.431 53.7985 566.001 55.2908C565.532 56.9337 564.536 58.377 563.167 59.3988C561.711 60.4105 560.039 61.0672 558.284 61.3163C557.796 61.4085 557.304 61.4639 556.842 61.5322C557.214 61.9415 557.56 62.3729 557.879 62.824C558.329 63.626 558.54 64.5396 558.488 65.4575C558.498 66.4965 558.498 67.5392 558.498 68.6151H558.49Z" fill="#676777"/>
</g>
<defs>
<clipPath id="clip0">
<rect width="44" height="44" fill="white" transform="translate(531 29)"/>
</clipPath>
</defs>
</svg>
