<svg width="618" height="149" viewBox="0 0 618 149" fill="none" xmlns="http://www.w3.org/2000/svg">
<path d="M66.08 104.18C66.3733 104.18 66.6333 104.293 66.86 104.52L68.98 106.82C67.8067 108.273 66.36 109.387 64.64 110.16C62.9333 110.933 60.88 111.32 58.48 111.32C56.3333 111.32 54.4 110.953 52.68 110.22C50.9733 109.487 49.5133 108.467 48.3 107.16C47.0867 105.853 46.1533 104.293 45.5 102.48C44.86 100.667 44.54 98.6867 44.54 96.54C44.54 94.3667 44.8867 92.38 45.58 90.58C46.2733 88.7667 47.2467 87.2067 48.5 85.9C49.7667 84.5933 51.2733 83.58 53.02 82.86C54.7667 82.1267 56.7 81.76 58.82 81.76C60.9267 81.76 62.7933 82.1067 64.42 82.8C66.06 83.4933 67.4533 84.4 68.6 85.52L66.8 88.02C66.6933 88.18 66.5533 88.32 66.38 88.44C66.22 88.56 65.9933 88.62 65.7 88.62C65.5 88.62 65.2933 88.5667 65.08 88.46C64.8667 88.34 64.6333 88.2 64.38 88.04C64.1267 87.8667 63.8333 87.68 63.5 87.48C63.1667 87.28 62.78 87.1 62.34 86.94C61.9 86.7667 61.3867 86.6267 60.8 86.52C60.2267 86.4 59.56 86.34 58.8 86.34C57.5067 86.34 56.32 86.5733 55.24 87.04C54.1733 87.4933 53.2533 88.16 52.48 89.04C51.7067 89.9067 51.1067 90.9733 50.68 92.24C50.2533 93.4933 50.04 94.9267 50.04 96.54C50.04 98.1667 50.2667 99.6133 50.72 100.88C51.1867 102.147 51.8133 103.213 52.6 104.08C53.3867 104.947 54.3133 105.613 55.38 106.08C56.4467 106.533 57.5933 106.76 58.82 106.76C59.5533 106.76 60.2133 106.72 60.8 106.64C61.4 106.56 61.9467 106.433 62.44 106.26C62.9467 106.087 63.42 105.867 63.86 105.6C64.3133 105.32 64.76 104.98 65.2 104.58C65.3333 104.46 65.4733 104.367 65.62 104.3C65.7667 104.22 65.92 104.18 66.08 104.18ZM80.5356 90.16C82.0556 90.16 83.4356 90.4067 84.6756 90.9C85.929 91.3933 86.9956 92.0933 87.8756 93C88.769 93.9067 89.4556 95.0133 89.9356 96.32C90.4156 97.6267 90.6556 99.0867 90.6556 100.7C90.6556 102.327 90.4156 103.793 89.9356 105.1C89.4556 106.407 88.769 107.52 87.8756 108.44C86.9956 109.36 85.929 110.067 84.6756 110.56C83.4356 111.053 82.0556 111.3 80.5356 111.3C79.0023 111.3 77.609 111.053 76.3556 110.56C75.1023 110.067 74.029 109.36 73.1356 108.44C72.2556 107.52 71.569 106.407 71.0756 105.1C70.5956 103.793 70.3556 102.327 70.3556 100.7C70.3556 99.0867 70.5956 97.6267 71.0756 96.32C71.569 95.0133 72.2556 93.9067 73.1356 93C74.029 92.0933 75.1023 91.3933 76.3556 90.9C77.609 90.4067 79.0023 90.16 80.5356 90.16ZM80.5356 107.5C82.2423 107.5 83.5023 106.927 84.3156 105.78C85.1423 104.633 85.5556 102.953 85.5556 100.74C85.5556 98.5267 85.1423 96.84 84.3156 95.68C83.5023 94.52 82.2423 93.94 80.5356 93.94C78.8023 93.94 77.5156 94.5267 76.6756 95.7C75.849 96.86 75.4356 98.54 75.4356 100.74C75.4356 102.94 75.849 104.62 76.6756 105.78C77.5156 106.927 78.8023 107.5 80.5356 107.5ZM107.304 95.72C106.744 95.04 106.131 94.56 105.464 94.28C104.811 94 104.104 93.86 103.344 93.86C102.598 93.86 101.924 94 101.324 94.28C100.724 94.56 100.211 94.9867 99.7844 95.56C99.3577 96.12 99.031 96.84 98.8044 97.72C98.5777 98.5867 98.4644 99.6133 98.4644 100.8C98.4644 102 98.5577 103.02 98.7444 103.86C98.9444 104.687 99.2244 105.367 99.5844 105.9C99.9444 106.42 100.384 106.8 100.904 107.04C101.424 107.267 102.004 107.38 102.644 107.38C103.671 107.38 104.544 107.167 105.264 106.74C105.984 106.313 106.664 105.707 107.304 104.92V95.72ZM112.244 81.28V111H109.224C108.571 111 108.158 110.7 107.984 110.1L107.564 108.12C106.738 109.067 105.784 109.833 104.704 110.42C103.638 111.007 102.391 111.3 100.964 111.3C99.8444 111.3 98.8177 111.067 97.8844 110.6C96.951 110.133 96.1444 109.46 95.4644 108.58C94.7977 107.687 94.2777 106.587 93.9044 105.28C93.5444 103.973 93.3644 102.48 93.3644 100.8C93.3644 99.28 93.571 97.8667 93.9844 96.56C94.3977 95.2533 94.991 94.12 95.7644 93.16C96.5377 92.2 97.4644 91.4533 98.5444 90.92C99.6244 90.3733 100.838 90.1 102.184 90.1C103.331 90.1 104.311 90.28 105.124 90.64C105.938 91 106.664 91.4867 107.304 92.1V81.28H112.244ZM130.34 98.38C130.34 97.74 130.246 97.14 130.06 96.58C129.886 96.0067 129.62 95.5067 129.26 95.08C128.9 94.6533 128.44 94.32 127.88 94.08C127.333 93.8267 126.693 93.7 125.96 93.7C124.533 93.7 123.406 94.1067 122.58 94.92C121.766 95.7333 121.246 96.8867 121.02 98.38H130.34ZM120.92 101.36C121 102.413 121.186 103.327 121.48 104.1C121.773 104.86 122.16 105.493 122.64 106C123.12 106.493 123.686 106.867 124.34 107.12C125.006 107.36 125.74 107.48 126.54 107.48C127.34 107.48 128.026 107.387 128.6 107.2C129.186 107.013 129.693 106.807 130.12 106.58C130.56 106.353 130.94 106.147 131.26 105.96C131.593 105.773 131.913 105.68 132.22 105.68C132.633 105.68 132.94 105.833 133.14 106.14L134.56 107.94C134.013 108.58 133.4 109.12 132.72 109.56C132.04 109.987 131.326 110.333 130.58 110.6C129.846 110.853 129.093 111.033 128.32 111.14C127.56 111.247 126.82 111.3 126.1 111.3C124.673 111.3 123.346 111.067 122.12 110.6C120.893 110.12 119.826 109.42 118.92 108.5C118.013 107.567 117.3 106.42 116.78 105.06C116.26 103.687 116 102.1 116 100.3C116 98.9 116.226 97.5867 116.68 96.36C117.133 95.12 117.78 94.0467 118.62 93.14C119.473 92.22 120.506 91.4933 121.72 90.96C122.946 90.4267 124.326 90.16 125.86 90.16C127.153 90.16 128.346 90.3667 129.44 90.78C130.533 91.1933 131.473 91.8 132.26 92.6C133.046 93.3867 133.66 94.36 134.1 95.52C134.553 96.6667 134.78 97.98 134.78 99.46C134.78 100.207 134.7 100.713 134.54 100.98C134.38 101.233 134.073 101.36 133.62 101.36H120.92ZM143.427 105.68C143.987 106.36 144.594 106.84 145.247 107.12C145.914 107.4 146.634 107.54 147.407 107.54C148.154 107.54 148.827 107.4 149.427 107.12C150.027 106.84 150.534 106.413 150.947 105.84C151.374 105.267 151.7 104.547 151.927 103.68C152.154 102.8 152.267 101.767 152.267 100.58C152.267 99.38 152.167 98.3667 151.967 97.54C151.78 96.7 151.507 96.02 151.147 95.5C150.787 94.98 150.347 94.6 149.827 94.36C149.32 94.12 148.74 94 148.087 94C147.06 94 146.187 94.22 145.467 94.66C144.747 95.0867 144.067 95.6933 143.427 96.48V105.68ZM143.167 93.28C144.007 92.3333 144.96 91.5667 146.027 90.98C147.094 90.3933 148.347 90.1 149.787 90.1C150.907 90.1 151.927 90.3333 152.847 90.8C153.78 91.2667 154.58 91.9467 155.247 92.84C155.927 93.72 156.447 94.8133 156.807 96.12C157.18 97.4133 157.367 98.9 157.367 100.58C157.367 102.113 157.16 103.533 156.747 104.84C156.334 106.147 155.74 107.28 154.967 108.24C154.207 109.2 153.28 109.953 152.187 110.5C151.107 111.033 149.894 111.3 148.547 111.3C147.4 111.3 146.42 111.127 145.607 110.78C144.794 110.42 144.067 109.927 143.427 109.3V117.7H138.487V90.48H141.507C142.147 90.48 142.567 90.78 142.767 91.38L143.167 93.28ZM174.441 98.38C174.441 97.74 174.348 97.14 174.161 96.58C173.988 96.0067 173.721 95.5067 173.361 95.08C173.001 94.6533 172.541 94.32 171.981 94.08C171.435 93.8267 170.795 93.7 170.061 93.7C168.635 93.7 167.508 94.1067 166.681 94.92C165.868 95.7333 165.348 96.8867 165.121 98.38H174.441ZM165.021 101.36C165.101 102.413 165.288 103.327 165.581 104.1C165.875 104.86 166.261 105.493 166.741 106C167.221 106.493 167.788 106.867 168.441 107.12C169.108 107.36 169.841 107.48 170.641 107.48C171.441 107.48 172.128 107.387 172.701 107.2C173.288 107.013 173.795 106.807 174.221 106.58C174.661 106.353 175.041 106.147 175.361 105.96C175.695 105.773 176.015 105.68 176.321 105.68C176.735 105.68 177.041 105.833 177.241 106.14L178.661 107.94C178.115 108.58 177.501 109.12 176.821 109.56C176.141 109.987 175.428 110.333 174.681 110.6C173.948 110.853 173.195 111.033 172.421 111.14C171.661 111.247 170.921 111.3 170.201 111.3C168.775 111.3 167.448 111.067 166.221 110.6C164.995 110.12 163.928 109.42 163.021 108.5C162.115 107.567 161.401 106.42 160.881 105.06C160.361 103.687 160.101 102.1 160.101 100.3C160.101 98.9 160.328 97.5867 160.781 96.36C161.235 95.12 161.881 94.0467 162.721 93.14C163.575 92.22 164.608 91.4933 165.821 90.96C167.048 90.4267 168.428 90.16 169.961 90.16C171.255 90.16 172.448 90.3667 173.541 90.78C174.635 91.1933 175.575 91.8 176.361 92.6C177.148 93.3867 177.761 94.36 178.201 95.52C178.655 96.6667 178.881 97.98 178.881 99.46C178.881 100.207 178.801 100.713 178.641 100.98C178.481 101.233 178.175 101.36 177.721 101.36H165.021ZM187.208 93C187.622 92.5867 188.055 92.2067 188.508 91.86C188.975 91.5 189.462 91.2 189.968 90.96C190.488 90.7067 191.042 90.5133 191.628 90.38C192.215 90.2333 192.855 90.16 193.548 90.16C194.668 90.16 195.662 90.3533 196.528 90.74C197.395 91.1133 198.115 91.6467 198.688 92.34C199.275 93.02 199.715 93.84 200.008 94.8C200.315 95.7467 200.468 96.7933 200.468 97.94V111H195.528V97.94C195.528 96.6867 195.242 95.72 194.668 95.04C194.095 94.3467 193.222 94 192.048 94C191.195 94 190.395 94.1933 189.648 94.58C188.902 94.9667 188.195 95.4933 187.528 96.16V111H182.588V90.48H185.608C186.248 90.48 186.668 90.78 186.868 91.38L187.208 93Z" fill="#676777"/>
<rect x="0.5" y="0.5" width="616.743" height="145" stroke="white" stroke-linecap="square"/>
<path d="M0 145H617.7" stroke="#7BFFA0" stroke-width="8"/>
<g clip-path="url(#clip0)">
<path d="M552.991 73C548.64 72.9982 544.387 71.7061 540.77 69.2872C537.153 66.8683 534.335 63.4312 532.671 59.4105C531.008 55.3898 530.574 50.9662 531.425 46.699C532.275 42.4317 534.372 38.5126 537.45 35.4371C540.528 32.3617 544.449 30.268 548.717 29.4209C552.985 28.5739 557.408 29.0114 561.428 30.6782C565.447 32.345 568.882 35.1662 571.297 38.7851C573.713 42.404 575.002 46.658 575 51.0092C574.994 56.8429 572.673 62.4358 568.546 66.5591C564.419 70.6824 558.824 72.999 552.991 73ZM558.49 68.6151C561.823 67.5758 564.794 65.6129 567.056 62.954C569.319 60.2951 570.782 57.0492 571.274 53.5928C571.767 50.1364 571.27 46.6111 569.841 43.4257C568.411 40.2404 566.108 37.5256 563.198 35.5962C560.288 33.6668 556.891 32.6019 553.4 32.5249C549.91 32.448 546.469 33.3622 543.477 35.1615C540.485 36.9607 538.064 39.5714 536.496 42.6906C534.927 45.8098 534.275 49.3098 534.615 52.7846C534.994 57.1052 536.921 61.1433 540.043 64.1546C542.176 66.2973 544.82 67.8611 547.726 68.6982C547.726 68.4915 547.726 68.3475 547.726 68.2036C547.726 67.0852 547.707 65.9669 547.753 64.8504C547.757 64.3014 547.87 63.7588 548.086 63.254C548.302 62.7493 548.616 62.2925 549.01 61.9105C549.132 61.7942 549.263 61.6853 549.431 61.5414C549.278 61.5137 549.196 61.4953 549.115 61.486C547.593 61.3462 546.102 60.9688 544.697 60.3677C543.728 59.966 542.85 59.3717 542.118 58.6208C541.385 57.87 540.812 56.9782 540.434 55.9994C539.915 54.5871 539.638 53.097 539.617 51.5924C539.534 50.5157 539.666 49.4332 540.004 48.4078C540.343 47.3824 540.882 46.4343 541.589 45.6186C541.656 45.5527 541.702 45.4676 541.718 45.3751C541.735 45.2826 541.723 45.1872 541.684 45.1018C541.15 43.4251 541.236 41.6129 541.923 39.9935C541.956 39.9303 542.004 39.8759 542.062 39.8348C542.12 39.7936 542.187 39.7671 542.257 39.7573C542.691 39.7527 543.124 39.7929 543.549 39.8773C544.974 40.2747 546.318 40.918 547.521 41.7781C547.613 41.8424 547.718 41.8849 547.828 41.9025C547.939 41.9201 548.052 41.9123 548.159 41.8796C551.397 41.0393 554.796 41.0393 558.034 41.8796C558.153 41.9143 558.279 41.9207 558.4 41.8982C558.522 41.8758 558.637 41.8252 558.736 41.7504C559.934 40.9008 561.272 40.2686 562.689 39.8828C563.11 39.8001 563.539 39.7618 563.968 39.7684C564.028 39.7764 564.085 39.7987 564.135 39.8333C564.185 39.868 564.225 39.9141 564.254 39.9677C564.938 41.5621 565.038 43.3465 564.538 45.0077C564.486 45.1249 564.472 45.255 564.495 45.3808C564.519 45.5066 564.58 45.6223 564.671 45.7127C565.874 47.0961 566.546 48.8623 566.566 50.6955C566.622 52.2475 566.431 53.7985 566.001 55.2908C565.532 56.9337 564.536 58.377 563.167 59.3988C561.711 60.4105 560.039 61.0672 558.284 61.3163C557.796 61.4085 557.304 61.4639 556.842 61.5322C557.214 61.9415 557.56 62.3729 557.879 62.824C558.329 63.626 558.54 64.5396 558.488 65.4575C558.498 66.4965 558.498 67.5392 558.498 68.6151H558.49Z" fill="#676777"/>
</g>
<defs>
<clipPath id="clip0">
<rect width="44" height="44" fill="white" transform="translate(531 29)"/>
</clipPath>
</defs>
</svg>
