<svg width="553" height="455" viewBox="0 0 553 455" fill="none" xmlns="http://www.w3.org/2000/svg">
<path d="M547.928 69.1377H27.894C26.5489 69.1377 25.2589 68.6034 24.3077 67.6523C23.3566 66.7011 22.8223 65.4111 22.8223 64.066V25.3586C22.8296 18.6354 25.5037 12.1896 30.2577 7.43555C35.0118 2.68149 41.4576 0.00738341 48.1809 0H527.641C534.364 0.00738341 540.81 2.68149 545.564 7.43555C550.318 12.1896 552.992 18.6354 553 25.3586V64.066C553 65.4111 552.465 66.7011 551.514 67.6523C550.563 68.6034 549.273 69.1377 547.928 69.1377ZM32.9632 58.9943H542.856V25.3586C542.852 21.3245 541.248 17.4569 538.395 14.6043C535.543 11.7518 531.675 10.1475 527.641 10.1434H48.1809C44.147 10.1481 40.2797 11.7527 37.4273 14.605C34.5749 17.4574 32.9704 21.3247 32.9657 25.3586L32.9632 58.9943Z" fill="#1F3969"/>
<path d="M547.928 59.4761H27.894C26.5489 59.4761 25.2589 58.9418 24.3077 57.9906C23.3566 57.0395 22.8223 55.7495 22.8223 54.4044V25.3586C22.8296 18.6354 25.5037 12.1896 30.2577 7.43555C35.0118 2.68149 41.4576 0.0073834 48.1809 0H527.641C534.364 0.0073834 540.81 2.68149 545.564 7.43555C550.318 12.1896 552.992 18.6354 553 25.3586V54.4044C553 55.7495 552.465 57.0395 551.514 57.9906C550.563 58.9418 549.273 59.4761 547.928 59.4761ZM32.9632 49.3327H542.856V25.3586C542.852 21.3245 541.248 17.4569 538.395 14.6043C535.543 11.7518 531.675 10.1475 527.641 10.1434H48.1809C44.147 10.1481 40.2797 11.7527 37.4273 14.605C34.5749 17.4574 32.9704 21.3247 32.9657 25.3586L32.9632 49.3327Z" fill="#1F3969"/>
<path d="M547.929 69.1377H27.895C26.5499 69.1377 25.2598 68.6033 24.3087 67.6522C23.3576 66.7011 22.8232 65.4111 22.8232 64.066V25.3586C22.8306 18.6353 25.5047 12.1896 30.2587 7.43549C35.0128 2.68143 41.4586 0.00732237 48.1818 -6.10352e-05H527.642C534.365 0.00732237 540.811 2.68143 545.565 7.43549C550.319 12.1896 552.993 18.6353 553 25.3586V64.066C553 65.4111 552.466 66.7011 551.515 67.6522C550.564 68.6033 549.274 69.1377 547.929 69.1377ZM32.9641 58.9942H542.857V25.3586C542.853 21.3245 541.249 17.4568 538.396 14.6043C535.544 11.7518 531.676 10.1474 527.642 10.1434H48.1818C44.148 10.1481 40.2806 11.7526 37.4283 14.605C34.5759 17.4574 32.9714 21.3247 32.9667 25.3586L32.9641 58.9942Z" fill="#1F3969"/>
<path d="M527.642 426.747H48.1818C41.4586 426.74 35.0128 424.066 30.2587 419.312C25.5047 414.557 22.8306 408.112 22.8232 401.388V25.3585C22.8306 18.6353 25.5047 12.1895 30.2587 7.43548C35.0128 2.68142 41.4586 0.00732236 48.1818 -6.10352e-05H527.642C534.365 0.00732236 540.811 2.68142 545.565 7.43548C550.319 12.1895 552.993 18.6353 553 25.3585V401.388C552.993 408.112 550.319 414.557 545.565 419.312C540.811 424.066 534.365 426.74 527.642 426.747ZM48.1818 10.1434C44.148 10.1481 40.2806 11.7526 37.4283 14.605C34.5759 17.4573 32.9714 21.3247 32.9667 25.3585V401.388C32.9714 405.422 34.5759 409.29 37.4283 412.142C40.2806 414.994 44.148 416.599 48.1818 416.604H527.642C531.676 416.6 535.544 414.995 538.396 412.143C541.249 409.29 542.853 405.422 542.857 401.388V25.3585C542.853 21.3245 541.249 17.4568 538.396 14.6043C535.544 11.7517 531.676 10.1474 527.642 10.1434H48.1818Z" fill="#1F3969"/>
<g opacity="0.28">
<path opacity="0.28" d="M5.07129 77.8307V429.283C5.07129 434.663 7.20863 439.823 11.0132 443.628C14.8177 447.432 19.9777 449.57 25.3582 449.57H504.818C510.198 449.57 515.358 447.432 519.163 443.628C522.967 439.823 525.105 434.663 525.105 429.283V77.8307H5.07129Z" fill="#1F3969"/>
<path opacity="0.28" d="M504.819 454.641H25.3586C18.6353 454.634 12.1895 451.96 7.43547 447.206C2.68141 442.452 0.0073834 436.006 0 429.283V77.8306C0 76.4855 0.534336 75.1955 1.48547 74.2444C2.4366 73.2932 3.72662 72.7589 5.07172 72.7589H525.105C526.451 72.7589 527.74 73.2932 528.692 74.2444C529.643 75.1955 530.177 76.4855 530.177 77.8306V429.283C530.17 436.006 527.496 442.452 522.742 447.206C517.988 451.96 511.542 454.634 504.819 454.641ZM10.1434 82.9023V429.283C10.1481 433.317 11.7526 437.184 14.605 440.036C17.4574 442.889 21.3247 444.493 25.3586 444.498H504.819C508.853 444.494 512.72 442.89 515.573 440.037C518.425 437.185 520.03 433.317 520.034 429.283V82.9023H10.1434Z" fill="#1F3969"/>
</g>
<path d="M527.644 5.07172H48.1814C36.9773 5.07172 27.8945 14.1545 27.8945 25.3586V401.391C27.8945 412.595 36.9773 421.678 48.1814 421.678H527.644C538.848 421.678 547.931 412.595 547.931 401.391V25.3586C547.931 14.1545 538.848 5.07172 527.644 5.07172Z" fill="#26284C"/>
<path d="M48.1814 5.07172H527.641C533.022 5.07172 538.182 7.20906 541.986 11.0136C545.791 14.8181 547.928 19.9782 547.928 25.3586V64.066H27.8945V25.3586C27.8945 19.9782 30.0319 14.8181 33.8364 11.0136C37.6409 7.20906 42.801 5.07172 48.1814 5.07172Z" fill="#D0DDF0"/>
<path d="M78.7938 44.7123C84.3959 44.7123 88.9372 40.1709 88.9372 34.5689C88.9372 28.9668 84.3959 24.4254 78.7938 24.4254C73.1918 24.4254 68.6504 28.9668 68.6504 34.5689C68.6504 40.1709 73.1918 44.7123 78.7938 44.7123Z" fill="#1F3969"/>
<path d="M114.007 44.7123C119.609 44.7123 124.15 40.1709 124.15 34.5689C124.15 28.9668 119.609 24.4254 114.007 24.4254C108.405 24.4254 103.863 28.9668 103.863 34.5689C103.863 40.1709 108.405 44.7123 114.007 44.7123Z" fill="#1F3969"/>
<path d="M149.22 44.7123C154.822 44.7123 159.363 40.1709 159.363 34.5689C159.363 28.9668 154.822 24.4254 149.22 24.4254C143.618 24.4254 139.076 28.9668 139.076 34.5689C139.076 40.1709 143.618 44.7123 149.22 44.7123Z" fill="#1F3969"/>
<path d="M340.651 110.88H373.435" stroke="white" stroke-width="19" stroke-linecap="round" stroke-linejoin="round"/>
<path d="M168.363 110.88H311.325" stroke="#7BFFA0" stroke-width="19" stroke-linecap="round" stroke-linejoin="round"/>
<path d="M88.9375 110.88H139.076" stroke="#9169FF" stroke-width="19" stroke-linecap="round" stroke-linejoin="round"/>
<path d="M156.292 360.812H265.481" stroke="#9169FF" stroke-width="19" stroke-linecap="round" stroke-linejoin="round"/>
<path d="M88.9375 360.812H124.148" stroke="#7BFFA0" stroke-width="19" stroke-linecap="round" stroke-linejoin="round"/>
<path d="M310.327 142.122H330.652" stroke="white" stroke-width="19" stroke-linecap="round" stroke-linejoin="round"/>
<path d="M213.831 142.122H282.875" stroke="#9169FF" stroke-width="19" stroke-linecap="round" stroke-linejoin="round"/>
<path d="M114.008 142.122H184.363" stroke="#FFC47D" stroke-width="19" stroke-linecap="round" stroke-linejoin="round"/>
<path d="M233.907 173.364H294.357" stroke="white" stroke-width="19" stroke-linecap="round" stroke-linejoin="round"/>
<path d="M146.677 173.364H203.688" stroke="#FF5757" stroke-width="19" stroke-linecap="round" stroke-linejoin="round"/>
<path d="M246.969 204.606H259.491" stroke="white" stroke-width="19" stroke-linecap="round" stroke-linejoin="round"/>
<path d="M190.708 204.606H218.831" stroke="#9169FF" stroke-width="19" stroke-linecap="round" stroke-linejoin="round"/>
<path d="M114.008 204.606H159.364" stroke="#7BFFA0" stroke-width="19" stroke-linecap="round" stroke-linejoin="round"/>
<path d="M214.39 235.848H295.268" stroke="#FFC47D" stroke-width="19" stroke-linecap="round" stroke-linejoin="round"/>
<path d="M114.008 235.848H186.602" stroke="#FF5757" stroke-width="19" stroke-linecap="round" stroke-linejoin="round"/>
<path d="M318.947 267.089H362.927" stroke="#9169FF" stroke-width="19" stroke-linecap="round" stroke-linejoin="round"/>
<path d="M216.39 267.089H286.757" stroke="#FF5757" stroke-width="19" stroke-linecap="round" stroke-linejoin="round"/>
<path d="M146.677 267.089H186.601" stroke="#7BFFA0" stroke-width="19" stroke-linecap="round" stroke-linejoin="round"/>
<path d="M247.354 298.331H285.757" stroke="white" stroke-width="19" stroke-linecap="round" stroke-linejoin="round"/>
<path d="M146.677 298.331H217.032" stroke="#9169FF" stroke-width="19" stroke-linecap="round" stroke-linejoin="round"/>
<path d="M356.044 329.573H399.894" stroke="white" stroke-width="19" stroke-linecap="round" stroke-linejoin="round"/>
<path d="M214.831 329.573H325.316" stroke="#FFC47D" stroke-width="19" stroke-linecap="round" stroke-linejoin="round"/>
<path d="M114.008 329.573H184.363" stroke="white" stroke-width="19" stroke-linecap="round" stroke-linejoin="round"/>
</svg>
