<svg width="35" height="21" viewBox="0 0 35 21" fill="none" xmlns="http://www.w3.org/2000/svg">
<rect width="35" height="21" rx="2" fill="#F45353"/>
<path d="M8.5025 10.7465C8.5025 11.2235 8.423 11.6615 8.264 12.0605C8.105 12.4595 7.8815 12.803 7.5935 13.091C7.3055 13.379 6.959 13.6025 6.554 13.7615C6.149 13.9205 5.699 14 5.204 14H2.7245V7.493H5.204C5.699 7.493 6.149 7.574 6.554 7.736C6.959 7.895 7.3055 8.1185 7.5935 8.4065C7.8815 8.6915 8.105 9.0335 8.264 9.4325C8.423 9.8315 8.5025 10.2695 8.5025 10.7465ZM7.2605 10.7465C7.2605 10.3895 7.2125 10.07 7.1165 9.788C7.0235 9.503 6.887 9.263 6.707 9.068C6.53 8.87 6.314 8.7185 6.059 8.6135C5.807 8.5085 5.522 8.456 5.204 8.456H3.9395V13.037H5.204C5.522 13.037 5.807 12.9845 6.059 12.8795C6.314 12.7745 6.53 12.6245 6.707 12.4295C6.887 12.2315 7.0235 11.9915 7.1165 11.7095C7.2125 11.4245 7.2605 11.1035 7.2605 10.7465ZM11.3262 8.456V10.2605H13.6032V11.192H11.3262V13.0325H14.2152V14H10.1112V7.493H14.2152V8.456H11.3262ZM22.8839 7.493V14H21.8174V9.797C21.8174 9.629 21.8264 9.4475 21.8444 9.2525L19.8779 12.947C19.7849 13.124 19.6424 13.2125 19.4504 13.2125H19.2794C19.0874 13.2125 18.9449 13.124 18.8519 12.947L16.8629 9.239C16.8719 9.338 16.8794 9.4355 16.8854 9.5315C16.8914 9.6275 16.8944 9.716 16.8944 9.797V14H15.8279V7.493H16.7414C16.7954 7.493 16.8419 7.4945 16.8809 7.4975C16.9199 7.5005 16.9544 7.508 16.9844 7.52C17.0174 7.532 17.0459 7.5515 17.0699 7.5785C17.0969 7.6055 17.1224 7.6415 17.1464 7.6865L19.0949 11.3C19.1459 11.396 19.1924 11.495 19.2344 11.597C19.2794 11.699 19.3229 11.804 19.3649 11.912C19.4069 11.801 19.4504 11.6945 19.4954 11.5925C19.5404 11.4875 19.5884 11.387 19.6394 11.291L21.5609 7.6865C21.5849 7.6415 21.6104 7.6055 21.6374 7.5785C21.6644 7.5515 21.6929 7.532 21.7229 7.52C21.7559 7.508 21.7919 7.5005 21.8309 7.4975C21.8699 7.4945 21.9164 7.493 21.9704 7.493H22.8839ZM31.0813 10.7465C31.0813 11.2235 31.0018 11.666 30.8428 12.074C30.6868 12.479 30.4648 12.83 30.1768 13.127C29.8888 13.424 29.5423 13.6565 29.1373 13.8245C28.7323 13.9895 28.2823 14.072 27.7873 14.072C27.2953 14.072 26.8468 13.9895 26.4418 13.8245C26.0368 13.6565 25.6888 13.424 25.3978 13.127C25.1098 12.83 24.8863 12.479 24.7273 12.074C24.5683 11.666 24.4888 11.2235 24.4888 10.7465C24.4888 10.2695 24.5683 9.8285 24.7273 9.4235C24.8863 9.0155 25.1098 8.663 25.3978 8.366C25.6888 8.069 26.0368 7.838 26.4418 7.673C26.8468 7.505 27.2953 7.421 27.7873 7.421C28.1173 7.421 28.4278 7.46 28.7188 7.538C29.0098 7.613 29.2768 7.721 29.5198 7.862C29.7628 8 29.9803 8.1695 30.1723 8.3705C30.3673 8.5685 30.5323 8.7905 30.6673 9.0365C30.8023 9.2825 30.9043 9.5495 30.9733 9.8375C31.0453 10.1255 31.0813 10.4285 31.0813 10.7465ZM29.8438 10.7465C29.8438 10.3895 29.7958 10.07 29.6998 9.788C29.6038 9.503 29.4673 9.2615 29.2903 9.0635C29.1133 8.8655 28.8973 8.714 28.6423 8.609C28.3903 8.504 28.1053 8.4515 27.7873 8.4515C27.4693 8.4515 27.1828 8.504 26.9278 8.609C26.6758 8.714 26.4598 8.8655 26.2798 9.0635C26.1028 9.2615 25.9663 9.503 25.8703 9.788C25.7743 10.07 25.7263 10.3895 25.7263 10.7465C25.7263 11.1035 25.7743 11.4245 25.8703 11.7095C25.9663 11.9915 26.1028 12.2315 26.2798 12.4295C26.4598 12.6245 26.6758 12.7745 26.9278 12.8795C27.1828 12.9845 27.4693 13.037 27.7873 13.037C28.1053 13.037 28.3903 12.9845 28.6423 12.8795C28.8973 12.7745 29.1133 12.6245 29.2903 12.4295C29.4673 12.2315 29.6038 11.9915 29.6998 11.7095C29.7958 11.4245 29.8438 11.1035 29.8438 10.7465Z" fill="white"/>
</svg>
