<svg width="26" height="26" viewBox="0 0 26 26" fill="none" xmlns="http://www.w3.org/2000/svg">
<g clip-path="url(#clip0)">
<path d="M12.9998 24.9167C12.8612 24.9167 12.7225 24.8636 12.6163 24.7585L7.19966 19.3418C7.04475 19.1869 6.99816 18.954 7.08266 18.7514C7.16716 18.5488 7.36433 18.4167 7.58316 18.4167H10.2915V13C10.2915 12.4031 10.7768 11.9167 11.3748 11.9167H14.6248C15.2228 11.9167 15.7082 12.4031 15.7082 13V18.4167H18.4165C18.6353 18.4167 18.8336 18.5488 18.917 18.7514C19.0004 18.954 18.9538 19.1869 18.8 19.3418L13.3833 24.7585C13.2772 24.8636 13.1385 24.9167 12.9998 24.9167ZM8.89075 19.5L12.9998 23.6091L17.1089 19.5H15.1665C14.8675 19.5 14.6248 19.2573 14.6248 18.9583V13H11.3748V18.9583C11.3748 19.2573 11.1322 19.5 10.8332 19.5H8.89075Z" fill="white"/>
<path d="M4.87608 18.3842C4.8555 18.3842 4.836 18.3831 4.81433 18.3809C2.07025 18.0765 0 15.7625 0 13C0 10.1378 2.23058 7.78808 5.044 7.59633C5.79367 3.85233 9.13575 1.08333 13 1.08333C16.0344 1.08333 18.8294 2.79283 20.2074 5.46433C23.4813 5.80775 26 8.58217 26 11.9167C26 14.82 24.0543 17.3875 21.2702 18.1588C20.9777 18.2379 20.683 18.0689 20.6039 17.7808C20.5238 17.4926 20.6928 17.1936 20.9809 17.1145C23.2982 16.4732 24.9167 14.3347 24.9167 11.9167C24.9167 9.04909 22.6818 6.67875 19.8283 6.52058C19.6278 6.50975 19.4513 6.3895 19.3668 6.20858C18.2206 3.75375 15.7224 2.16667 13 2.16667C9.51708 2.16667 6.52492 4.76125 6.03958 8.20083C6.00167 8.46733 5.77308 8.66667 5.50333 8.66667C3.02683 8.66667 1.08333 10.6102 1.08333 13C1.08333 15.21 2.73867 17.0603 4.93567 17.3041C5.2325 17.3377 5.447 17.6053 5.41342 17.9021C5.38308 18.1794 5.148 18.3842 4.87608 18.3842Z" fill="white"/>
</g>
<defs>
<clipPath id="clip0">
<rect width="26" height="26" fill="white"/>
</clipPath>
</defs>
</svg>
