<svg width="619" height="149" viewBox="0 0 619 149" fill="none" xmlns="http://www.w3.org/2000/svg">
<path d="M72.9 96.54C72.9 98.66 72.5467 100.607 71.84 102.38C71.1333 104.153 70.14 105.68 68.86 106.96C67.58 108.24 66.04 109.233 64.24 109.94C62.44 110.647 60.44 111 58.24 111H47.22V82.08H58.24C60.44 82.08 62.44 82.44 64.24 83.16C66.04 83.8667 67.58 84.86 68.86 86.14C70.14 87.4067 71.1333 88.9267 71.84 90.7C72.5467 92.4733 72.9 94.42 72.9 96.54ZM67.38 96.54C67.38 94.9533 67.1667 93.5333 66.74 92.28C66.3267 91.0133 65.72 89.9467 64.92 89.08C64.1333 88.2 63.1733 87.5267 62.04 87.06C60.92 86.5933 59.6533 86.36 58.24 86.36H52.62V106.72H58.24C59.6533 106.72 60.92 106.487 62.04 106.02C63.1733 105.553 64.1333 104.887 64.92 104.02C65.72 103.14 66.3267 102.073 66.74 100.82C67.1667 99.5533 67.38 98.1267 67.38 96.54ZM81.1781 94.04C81.8181 92.8133 82.5781 91.8533 83.4581 91.16C84.3381 90.4533 85.3781 90.1 86.5781 90.1C87.5248 90.1 88.2848 90.3067 88.8581 90.72L88.5381 94.42C88.4715 94.66 88.3715 94.8333 88.2381 94.94C88.1181 95.0333 87.9515 95.08 87.7381 95.08C87.5381 95.08 87.2381 95.0467 86.8381 94.98C86.4515 94.9133 86.0715 94.88 85.6981 94.88C85.1515 94.88 84.6648 94.96 84.2381 95.12C83.8115 95.28 83.4248 95.5133 83.0781 95.82C82.7448 96.1133 82.4448 96.4733 82.1781 96.9C81.9248 97.3267 81.6848 97.8133 81.4581 98.36V111H76.5181V90.48H79.4181C79.9248 90.48 80.2781 90.5733 80.4781 90.76C80.6781 90.9333 80.8115 91.2533 80.8781 91.72L81.1781 94.04ZM96.56 90.48V111H91.6V90.48H96.56ZM97.24 84.5C97.24 84.9267 97.1533 85.3267 96.98 85.7C96.8067 86.0733 96.5733 86.4 96.28 86.68C96 86.96 95.6667 87.1867 95.28 87.36C94.8933 87.52 94.48 87.6 94.04 87.6C93.6133 87.6 93.2067 87.52 92.82 87.36C92.4467 87.1867 92.12 86.96 91.84 86.68C91.56 86.4 91.3333 86.0733 91.16 85.7C91 85.3267 90.92 84.9267 90.92 84.5C90.92 84.06 91 83.6467 91.16 83.26C91.3333 82.8733 91.56 82.54 91.84 82.26C92.12 81.98 92.4467 81.76 92.82 81.6C93.2067 81.4267 93.6133 81.34 94.04 81.34C94.48 81.34 94.8933 81.4267 95.28 81.6C95.6667 81.76 96 81.98 96.28 82.26C96.5733 82.54 96.8067 82.8733 96.98 83.26C97.1533 83.6467 97.24 84.06 97.24 84.5ZM106.536 105.68C107.096 106.36 107.703 106.84 108.356 107.12C109.023 107.4 109.723 107.54 110.456 107.54C111.216 107.54 111.896 107.407 112.496 107.14C113.11 106.86 113.63 106.433 114.056 105.86C114.483 105.273 114.81 104.533 115.036 103.64C115.263 102.733 115.376 101.653 115.376 100.4C115.376 98.1467 115.003 96.52 114.256 95.52C113.51 94.5067 112.436 94 111.036 94C110.09 94 109.263 94.22 108.556 94.66C107.85 95.0867 107.176 95.6933 106.536 96.48V105.68ZM106.536 93C107.363 92.1333 108.276 91.4467 109.276 90.94C110.29 90.42 111.443 90.16 112.736 90.16C113.923 90.16 114.99 90.3933 115.936 90.86C116.896 91.3267 117.71 92 118.376 92.88C119.056 93.7467 119.576 94.8 119.936 96.04C120.296 97.28 120.476 98.6733 120.476 100.22C120.476 101.887 120.27 103.4 119.856 104.76C119.443 106.12 118.85 107.287 118.076 108.26C117.316 109.22 116.396 109.967 115.316 110.5C114.236 111.033 113.036 111.3 111.716 111.3C111.076 111.3 110.496 111.233 109.976 111.1C109.456 110.98 108.976 110.807 108.536 110.58C108.096 110.353 107.69 110.08 107.316 109.76C106.956 109.427 106.61 109.06 106.276 108.66L106.056 110.04C105.976 110.387 105.836 110.633 105.636 110.78C105.45 110.927 105.19 111 104.856 111H101.596V81.28H106.536V93ZM129.232 105.68C129.792 106.36 130.398 106.84 131.052 107.12C131.718 107.4 132.418 107.54 133.152 107.54C133.912 107.54 134.592 107.407 135.192 107.14C135.805 106.86 136.325 106.433 136.752 105.86C137.178 105.273 137.505 104.533 137.732 103.64C137.958 102.733 138.072 101.653 138.072 100.4C138.072 98.1467 137.698 96.52 136.952 95.52C136.205 94.5067 135.132 94 133.732 94C132.785 94 131.958 94.22 131.252 94.66C130.545 95.0867 129.872 95.6933 129.232 96.48V105.68ZM129.232 93C130.058 92.1333 130.972 91.4467 131.972 90.94C132.985 90.42 134.138 90.16 135.432 90.16C136.618 90.16 137.685 90.3933 138.632 90.86C139.592 91.3267 140.405 92 141.072 92.88C141.752 93.7467 142.272 94.8 142.632 96.04C142.992 97.28 143.172 98.6733 143.172 100.22C143.172 101.887 142.965 103.4 142.552 104.76C142.138 106.12 141.545 107.287 140.772 108.26C140.012 109.22 139.092 109.967 138.012 110.5C136.932 111.033 135.732 111.3 134.412 111.3C133.772 111.3 133.192 111.233 132.672 111.1C132.152 110.98 131.672 110.807 131.232 110.58C130.792 110.353 130.385 110.08 130.012 109.76C129.652 109.427 129.305 109.06 128.972 108.66L128.752 110.04C128.672 110.387 128.532 110.633 128.332 110.78C128.145 110.927 127.885 111 127.552 111H124.292V81.28H129.232V93ZM151.987 81.28V111H147.047V81.28H151.987ZM170.129 98.38C170.129 97.74 170.035 97.14 169.849 96.58C169.675 96.0067 169.409 95.5067 169.049 95.08C168.689 94.6533 168.229 94.32 167.669 94.08C167.122 93.8267 166.482 93.7 165.749 93.7C164.322 93.7 163.195 94.1067 162.369 94.92C161.555 95.7333 161.035 96.8867 160.809 98.38H170.129ZM160.709 101.36C160.789 102.413 160.975 103.327 161.269 104.1C161.562 104.86 161.949 105.493 162.429 106C162.909 106.493 163.475 106.867 164.129 107.12C164.795 107.36 165.529 107.48 166.329 107.48C167.129 107.48 167.815 107.387 168.389 107.2C168.975 107.013 169.482 106.807 169.909 106.58C170.349 106.353 170.729 106.147 171.049 105.96C171.382 105.773 171.702 105.68 172.009 105.68C172.422 105.68 172.729 105.833 172.929 106.14L174.349 107.94C173.802 108.58 173.189 109.12 172.509 109.56C171.829 109.987 171.115 110.333 170.369 110.6C169.635 110.853 168.882 111.033 168.109 111.14C167.349 111.247 166.609 111.3 165.889 111.3C164.462 111.3 163.135 111.067 161.909 110.6C160.682 110.12 159.615 109.42 158.709 108.5C157.802 107.567 157.089 106.42 156.569 105.06C156.049 103.687 155.789 102.1 155.789 100.3C155.789 98.9 156.015 97.5867 156.469 96.36C156.922 95.12 157.569 94.0467 158.409 93.14C159.262 92.22 160.295 91.4933 161.509 90.96C162.735 90.4267 164.115 90.16 165.649 90.16C166.942 90.16 168.135 90.3667 169.229 90.78C170.322 91.1933 171.262 91.8 172.049 92.6C172.835 93.3867 173.449 94.36 173.889 95.52C174.342 96.6667 174.569 97.98 174.569 99.46C174.569 100.207 174.489 100.713 174.329 100.98C174.169 101.233 173.862 101.36 173.409 101.36H160.709Z" fill="#676777"/>
<rect x="1.12891" y="0.5" width="616.743" height="145" stroke="white"/>
<path d="M1 145H618.7" stroke="#7BFFA0" stroke-width="8"/>
<g clip-path="url(#clip0)">
<path d="M529 52.291V49.7133L529.079 49.2581L529.497 46.4209C530.547 41.2723 533.453 36.6889 537.668 33.5482C540.171 31.5798 543.082 30.1963 546.189 29.4991C549.297 28.8019 552.52 28.8087 555.624 29.519C560.75 30.5527 565.309 33.4426 568.435 37.6302C571.9 42.0377 573.495 47.6306 572.879 53.2015C572.465 57.7724 570.582 62.0864 567.511 65.498C564.23 69.2862 559.734 71.8162 554.793 72.6547L552.291 72.9978H549.713C549.604 72.9666 549.493 72.943 549.381 72.9274C545.982 72.7141 542.688 71.6738 539.782 69.8989C537.043 68.2953 534.688 66.1108 532.885 63.4991C531.081 60.8874 529.872 57.9121 529.343 54.7828L529 52.291ZM539.503 65.399C544.897 69.7581 552.298 70.6819 558.599 67.7831C557.83 63.2475 556.591 58.8043 554.901 54.5255C550.439 55.4272 542.383 61.1125 539.501 65.399H539.503ZM536.916 62.9226C541.254 57.521 547.04 53.4566 553.596 51.2133L551.931 47.6592C551.761 47.2787 551.601 47.2193 551.198 47.3469C546.143 48.9893 540.888 49.935 535.578 50.1576L532.538 50.2764C532.37 54.8901 533.93 59.4004 536.913 62.9248L536.916 62.9226ZM550.014 44.0083C548.099 40.5546 545.946 37.2381 543.571 34.0826C540.968 35.2466 538.665 36.989 536.837 39.177C535.01 41.365 533.705 43.9411 533.024 46.709C538.788 46.6431 544.512 45.7325 550.014 44.0083ZM565.315 39.3896C562.28 42.1112 558.814 44.3104 555.059 45.8975L557.098 50.3182C559.129 49.9289 561.19 49.7463 563.258 49.7683C565.326 49.8035 567.39 50.0257 569.418 50.4281C569.323 46.3937 567.879 42.5074 565.315 39.3896ZM547.275 32.895L553.501 42.7041C556.931 41.2976 560.095 39.3153 562.856 36.8428C558.533 33.2359 552.806 31.7887 547.289 32.906L547.275 32.895ZM561.879 65.9137C565.782 63.0503 568.418 58.7806 569.227 54.0087C565.68 53.18 562.005 53.0582 558.412 53.6502C559.918 57.6309 561.078 61.7339 561.879 65.9137Z" fill="#676777"/>
</g>
<defs>
<clipPath id="clip0">
<rect width="44" height="44" fill="white" transform="translate(529 29)"/>
</clipPath>
</defs>
</svg>
