<svg width="618" height="149" viewBox="0 0 618 149" fill="none" xmlns="http://www.w3.org/2000/svg">
<path d="M68.0305 94.5875V105.41C66.6738 106.409 65.2247 107.143 63.683 107.611C62.1537 108.068 60.5133 108.296 58.762 108.296C56.579 108.296 54.5995 107.957 52.8235 107.278C51.0598 106.6 49.549 105.657 48.291 104.448C47.0453 103.239 46.0833 101.796 45.405 100.119C44.7267 98.4417 44.3875 96.6102 44.3875 94.6245C44.3875 92.6142 44.7143 90.7703 45.368 89.093C46.0217 87.4157 46.9467 85.9727 48.143 84.764C49.3517 83.5553 50.8132 82.618 52.5275 81.952C54.2418 81.286 56.1658 80.953 58.2995 80.953C59.3848 80.953 60.3962 81.0393 61.3335 81.212C62.2832 81.3847 63.1588 81.6252 63.9605 81.9335C64.7745 82.2295 65.5145 82.5933 66.1805 83.025C66.8465 83.4567 67.457 83.9315 68.012 84.4495L66.5875 86.7065C66.3655 87.0642 66.0757 87.2862 65.718 87.3725C65.3603 87.4465 64.9718 87.354 64.5525 87.095C64.1455 86.8607 63.7385 86.6263 63.3315 86.392C62.9245 86.1577 62.4682 85.9542 61.9625 85.7815C61.4692 85.6088 60.908 85.467 60.279 85.356C59.6623 85.245 58.947 85.1895 58.133 85.1895C56.8133 85.1895 55.617 85.4115 54.544 85.8555C53.4833 86.2995 52.5768 86.9347 51.8245 87.761C51.0722 88.5873 50.4925 89.5802 50.0855 90.7395C49.6785 91.8988 49.475 93.1938 49.475 94.6245C49.475 96.1538 49.6908 97.5228 50.1225 98.7315C50.5665 99.9278 51.1832 100.945 51.9725 101.784C52.7742 102.61 53.7362 103.245 54.8585 103.689C55.9808 104.121 57.2327 104.337 58.614 104.337C59.6007 104.337 60.4825 104.232 61.2595 104.022C62.0365 103.813 62.795 103.529 63.535 103.171V98.3245H60.168C59.8473 98.3245 59.5945 98.2382 59.4095 98.0655C59.2368 97.8805 59.1505 97.6585 59.1505 97.3995V94.5875H68.0305ZM76.7674 89.019V108H72.1794V89.019H76.7674ZM77.3964 83.4875C77.3964 83.8822 77.3162 84.2522 77.1559 84.5975C76.9956 84.9428 76.7797 85.245 76.5084 85.504C76.2494 85.763 75.9411 85.9727 75.5834 86.133C75.2257 86.281 74.8434 86.355 74.4364 86.355C74.0417 86.355 73.6656 86.281 73.3079 86.133C72.9626 85.9727 72.6604 85.763 72.4014 85.504C72.1424 85.245 71.9327 84.9428 71.7724 84.5975C71.6244 84.2522 71.5504 83.8822 71.5504 83.4875C71.5504 83.0805 71.6244 82.6982 71.7724 82.3405C71.9327 81.9828 72.1424 81.6745 72.4014 81.4155C72.6604 81.1565 72.9626 80.953 73.3079 80.805C73.6656 80.6447 74.0417 80.5645 74.4364 80.5645C74.8434 80.5645 75.2257 80.6447 75.5834 80.805C75.9411 80.953 76.2494 81.1565 76.5084 81.4155C76.7797 81.6745 76.9956 81.9828 77.1559 82.3405C77.3162 82.6982 77.3964 83.0805 77.3964 83.4875ZM87.7529 108.296C86.1003 108.296 84.8299 107.833 83.9419 106.908C83.0663 105.971 82.6284 104.682 82.6284 103.042V92.4415H80.6859C80.4393 92.4415 80.2296 92.3613 80.0569 92.201C79.8843 92.0407 79.7979 91.8002 79.7979 91.4795V89.6665L82.8504 89.167L83.8124 83.987C83.8741 83.7403 83.9913 83.5492 84.1639 83.4135C84.3366 83.2778 84.5586 83.21 84.8299 83.21H87.1979V89.1855H92.2669V92.4415H87.1979V102.727C87.1979 103.319 87.3398 103.782 87.6234 104.115C87.9194 104.448 88.3203 104.614 88.8259 104.614C89.1096 104.614 89.3439 104.584 89.5289 104.522C89.7263 104.448 89.8928 104.374 90.0284 104.3C90.1764 104.226 90.3059 104.158 90.4169 104.096C90.5279 104.022 90.6389 103.985 90.7499 103.985C90.8856 103.985 90.9966 104.022 91.0829 104.096C91.1693 104.158 91.2618 104.257 91.3604 104.392L92.7294 106.612C92.0634 107.167 91.2988 107.587 90.4354 107.87C89.5721 108.154 88.6779 108.296 87.7529 108.296ZM99.762 91.054C100.502 90.3633 101.316 89.8022 102.204 89.3705C103.092 88.9388 104.134 88.723 105.331 88.723C106.367 88.723 107.285 88.9018 108.087 89.2595C108.889 89.6048 109.555 90.0982 110.085 90.7395C110.628 91.3685 111.035 92.127 111.306 93.015C111.59 93.8907 111.732 94.8588 111.732 95.9195V108H107.162V95.9195C107.162 94.7602 106.897 93.866 106.367 93.237C105.836 92.5957 105.028 92.275 103.943 92.275C103.154 92.275 102.414 92.4538 101.723 92.8115C101.032 93.1692 100.379 93.6563 99.762 94.273V108H95.1925V80.509H99.762V91.054ZM132.431 89.019V108H129.638C129.033 108 128.651 107.722 128.491 107.167L128.176 105.65C127.399 106.44 126.542 107.081 125.605 107.574C124.667 108.055 123.564 108.296 122.293 108.296C121.257 108.296 120.338 108.123 119.537 107.778C118.747 107.42 118.081 106.921 117.539 106.279C116.996 105.638 116.583 104.88 116.299 104.004C116.028 103.116 115.892 102.142 115.892 101.081V89.019H120.462V101.081C120.462 102.24 120.727 103.141 121.257 103.782C121.8 104.411 122.608 104.725 123.681 104.725C124.47 104.725 125.21 104.553 125.901 104.207C126.591 103.85 127.245 103.363 127.862 102.746V89.019H132.431ZM141.532 103.079C142.05 103.708 142.611 104.152 143.215 104.411C143.832 104.67 144.479 104.799 145.158 104.799C145.861 104.799 146.49 104.676 147.045 104.429C147.612 104.17 148.093 103.776 148.488 103.246C148.882 102.703 149.184 102.018 149.394 101.192C149.604 100.353 149.709 99.3543 149.709 98.195C149.709 96.1107 149.363 94.606 148.673 93.681C147.982 92.7437 146.989 92.275 145.694 92.275C144.818 92.275 144.054 92.4785 143.4 92.8855C142.746 93.2802 142.124 93.8413 141.532 94.569V103.079ZM141.532 91.35C142.296 90.5483 143.141 89.9132 144.066 89.4445C145.003 88.9635 146.07 88.723 147.267 88.723C148.364 88.723 149.351 88.9388 150.227 89.3705C151.115 89.8022 151.867 90.425 152.484 91.239C153.113 92.0407 153.594 93.015 153.927 94.162C154.26 95.309 154.426 96.5978 154.426 98.0285C154.426 99.5702 154.235 100.97 153.853 102.228C153.47 103.486 152.921 104.565 152.206 105.465C151.503 106.353 150.652 107.044 149.653 107.537C148.654 108.031 147.544 108.278 146.323 108.278C145.731 108.278 145.195 108.216 144.714 108.093C144.233 107.981 143.789 107.821 143.382 107.611C142.975 107.402 142.598 107.149 142.253 106.853C141.92 106.545 141.599 106.205 141.291 105.835L141.088 107.112C141.014 107.433 140.884 107.661 140.699 107.796C140.526 107.932 140.286 108 139.978 108H136.962V80.509H141.532V91.35Z" fill="#676777"/>
<rect x="0.5" y="0.5" width="616.743" height="145" stroke="white" stroke-linecap="square"/>
<path d="M0 145H617.7" stroke="#7BFFA0" stroke-width="8"/>
<g clip-path="url(#clip0)">
<path d="M551.991 71C547.838 70.9983 543.778 69.7649 540.326 67.456C536.873 65.147 534.183 61.8661 532.595 58.0282C531.007 54.1903 530.593 49.9677 531.405 45.8945C532.217 41.8212 534.219 38.0802 537.157 35.1445C540.095 32.2089 543.838 30.2104 547.912 29.4018C551.986 28.5932 556.208 29.0109 560.044 30.6019C563.881 32.193 567.16 34.886 569.466 38.3404C571.772 41.7948 573.002 45.8554 573 50.0088C572.994 55.5774 570.779 60.916 566.839 64.8519C562.9 68.7878 557.56 70.9991 551.991 71V71ZM557.241 66.8145C560.422 65.8224 563.258 63.9487 565.417 61.4106C567.577 58.8726 568.973 55.7743 569.444 52.4749C569.914 49.1756 569.44 45.8106 568.075 42.77C566.711 39.7295 564.512 37.1381 561.734 35.2964C558.957 33.4547 555.714 32.4382 552.382 32.3647C549.05 32.2913 545.766 33.1639 542.91 34.8814C540.054 36.5989 537.743 39.0909 536.246 42.0683C534.749 45.0457 534.126 48.3866 534.451 51.7035C534.812 55.8277 536.652 59.6823 539.632 62.5567C541.668 64.602 544.192 66.0946 546.965 66.8937C546.965 66.6964 546.965 66.559 546.965 66.4216C546.965 65.3541 546.948 64.2866 546.992 63.2208C546.995 62.6968 547.103 62.1788 547.309 61.697C547.515 61.2152 547.815 60.7792 548.191 60.4146C548.308 60.3036 548.433 60.1997 548.593 60.0622C548.447 60.0358 548.369 60.0182 548.292 60.0094C546.839 59.8759 545.416 59.5157 544.075 58.9419C543.149 58.5584 542.312 57.9912 541.612 57.2744C540.913 56.5577 540.366 55.7064 540.005 54.7722C539.51 53.4241 539.246 52.0017 539.225 50.5655C539.146 49.5377 539.272 48.5044 539.595 47.5256C539.918 46.5468 540.433 45.6418 541.108 44.8632C541.172 44.8003 541.215 44.7191 541.231 44.6308C541.247 44.5425 541.236 44.4514 541.198 44.3699C540.689 42.7694 540.77 41.0396 541.427 39.4938C541.458 39.4335 541.503 39.3815 541.559 39.3423C541.614 39.303 541.678 39.2777 541.746 39.2684C542.16 39.264 542.573 39.3023 542.979 39.3829C544.339 39.7622 545.622 40.3763 546.77 41.1973C546.857 41.2586 546.958 41.2992 547.063 41.316C547.169 41.3328 547.277 41.3253 547.379 41.2942C550.47 40.492 553.715 40.492 556.806 41.2942C556.919 41.3273 557.039 41.3334 557.155 41.312C557.271 41.2906 557.381 41.2422 557.475 41.1709C558.618 40.3599 559.896 39.7564 561.248 39.3881C561.65 39.3092 562.06 39.2726 562.469 39.2789C562.527 39.2866 562.581 39.3078 562.629 39.3409C562.676 39.374 562.715 39.418 562.742 39.4692C563.395 40.9911 563.491 42.6944 563.014 44.2801C562.964 44.392 562.95 44.5161 562.973 44.6362C562.995 44.7563 563.054 44.8667 563.14 44.953C564.289 46.2736 564.93 47.9595 564.95 49.7093C565.003 51.1908 564.821 52.6713 564.41 54.0957C563.963 55.664 563.012 57.0417 561.705 58.017C560.315 58.9828 558.719 59.6096 557.043 59.8473C556.578 59.9354 556.108 59.9883 555.668 60.0534C556.022 60.4442 556.353 60.856 556.658 61.2866C557.087 62.0521 557.288 62.9242 557.239 63.8004C557.248 64.7921 557.248 65.7874 557.248 66.8145H557.241Z" fill="#676777"/>
</g>
<defs>
<clipPath id="clip0">
<rect width="42" height="42" fill="white" transform="translate(531 29)"/>
</clipPath>
</defs>
</svg>
