<svg width="618" height="149" viewBox="0 0 618 149" fill="none" xmlns="http://www.w3.org/2000/svg">
<path d="M62.62 112H57.22V83.08H62.62V112ZM72.6225 94C73.0358 93.5867 73.4692 93.2067 73.9225 92.86C74.3892 92.5 74.8758 92.2 75.3825 91.96C75.9025 91.7067 76.4558 91.5133 77.0425 91.38C77.6292 91.2333 78.2692 91.16 78.9625 91.16C80.0825 91.16 81.0758 91.3533 81.9425 91.74C82.8092 92.1133 83.5292 92.6467 84.1025 93.34C84.6892 94.02 85.1292 94.84 85.4225 95.8C85.7292 96.7467 85.8825 97.7933 85.8825 98.94V112H80.9425V98.94C80.9425 97.6867 80.6558 96.72 80.0825 96.04C79.5092 95.3467 78.6358 95 77.4625 95C76.6092 95 75.8092 95.1933 75.0625 95.58C74.3158 95.9667 73.6092 96.4933 72.9425 97.16V112H68.0025V91.48H71.0225C71.6625 91.48 72.0825 91.78 72.2825 92.38L72.6225 94ZM103.101 95.48C102.967 95.6933 102.827 95.8467 102.681 95.94C102.534 96.02 102.347 96.06 102.121 96.06C101.881 96.06 101.621 95.9933 101.341 95.86C101.074 95.7267 100.761 95.58 100.401 95.42C100.041 95.2467 99.6273 95.0933 99.1606 94.96C98.7073 94.8267 98.1673 94.76 97.5406 94.76C96.5673 94.76 95.8006 94.9667 95.2406 95.38C94.694 95.7933 94.4206 96.3333 94.4206 97C94.4206 97.44 94.5606 97.8133 94.8406 98.12C95.134 98.4133 95.514 98.6733 95.9806 98.9C96.4606 99.1267 97.0006 99.3333 97.6006 99.52C98.2006 99.6933 98.8073 99.8867 99.4206 100.1C100.047 100.313 100.661 100.56 101.261 100.84C101.861 101.107 102.394 101.453 102.861 101.88C103.341 102.293 103.721 102.793 104.001 103.38C104.294 103.967 104.441 104.673 104.441 105.5C104.441 106.487 104.261 107.4 103.901 108.24C103.554 109.067 103.034 109.787 102.341 110.4C101.647 111 100.787 111.473 99.7606 111.82C98.7473 112.153 97.574 112.32 96.2406 112.32C95.534 112.32 94.8406 112.253 94.1606 112.12C93.494 112 92.8473 111.827 92.2206 111.6C91.6073 111.373 91.034 111.107 90.5006 110.8C89.9806 110.493 89.5206 110.16 89.1206 109.8L90.2606 107.92C90.4073 107.693 90.5806 107.52 90.7806 107.4C90.9806 107.28 91.234 107.22 91.5406 107.22C91.8473 107.22 92.134 107.307 92.4006 107.48C92.6806 107.653 93.0006 107.84 93.3606 108.04C93.7206 108.24 94.1406 108.427 94.6206 108.6C95.114 108.773 95.734 108.86 96.4806 108.86C97.0673 108.86 97.5673 108.793 97.9806 108.66C98.4073 108.513 98.754 108.327 99.0206 108.1C99.3006 107.873 99.5006 107.613 99.6206 107.32C99.754 107.013 99.8206 106.7 99.8206 106.38C99.8206 105.9 99.674 105.507 99.3806 105.2C99.1006 104.893 98.7206 104.627 98.2406 104.4C97.774 104.173 97.234 103.973 96.6206 103.8C96.0206 103.613 95.4006 103.413 94.7606 103.2C94.134 102.987 93.514 102.74 92.9006 102.46C92.3006 102.167 91.7606 101.8 91.2806 101.36C90.814 100.92 90.434 100.38 90.1406 99.74C89.8606 99.1 89.7206 98.3267 89.7206 97.42C89.7206 96.58 89.8873 95.78 90.2206 95.02C90.554 94.26 91.0406 93.6 91.6806 93.04C92.334 92.4667 93.1406 92.0133 94.1006 91.68C95.074 91.3333 96.194 91.16 97.4606 91.16C98.874 91.16 100.161 91.3933 101.321 91.86C102.481 92.3267 103.447 92.94 104.221 93.7L103.101 95.48ZM114.999 112.32C113.212 112.32 111.839 111.82 110.879 110.82C109.932 109.807 109.459 108.413 109.459 106.64V95.18H107.359C107.092 95.18 106.865 95.0933 106.679 94.92C106.492 94.7467 106.399 94.4867 106.399 94.14V92.18L109.699 91.64L110.739 86.04C110.805 85.7733 110.932 85.5667 111.119 85.42C111.305 85.2733 111.545 85.2 111.839 85.2H114.399V91.66H119.879V95.18H114.399V106.3C114.399 106.94 114.552 107.44 114.859 107.8C115.179 108.16 115.612 108.34 116.159 108.34C116.465 108.34 116.719 108.307 116.919 108.24C117.132 108.16 117.312 108.08 117.459 108C117.619 107.92 117.759 107.847 117.879 107.78C117.999 107.7 118.119 107.66 118.239 107.66C118.385 107.66 118.505 107.7 118.599 107.78C118.692 107.847 118.792 107.953 118.899 108.1L120.379 110.5C119.659 111.1 118.832 111.553 117.899 111.86C116.965 112.167 115.999 112.32 114.999 112.32ZM133.882 103.24C132.455 103.307 131.255 103.433 130.282 103.62C129.308 103.793 128.528 104.02 127.942 104.3C127.355 104.58 126.935 104.907 126.682 105.28C126.428 105.653 126.302 106.06 126.302 106.5C126.302 107.367 126.555 107.987 127.062 108.36C127.582 108.733 128.255 108.92 129.082 108.92C130.095 108.92 130.968 108.74 131.702 108.38C132.448 108.007 133.175 107.447 133.882 106.7V103.24ZM122.562 94.34C124.922 92.18 127.762 91.1 131.082 91.1C132.282 91.1 133.355 91.3 134.302 91.7C135.248 92.0867 136.048 92.6333 136.702 93.34C137.355 94.0333 137.848 94.8667 138.182 95.84C138.528 96.8133 138.702 97.88 138.702 99.04V112H136.462C135.995 112 135.635 111.933 135.382 111.8C135.128 111.653 134.928 111.367 134.782 110.94L134.342 109.46C133.822 109.927 133.315 110.34 132.822 110.7C132.328 111.047 131.815 111.34 131.282 111.58C130.748 111.82 130.175 112 129.562 112.12C128.962 112.253 128.295 112.32 127.562 112.32C126.695 112.32 125.895 112.207 125.162 111.98C124.428 111.74 123.795 111.387 123.262 110.92C122.728 110.453 122.315 109.873 122.022 109.18C121.728 108.487 121.582 107.68 121.582 106.76C121.582 106.24 121.668 105.727 121.842 105.22C122.015 104.7 122.295 104.207 122.682 103.74C123.082 103.273 123.595 102.833 124.222 102.42C124.848 102.007 125.615 101.647 126.522 101.34C127.442 101.033 128.508 100.787 129.722 100.6C130.935 100.4 132.322 100.28 133.882 100.24V99.04C133.882 97.6667 133.588 96.6533 133.002 96C132.415 95.3333 131.568 95 130.462 95C129.662 95 128.995 95.0933 128.462 95.28C127.942 95.4667 127.482 95.68 127.082 95.92C126.682 96.1467 126.315 96.3533 125.982 96.54C125.662 96.7267 125.302 96.82 124.902 96.82C124.555 96.82 124.262 96.7333 124.022 96.56C123.782 96.3733 123.588 96.16 123.442 95.92L122.562 94.34ZM150.854 101.24C151.467 101.24 152.001 101.16 152.454 101C152.907 100.827 153.281 100.593 153.574 100.3C153.881 100.007 154.107 99.6533 154.254 99.24C154.414 98.8267 154.494 98.3733 154.494 97.88C154.494 96.8667 154.187 96.0667 153.574 95.48C152.974 94.88 152.067 94.58 150.854 94.58C149.641 94.58 148.727 94.88 148.114 95.48C147.514 96.0667 147.214 96.8667 147.214 97.88C147.214 98.36 147.287 98.8067 147.434 99.22C147.594 99.6333 147.821 99.9933 148.114 100.3C148.421 100.593 148.801 100.827 149.254 101C149.721 101.16 150.254 101.24 150.854 101.24ZM156.434 112.92C156.434 112.52 156.314 112.193 156.074 111.94C155.834 111.687 155.507 111.493 155.094 111.36C154.681 111.213 154.194 111.107 153.634 111.04C153.087 110.973 152.501 110.927 151.874 110.9C151.261 110.86 150.621 110.827 149.954 110.8C149.301 110.773 148.661 110.72 148.034 110.64C147.487 110.947 147.041 111.307 146.694 111.72C146.361 112.133 146.194 112.613 146.194 113.16C146.194 113.52 146.281 113.853 146.454 114.16C146.641 114.48 146.927 114.753 147.314 114.98C147.714 115.207 148.227 115.38 148.854 115.5C149.481 115.633 150.247 115.7 151.154 115.7C152.074 115.7 152.867 115.627 153.534 115.48C154.201 115.347 154.747 115.153 155.174 114.9C155.614 114.66 155.934 114.367 156.134 114.02C156.334 113.687 156.434 113.32 156.434 112.92ZM161.354 92.18V94.02C161.354 94.6067 161.001 94.9667 160.294 95.1L158.454 95.44C158.734 96.1467 158.874 96.92 158.874 97.76C158.874 98.7733 158.667 99.6933 158.254 100.52C157.854 101.333 157.294 102.027 156.574 102.6C155.854 103.173 155.001 103.62 154.014 103.94C153.041 104.247 151.987 104.4 150.854 104.4C150.454 104.4 150.067 104.38 149.694 104.34C149.321 104.3 148.954 104.247 148.594 104.18C147.954 104.567 147.634 105 147.634 105.48C147.634 105.893 147.821 106.2 148.194 106.4C148.581 106.587 149.087 106.72 149.714 106.8C150.341 106.88 151.054 106.933 151.854 106.96C152.654 106.973 153.474 107.013 154.314 107.08C155.154 107.147 155.974 107.267 156.774 107.44C157.574 107.6 158.287 107.86 158.914 108.22C159.541 108.58 160.041 109.073 160.414 109.7C160.801 110.313 160.994 111.107 160.994 112.08C160.994 112.987 160.767 113.867 160.314 114.72C159.874 115.573 159.227 116.333 158.374 117C157.534 117.667 156.494 118.2 155.254 118.6C154.027 119.013 152.627 119.22 151.054 119.22C149.507 119.22 148.161 119.067 147.014 118.76C145.867 118.467 144.914 118.067 144.154 117.56C143.394 117.067 142.827 116.493 142.454 115.84C142.081 115.187 141.894 114.507 141.894 113.8C141.894 112.84 142.181 112.04 142.754 111.4C143.341 110.747 144.141 110.227 145.154 109.84C144.607 109.56 144.174 109.187 143.854 108.72C143.534 108.253 143.374 107.64 143.374 106.88C143.374 106.573 143.427 106.26 143.534 105.94C143.654 105.607 143.821 105.28 144.034 104.96C144.261 104.64 144.541 104.34 144.874 104.06C145.207 103.767 145.601 103.507 146.054 103.28C145.014 102.72 144.194 101.973 143.594 101.04C143.007 100.107 142.714 99.0133 142.714 97.76C142.714 96.7467 142.914 95.8333 143.314 95.02C143.727 94.1933 144.294 93.4933 145.014 92.92C145.747 92.3333 146.607 91.8867 147.594 91.58C148.594 91.2733 149.681 91.12 150.854 91.12C151.734 91.12 152.561 91.2133 153.334 91.4C154.107 91.5733 154.814 91.8333 155.454 92.18H161.354ZM169.147 95.04C169.787 93.8133 170.547 92.8533 171.427 92.16C172.307 91.4533 173.347 91.1 174.547 91.1C175.494 91.1 176.254 91.3067 176.827 91.72L176.507 95.42C176.44 95.66 176.34 95.8333 176.207 95.94C176.087 96.0333 175.92 96.08 175.707 96.08C175.507 96.08 175.207 96.0467 174.807 95.98C174.42 95.9133 174.04 95.88 173.667 95.88C173.12 95.88 172.634 95.96 172.207 96.12C171.78 96.28 171.394 96.5133 171.047 96.82C170.714 97.1133 170.414 97.4733 170.147 97.9C169.894 98.3267 169.654 98.8133 169.427 99.36V112H164.487V91.48H167.387C167.894 91.48 168.247 91.5733 168.447 91.76C168.647 91.9333 168.78 92.2533 168.847 92.72L169.147 95.04ZM189.975 103.24C188.549 103.307 187.349 103.433 186.375 103.62C185.402 103.793 184.622 104.02 184.035 104.3C183.449 104.58 183.029 104.907 182.775 105.28C182.522 105.653 182.395 106.06 182.395 106.5C182.395 107.367 182.649 107.987 183.155 108.36C183.675 108.733 184.349 108.92 185.175 108.92C186.189 108.92 187.062 108.74 187.795 108.38C188.542 108.007 189.269 107.447 189.975 106.7V103.24ZM178.655 94.34C181.015 92.18 183.855 91.1 187.175 91.1C188.375 91.1 189.449 91.3 190.395 91.7C191.342 92.0867 192.142 92.6333 192.795 93.34C193.449 94.0333 193.942 94.8667 194.275 95.84C194.622 96.8133 194.795 97.88 194.795 99.04V112H192.555C192.089 112 191.729 111.933 191.475 111.8C191.222 111.653 191.022 111.367 190.875 110.94L190.435 109.46C189.915 109.927 189.409 110.34 188.915 110.7C188.422 111.047 187.909 111.34 187.375 111.58C186.842 111.82 186.269 112 185.655 112.12C185.055 112.253 184.389 112.32 183.655 112.32C182.789 112.32 181.989 112.207 181.255 111.98C180.522 111.74 179.889 111.387 179.355 110.92C178.822 110.453 178.409 109.873 178.115 109.18C177.822 108.487 177.675 107.68 177.675 106.76C177.675 106.24 177.762 105.727 177.935 105.22C178.109 104.7 178.389 104.207 178.775 103.74C179.175 103.273 179.689 102.833 180.315 102.42C180.942 102.007 181.709 101.647 182.615 101.34C183.535 101.033 184.602 100.787 185.815 100.6C187.029 100.4 188.415 100.28 189.975 100.24V99.04C189.975 97.6667 189.682 96.6533 189.095 96C188.509 95.3333 187.662 95 186.555 95C185.755 95 185.089 95.0933 184.555 95.28C184.035 95.4667 183.575 95.68 183.175 95.92C182.775 96.1467 182.409 96.3533 182.075 96.54C181.755 96.7267 181.395 96.82 180.995 96.82C180.649 96.82 180.355 96.7333 180.115 96.56C179.875 96.3733 179.682 96.16 179.535 95.92L178.655 94.34ZM199.448 112V91.48H202.468C203.108 91.48 203.528 91.78 203.728 92.38L204.048 93.9C204.408 93.5 204.781 93.1333 205.168 92.8C205.568 92.4667 205.988 92.18 206.428 91.94C206.881 91.7 207.361 91.5133 207.868 91.38C208.388 91.2333 208.954 91.16 209.568 91.16C210.861 91.16 211.921 91.5133 212.748 92.22C213.588 92.9133 214.214 93.84 214.628 95C214.948 94.32 215.348 93.74 215.828 93.26C216.308 92.7667 216.834 92.3667 217.408 92.06C217.981 91.7533 218.588 91.5267 219.228 91.38C219.881 91.2333 220.534 91.16 221.188 91.16C222.321 91.16 223.328 91.3333 224.208 91.68C225.088 92.0267 225.828 92.5333 226.428 93.2C227.028 93.8667 227.481 94.68 227.788 95.64C228.108 96.6 228.268 97.7 228.268 98.94V112H223.328V98.94C223.328 97.6333 223.041 96.6533 222.468 96C221.894 95.3333 221.054 95 219.948 95C219.441 95 218.968 95.0867 218.528 95.26C218.101 95.4333 217.721 95.6867 217.388 96.02C217.068 96.34 216.814 96.7467 216.628 97.24C216.441 97.7333 216.348 98.3 216.348 98.94V112H211.388V98.94C211.388 97.5667 211.108 96.5667 210.548 95.94C210.001 95.3133 209.194 95 208.128 95C207.408 95 206.734 95.18 206.108 95.54C205.494 95.8867 204.921 96.3667 204.388 96.98V112H199.448Z" fill="#676777"/>
<rect x="0.757568" y="0.5" width="616.743" height="145" stroke="white"/>
<path d="M0 145H617.7" stroke="#7BFFA0" stroke-width="8"/>
<g clip-path="url(#clip0)">
<path d="M573.998 54.351C573.975 53.3311 573.822 52.3332 573.594 51.3298C573.296 49.3434 572.437 47.4947 571.126 46.0201C569.815 44.5454 568.112 43.5117 566.235 43.0513C561.939 42.0057 558.076 42.7945 555.252 46.72C555.051 46.9348 554.833 47.1329 554.601 47.3125V43.3925H545.378V72.9883H554.633V57.2127C554.622 56.3382 554.691 55.4647 554.841 54.6042C555.369 52.1461 557.487 50.3851 559.908 50.3979C562.218 50.3374 564.175 52.1626 564.37 54.562C564.543 55.5639 564.628 56.58 564.624 57.5979L564.634 72.9516H574L573.982 54.351H573.998ZM530.648 72.9608H539.927V43.4053H530.648V72.9608ZM535.314 29C533.947 28.9137 532.604 29.4127 531.584 30.3831C530.563 31.3535 530.018 32.7091 530 34.1362C529.996 35.567 530.567 36.9281 531.573 37.8967C532.071 38.3754 532.66 38.741 533.3 38.9702C533.941 39.1995 534.621 39.2874 535.296 39.2284C535.971 39.29 536.65 39.2043 537.291 38.9769C537.932 38.7495 538.521 38.3854 539.019 37.9077C539.517 37.429 539.914 36.8473 540.184 36.1999C540.454 35.5524 540.592 34.8533 540.589 34.1472C540.589 33.4407 540.451 32.7417 540.181 32.0934C539.912 31.4452 539.517 30.8616 539.023 30.3789C538.528 29.8962 537.943 29.5248 537.305 29.2875C536.666 29.0503 535.988 28.9524 535.312 29H535.314Z" fill="#676777"/>
</g>
<defs>
<clipPath id="clip0">
<rect width="44" height="44" fill="white" transform="translate(530 29)"/>
</clipPath>
</defs>
</svg>
