<svg width="618" height="149" viewBox="0 0 618 149" fill="none" xmlns="http://www.w3.org/2000/svg">
<path d="M74.16 107.56V112H57.22V83.08H62.6V107.56H74.16ZM82.3413 91.48V112H77.3813V91.48H82.3413ZM83.0213 85.5C83.0213 85.9267 82.9346 86.3267 82.7613 86.7C82.5879 87.0733 82.3546 87.4 82.0613 87.68C81.7813 87.96 81.4479 88.1867 81.0613 88.36C80.6746 88.52 80.2613 88.6 79.8213 88.6C79.3946 88.6 78.9879 88.52 78.6013 88.36C78.2279 88.1867 77.9013 87.96 77.6213 87.68C77.3413 87.4 77.1146 87.0733 76.9413 86.7C76.7813 86.3267 76.7013 85.9267 76.7013 85.5C76.7013 85.06 76.7813 84.6467 76.9413 84.26C77.1146 83.8733 77.3413 83.54 77.6213 83.26C77.9013 82.98 78.2279 82.76 78.6013 82.6C78.9879 82.4267 79.3946 82.34 79.8213 82.34C80.2613 82.34 80.6746 82.4267 81.0613 82.6C81.4479 82.76 81.7813 82.98 82.0613 83.26C82.3546 83.54 82.5879 83.8733 82.7613 84.26C82.9346 84.6467 83.0213 85.06 83.0213 85.5ZM91.9975 94C92.4108 93.5867 92.8442 93.2067 93.2975 92.86C93.7642 92.5 94.2508 92.2 94.7575 91.96C95.2775 91.7067 95.8308 91.5133 96.4175 91.38C97.0042 91.2333 97.6442 91.16 98.3375 91.16C99.4575 91.16 100.451 91.3533 101.318 91.74C102.184 92.1133 102.904 92.6467 103.478 93.34C104.064 94.02 104.504 94.84 104.798 95.8C105.104 96.7467 105.258 97.7933 105.258 98.94V112H100.318V98.94C100.318 97.6867 100.031 96.72 99.4575 96.04C98.8842 95.3467 98.0108 95 96.8375 95C95.9842 95 95.1842 95.1933 94.4375 95.58C93.6908 95.9667 92.9842 96.4933 92.3175 97.16V112H87.3775V91.48H90.3975C91.0375 91.48 91.4575 91.78 91.6575 92.38L91.9975 94ZM114.896 82.28V99.3H115.816C116.149 99.3 116.409 99.26 116.596 99.18C116.796 99.0867 116.996 98.9067 117.196 98.64L122.296 92.34C122.509 92.06 122.742 91.8467 122.996 91.7C123.262 91.5533 123.602 91.48 124.016 91.48H128.536L122.156 99.1C121.702 99.7 121.209 100.16 120.676 100.48C120.956 100.68 121.202 100.913 121.416 101.18C121.642 101.447 121.856 101.733 122.056 102.04L128.896 112H124.436C124.049 112 123.716 111.94 123.436 111.82C123.156 111.687 122.922 111.453 122.736 111.12L117.496 103.34C117.309 103.033 117.116 102.833 116.916 102.74C116.716 102.647 116.416 102.6 116.016 102.6H114.896V112H109.956V82.28H114.896ZM143.488 99.38C143.488 98.74 143.395 98.14 143.208 97.58C143.035 97.0067 142.768 96.5067 142.408 96.08C142.048 95.6533 141.588 95.32 141.028 95.08C140.481 94.8267 139.841 94.7 139.108 94.7C137.681 94.7 136.555 95.1067 135.728 95.92C134.915 96.7333 134.395 97.8867 134.168 99.38H143.488ZM134.068 102.36C134.148 103.413 134.335 104.327 134.628 105.1C134.921 105.86 135.308 106.493 135.788 107C136.268 107.493 136.835 107.867 137.488 108.12C138.155 108.36 138.888 108.48 139.688 108.48C140.488 108.48 141.175 108.387 141.748 108.2C142.335 108.013 142.841 107.807 143.268 107.58C143.708 107.353 144.088 107.147 144.408 106.96C144.741 106.773 145.061 106.68 145.368 106.68C145.781 106.68 146.088 106.833 146.288 107.14L147.708 108.94C147.161 109.58 146.548 110.12 145.868 110.56C145.188 110.987 144.475 111.333 143.728 111.6C142.995 111.853 142.241 112.033 141.468 112.14C140.708 112.247 139.968 112.3 139.248 112.3C137.821 112.3 136.495 112.067 135.268 111.6C134.041 111.12 132.975 110.42 132.068 109.5C131.161 108.567 130.448 107.42 129.928 106.06C129.408 104.687 129.148 103.1 129.148 101.3C129.148 99.9 129.375 98.5867 129.828 97.36C130.281 96.12 130.928 95.0467 131.768 94.14C132.621 93.22 133.655 92.4933 134.868 91.96C136.095 91.4267 137.475 91.16 139.008 91.16C140.301 91.16 141.495 91.3667 142.588 91.78C143.681 92.1933 144.621 92.8 145.408 93.6C146.195 94.3867 146.808 95.36 147.248 96.52C147.701 97.6667 147.928 98.98 147.928 100.46C147.928 101.207 147.848 101.713 147.688 101.98C147.528 102.233 147.221 102.36 146.768 102.36H134.068ZM164.515 96.72C163.955 96.04 163.342 95.56 162.675 95.28C162.022 95 161.315 94.86 160.555 94.86C159.809 94.86 159.135 95 158.535 95.28C157.935 95.56 157.422 95.9867 156.995 96.56C156.569 97.12 156.242 97.84 156.015 98.72C155.789 99.5867 155.675 100.613 155.675 101.8C155.675 103 155.769 104.02 155.955 104.86C156.155 105.687 156.435 106.367 156.795 106.9C157.155 107.42 157.595 107.8 158.115 108.04C158.635 108.267 159.215 108.38 159.855 108.38C160.882 108.38 161.755 108.167 162.475 107.74C163.195 107.313 163.875 106.707 164.515 105.92V96.72ZM169.455 82.28V112H166.435C165.782 112 165.369 111.7 165.195 111.1L164.775 109.12C163.949 110.067 162.995 110.833 161.915 111.42C160.849 112.007 159.602 112.3 158.175 112.3C157.055 112.3 156.029 112.067 155.095 111.6C154.162 111.133 153.355 110.46 152.675 109.58C152.009 108.687 151.489 107.587 151.115 106.28C150.755 104.973 150.575 103.48 150.575 101.8C150.575 100.28 150.782 98.8667 151.195 97.56C151.609 96.2533 152.202 95.12 152.975 94.16C153.749 93.2 154.675 92.4533 155.755 91.92C156.835 91.3733 158.049 91.1 159.395 91.1C160.542 91.1 161.522 91.28 162.335 91.64C163.149 92 163.875 92.4867 164.515 93.1V82.28H169.455ZM179.451 91.48V112H174.491V91.48H179.451ZM180.131 85.5C180.131 85.9267 180.044 86.3267 179.871 86.7C179.697 87.0733 179.464 87.4 179.171 87.68C178.891 87.96 178.557 88.1867 178.171 88.36C177.784 88.52 177.371 88.6 176.931 88.6C176.504 88.6 176.097 88.52 175.711 88.36C175.337 88.1867 175.011 87.96 174.731 87.68C174.451 87.4 174.224 87.0733 174.051 86.7C173.891 86.3267 173.811 85.9267 173.811 85.5C173.811 85.06 173.891 84.6467 174.051 84.26C174.224 83.8733 174.451 83.54 174.731 83.26C175.011 82.98 175.337 82.76 175.711 82.6C176.097 82.4267 176.504 82.34 176.931 82.34C177.371 82.34 177.784 82.4267 178.171 82.6C178.557 82.76 178.891 82.98 179.171 83.26C179.464 83.54 179.697 83.8733 179.871 84.26C180.044 84.6467 180.131 85.06 180.131 85.5ZM189.107 94C189.52 93.5867 189.954 93.2067 190.407 92.86C190.874 92.5 191.36 92.2 191.867 91.96C192.387 91.7067 192.94 91.5133 193.527 91.38C194.114 91.2333 194.754 91.16 195.447 91.16C196.567 91.16 197.56 91.3533 198.427 91.74C199.294 92.1133 200.014 92.6467 200.587 93.34C201.174 94.02 201.614 94.84 201.907 95.8C202.214 96.7467 202.367 97.7933 202.367 98.94V112H197.427V98.94C197.427 97.6867 197.14 96.72 196.567 96.04C195.994 95.3467 195.12 95 193.947 95C193.094 95 192.294 95.1933 191.547 95.58C190.8 95.9667 190.094 96.4933 189.427 97.16V112H184.487V91.48H187.507C188.147 91.48 188.567 91.78 188.767 92.38L189.107 94Z" fill="#676777"/>
<rect x="0.757568" y="0.5" width="616.743" height="145" stroke="white"/>
<path d="M0 145H617.7" stroke="#7BFFA0" stroke-width="8"/>
<g clip-path="url(#clip0)">
<path d="M573.998 54.351C573.975 53.3311 573.822 52.3332 573.594 51.3298C573.296 49.3434 572.437 47.4947 571.126 46.0201C569.815 44.5454 568.112 43.5117 566.235 43.0513C561.939 42.0057 558.076 42.7945 555.252 46.72C555.051 46.9348 554.833 47.1329 554.601 47.3125V43.3925H545.378V72.9883H554.633V57.2127C554.622 56.3382 554.691 55.4647 554.841 54.6042C555.369 52.1461 557.487 50.3851 559.908 50.3979C562.218 50.3374 564.175 52.1626 564.37 54.562C564.543 55.5639 564.628 56.58 564.624 57.5979L564.634 72.9516H574L573.982 54.351H573.998ZM530.648 72.9608H539.927V43.4053H530.648V72.9608ZM535.314 29C533.947 28.9137 532.604 29.4127 531.584 30.3831C530.563 31.3535 530.018 32.7091 530 34.1362C529.996 35.567 530.567 36.9281 531.573 37.8967C532.071 38.3754 532.66 38.741 533.3 38.9702C533.941 39.1995 534.621 39.2874 535.296 39.2284C535.971 39.29 536.65 39.2043 537.291 38.9769C537.932 38.7495 538.521 38.3854 539.019 37.9077C539.517 37.429 539.914 36.8473 540.184 36.1999C540.454 35.5524 540.592 34.8533 540.589 34.1472C540.589 33.4407 540.451 32.7417 540.181 32.0934C539.912 31.4452 539.517 30.8616 539.023 30.3789C538.528 29.8962 537.943 29.5248 537.305 29.2875C536.666 29.0503 535.988 28.9524 535.312 29H535.314Z" fill="#676777"/>
</g>
<defs>
<clipPath id="clip0">
<rect width="44" height="44" fill="white" transform="translate(530 29)"/>
</clipPath>
</defs>
</svg>
