<svg width="619" height="149" viewBox="0 0 619 149" fill="none" xmlns="http://www.w3.org/2000/svg">
<path d="M56.62 96.62C57.6067 96.62 58.4667 96.5 59.2 96.26C59.9333 96.0067 60.54 95.6533 61.02 95.2C61.5133 94.7333 61.88 94.1733 62.12 93.52C62.36 92.8533 62.48 92.1133 62.48 91.3C62.48 90.5267 62.36 89.8267 62.12 89.2C61.88 88.5733 61.52 88.04 61.04 87.6C60.56 87.16 59.9533 86.8267 59.22 86.6C58.4867 86.36 57.62 86.24 56.62 86.24H52.6V96.62H56.62ZM56.62 82.08C58.5533 82.08 60.2267 82.3067 61.64 82.76C63.0533 83.2133 64.22 83.8467 65.14 84.66C66.06 85.4733 66.74 86.4467 67.18 87.58C67.6333 88.7133 67.86 89.9533 67.86 91.3C67.86 92.7 67.6267 93.9867 67.16 95.16C66.6933 96.32 65.9933 97.32 65.06 98.16C64.1267 99 62.9533 99.6533 61.54 100.12C60.14 100.587 58.5 100.82 56.62 100.82H52.6V111H47.22V82.08H56.62ZM76.2475 90.48V111H71.2875V90.48H76.2475ZM76.9275 84.5C76.9275 84.9267 76.8408 85.3267 76.6675 85.7C76.4942 86.0733 76.2608 86.4 75.9675 86.68C75.6875 86.96 75.3542 87.1867 74.9675 87.36C74.5808 87.52 74.1675 87.6 73.7275 87.6C73.3008 87.6 72.8942 87.52 72.5075 87.36C72.1342 87.1867 71.8075 86.96 71.5275 86.68C71.2475 86.4 71.0208 86.0733 70.8475 85.7C70.6875 85.3267 70.6075 84.9267 70.6075 84.5C70.6075 84.06 70.6875 83.6467 70.8475 83.26C71.0208 82.8733 71.2475 82.54 71.5275 82.26C71.8075 81.98 72.1342 81.76 72.5075 81.6C72.8942 81.4267 73.3008 81.34 73.7275 81.34C74.1675 81.34 74.5808 81.4267 74.9675 81.6C75.3542 81.76 75.6875 81.98 75.9675 82.26C76.2608 82.54 76.4942 82.8733 76.6675 83.26C76.8408 83.6467 76.9275 84.06 76.9275 84.5ZM85.9038 93C86.3171 92.5867 86.7504 92.2067 87.2038 91.86C87.6704 91.5 88.1571 91.2 88.6638 90.96C89.1838 90.7067 89.7371 90.5133 90.3238 90.38C90.9104 90.2333 91.5504 90.16 92.2438 90.16C93.3638 90.16 94.3571 90.3533 95.2238 90.74C96.0904 91.1133 96.8104 91.6467 97.3838 92.34C97.9704 93.02 98.4104 93.84 98.7038 94.8C99.0104 95.7467 99.1638 96.7933 99.1638 97.94V111H94.2238V97.94C94.2238 96.6867 93.9371 95.72 93.3638 95.04C92.7904 94.3467 91.9171 94 90.7438 94C89.8904 94 89.0904 94.1933 88.3438 94.58C87.5971 94.9667 86.8904 95.4933 86.2238 96.16V111H81.2838V90.48H84.3038C84.9438 90.48 85.3638 90.78 85.5638 91.38L85.9038 93ZM110.428 111.32C108.642 111.32 107.268 110.82 106.308 109.82C105.362 108.807 104.888 107.413 104.888 105.64V94.18H102.788C102.522 94.18 102.295 94.0933 102.108 93.92C101.922 93.7467 101.828 93.4867 101.828 93.14V91.18L105.128 90.64L106.168 85.04C106.235 84.7733 106.362 84.5667 106.548 84.42C106.735 84.2733 106.975 84.2 107.268 84.2H109.828V90.66H115.308V94.18H109.828V105.3C109.828 105.94 109.982 106.44 110.288 106.8C110.608 107.16 111.042 107.34 111.588 107.34C111.895 107.34 112.148 107.307 112.348 107.24C112.562 107.16 112.742 107.08 112.888 107C113.048 106.92 113.188 106.847 113.308 106.78C113.428 106.7 113.548 106.66 113.668 106.66C113.815 106.66 113.935 106.7 114.028 106.78C114.122 106.847 114.222 106.953 114.328 107.1L115.808 109.5C115.088 110.1 114.262 110.553 113.328 110.86C112.395 111.167 111.428 111.32 110.428 111.32ZM131.535 98.38C131.535 97.74 131.442 97.14 131.255 96.58C131.082 96.0067 130.815 95.5067 130.455 95.08C130.095 94.6533 129.635 94.32 129.075 94.08C128.528 93.8267 127.888 93.7 127.155 93.7C125.728 93.7 124.602 94.1067 123.775 94.92C122.962 95.7333 122.442 96.8867 122.215 98.38H131.535ZM122.115 101.36C122.195 102.413 122.382 103.327 122.675 104.1C122.968 104.86 123.355 105.493 123.835 106C124.315 106.493 124.882 106.867 125.535 107.12C126.202 107.36 126.935 107.48 127.735 107.48C128.535 107.48 129.222 107.387 129.795 107.2C130.382 107.013 130.888 106.807 131.315 106.58C131.755 106.353 132.135 106.147 132.455 105.96C132.788 105.773 133.108 105.68 133.415 105.68C133.828 105.68 134.135 105.833 134.335 106.14L135.755 107.94C135.208 108.58 134.595 109.12 133.915 109.56C133.235 109.987 132.522 110.333 131.775 110.6C131.042 110.853 130.288 111.033 129.515 111.14C128.755 111.247 128.015 111.3 127.295 111.3C125.868 111.3 124.542 111.067 123.315 110.6C122.088 110.12 121.022 109.42 120.115 108.5C119.208 107.567 118.495 106.42 117.975 105.06C117.455 103.687 117.195 102.1 117.195 100.3C117.195 98.9 117.422 97.5867 117.875 96.36C118.328 95.12 118.975 94.0467 119.815 93.14C120.668 92.22 121.702 91.4933 122.915 90.96C124.142 90.4267 125.522 90.16 127.055 90.16C128.348 90.16 129.542 90.3667 130.635 90.78C131.728 91.1933 132.668 91.8 133.455 92.6C134.242 93.3867 134.855 94.36 135.295 95.52C135.748 96.6667 135.975 97.98 135.975 99.46C135.975 100.207 135.895 100.713 135.735 100.98C135.575 101.233 135.268 101.36 134.815 101.36H122.115ZM144.342 94.04C144.982 92.8133 145.742 91.8533 146.622 91.16C147.502 90.4533 148.542 90.1 149.742 90.1C150.689 90.1 151.449 90.3067 152.022 90.72L151.702 94.42C151.636 94.66 151.536 94.8333 151.402 94.94C151.282 95.0333 151.116 95.08 150.902 95.08C150.702 95.08 150.402 95.0467 150.002 94.98C149.616 94.9133 149.236 94.88 148.862 94.88C148.316 94.88 147.829 94.96 147.402 95.12C146.976 95.28 146.589 95.5133 146.242 95.82C145.909 96.1133 145.609 96.4733 145.342 96.9C145.089 97.3267 144.849 97.8133 144.622 98.36V111H139.682V90.48H142.582C143.089 90.48 143.442 90.5733 143.642 90.76C143.842 90.9333 143.976 91.2533 144.042 91.72L144.342 94.04ZM167.238 98.38C167.238 97.74 167.145 97.14 166.958 96.58C166.785 96.0067 166.518 95.5067 166.158 95.08C165.798 94.6533 165.338 94.32 164.778 94.08C164.231 93.8267 163.591 93.7 162.858 93.7C161.431 93.7 160.305 94.1067 159.478 94.92C158.665 95.7333 158.145 96.8867 157.918 98.38H167.238ZM157.818 101.36C157.898 102.413 158.085 103.327 158.378 104.1C158.671 104.86 159.058 105.493 159.538 106C160.018 106.493 160.585 106.867 161.238 107.12C161.905 107.36 162.638 107.48 163.438 107.48C164.238 107.48 164.925 107.387 165.498 107.2C166.085 107.013 166.591 106.807 167.018 106.58C167.458 106.353 167.838 106.147 168.158 105.96C168.491 105.773 168.811 105.68 169.118 105.68C169.531 105.68 169.838 105.833 170.038 106.14L171.458 107.94C170.911 108.58 170.298 109.12 169.618 109.56C168.938 109.987 168.225 110.333 167.478 110.6C166.745 110.853 165.991 111.033 165.218 111.14C164.458 111.247 163.718 111.3 162.998 111.3C161.571 111.3 160.245 111.067 159.018 110.6C157.791 110.12 156.725 109.42 155.818 108.5C154.911 107.567 154.198 106.42 153.678 105.06C153.158 103.687 152.898 102.1 152.898 100.3C152.898 98.9 153.125 97.5867 153.578 96.36C154.031 95.12 154.678 94.0467 155.518 93.14C156.371 92.22 157.405 91.4933 158.618 90.96C159.845 90.4267 161.225 90.16 162.758 90.16C164.051 90.16 165.245 90.3667 166.338 90.78C167.431 91.1933 168.371 91.8 169.158 92.6C169.945 93.3867 170.558 94.36 170.998 95.52C171.451 96.6667 171.678 97.98 171.678 99.46C171.678 100.207 171.598 100.713 171.438 100.98C171.278 101.233 170.971 101.36 170.518 101.36H157.818ZM187.905 94.48C187.772 94.6933 187.632 94.8467 187.485 94.94C187.339 95.02 187.152 95.06 186.925 95.06C186.685 95.06 186.425 94.9933 186.145 94.86C185.879 94.7267 185.565 94.58 185.205 94.42C184.845 94.2467 184.432 94.0933 183.965 93.96C183.512 93.8267 182.972 93.76 182.345 93.76C181.372 93.76 180.605 93.9667 180.045 94.38C179.499 94.7933 179.225 95.3333 179.225 96C179.225 96.44 179.365 96.8133 179.645 97.12C179.939 97.4133 180.319 97.6733 180.785 97.9C181.265 98.1267 181.805 98.3333 182.405 98.52C183.005 98.6933 183.612 98.8867 184.225 99.1C184.852 99.3133 185.465 99.56 186.065 99.84C186.665 100.107 187.199 100.453 187.665 100.88C188.145 101.293 188.525 101.793 188.805 102.38C189.099 102.967 189.245 103.673 189.245 104.5C189.245 105.487 189.065 106.4 188.705 107.24C188.359 108.067 187.839 108.787 187.145 109.4C186.452 110 185.592 110.473 184.565 110.82C183.552 111.153 182.379 111.32 181.045 111.32C180.339 111.32 179.645 111.253 178.965 111.12C178.299 111 177.652 110.827 177.025 110.6C176.412 110.373 175.839 110.107 175.305 109.8C174.785 109.493 174.325 109.16 173.925 108.8L175.065 106.92C175.212 106.693 175.385 106.52 175.585 106.4C175.785 106.28 176.039 106.22 176.345 106.22C176.652 106.22 176.939 106.307 177.205 106.48C177.485 106.653 177.805 106.84 178.165 107.04C178.525 107.24 178.945 107.427 179.425 107.6C179.919 107.773 180.539 107.86 181.285 107.86C181.872 107.86 182.372 107.793 182.785 107.66C183.212 107.513 183.559 107.327 183.825 107.1C184.105 106.873 184.305 106.613 184.425 106.32C184.559 106.013 184.625 105.7 184.625 105.38C184.625 104.9 184.479 104.507 184.185 104.2C183.905 103.893 183.525 103.627 183.045 103.4C182.579 103.173 182.039 102.973 181.425 102.8C180.825 102.613 180.205 102.413 179.565 102.2C178.939 101.987 178.319 101.74 177.705 101.46C177.105 101.167 176.565 100.8 176.085 100.36C175.619 99.92 175.239 99.38 174.945 98.74C174.665 98.1 174.525 97.3267 174.525 96.42C174.525 95.58 174.692 94.78 175.025 94.02C175.359 93.26 175.845 92.6 176.485 92.04C177.139 91.4667 177.945 91.0133 178.905 90.68C179.879 90.3333 180.999 90.16 182.265 90.16C183.679 90.16 184.965 90.3933 186.125 90.86C187.285 91.3267 188.252 91.94 189.025 92.7L187.905 94.48ZM199.803 111.32C198.017 111.32 196.643 110.82 195.683 109.82C194.737 108.807 194.263 107.413 194.263 105.64V94.18H192.163C191.897 94.18 191.67 94.0933 191.483 93.92C191.297 93.7467 191.203 93.4867 191.203 93.14V91.18L194.503 90.64L195.543 85.04C195.61 84.7733 195.737 84.5667 195.923 84.42C196.11 84.2733 196.35 84.2 196.643 84.2H199.203V90.66H204.683V94.18H199.203V105.3C199.203 105.94 199.357 106.44 199.663 106.8C199.983 107.16 200.417 107.34 200.963 107.34C201.27 107.34 201.523 107.307 201.723 107.24C201.937 107.16 202.117 107.08 202.263 107C202.423 106.92 202.563 106.847 202.683 106.78C202.803 106.7 202.923 106.66 203.043 106.66C203.19 106.66 203.31 106.7 203.403 106.78C203.497 106.847 203.597 106.953 203.703 107.1L205.183 109.5C204.463 110.1 203.637 110.553 202.703 110.86C201.77 111.167 200.803 111.32 199.803 111.32Z" fill="#676777"/>
<rect x="1.12891" y="0.5" width="616.743" height="145" stroke="white"/>
<path d="M1 145H618.7" stroke="#7BFFA0" stroke-width="8"/>
<g clip-path="url(#clip0)">
<path d="M529 52.291V49.7133L529.079 49.2581L529.497 46.4209C530.547 41.2723 533.453 36.6889 537.668 33.5482C540.171 31.5798 543.082 30.1963 546.189 29.4991C549.297 28.8019 552.52 28.8087 555.624 29.519C560.75 30.5527 565.309 33.4426 568.435 37.6302C571.9 42.0377 573.495 47.6306 572.879 53.2015C572.465 57.7724 570.582 62.0864 567.511 65.498C564.23 69.2862 559.734 71.8162 554.793 72.6547L552.291 72.9978H549.713C549.604 72.9666 549.493 72.943 549.381 72.9274C545.982 72.7141 542.688 71.6738 539.782 69.8989C537.043 68.2953 534.688 66.1108 532.885 63.4991C531.081 60.8874 529.872 57.9121 529.343 54.7828L529 52.291ZM539.503 65.399C544.897 69.7581 552.298 70.6819 558.599 67.7831C557.83 63.2475 556.591 58.8043 554.901 54.5255C550.439 55.4272 542.383 61.1125 539.501 65.399H539.503ZM536.916 62.9226C541.254 57.521 547.04 53.4566 553.596 51.2133L551.931 47.6592C551.761 47.2787 551.601 47.2193 551.198 47.3469C546.143 48.9893 540.888 49.935 535.578 50.1576L532.538 50.2764C532.37 54.8901 533.93 59.4004 536.913 62.9248L536.916 62.9226ZM550.014 44.0083C548.099 40.5546 545.946 37.2381 543.571 34.0826C540.968 35.2466 538.665 36.989 536.837 39.177C535.01 41.365 533.705 43.9411 533.024 46.709C538.788 46.6431 544.512 45.7325 550.014 44.0083ZM565.315 39.3896C562.28 42.1112 558.814 44.3104 555.059 45.8975L557.098 50.3182C559.129 49.9289 561.19 49.7463 563.258 49.7683C565.326 49.8035 567.39 50.0257 569.418 50.4281C569.323 46.3937 567.879 42.5074 565.315 39.3896ZM547.275 32.895L553.501 42.7041C556.931 41.2976 560.095 39.3153 562.856 36.8428C558.533 33.2359 552.806 31.7887 547.289 32.906L547.275 32.895ZM561.879 65.9137C565.782 63.0503 568.418 58.7806 569.227 54.0087C565.68 53.18 562.005 53.0582 558.412 53.6502C559.918 57.6309 561.078 61.7339 561.879 65.9137Z" fill="#676777"/>
</g>
<defs>
<clipPath id="clip0">
<rect width="44" height="44" fill="white" transform="translate(529 29)"/>
</clipPath>
</defs>
</svg>
