<svg width="78" height="14" viewBox="0 0 78 14" fill="none" xmlns="http://www.w3.org/2000/svg">
<g clip-path="url(#clip0)">
<path d="M76.077 0H0V14H77.927V0H76.077ZM74.571 10.474C73.9141 10.0615 73.157 9.8364 72.3814 9.82318C71.6059 9.80996 70.8415 10.0091 70.171 10.399L68.78 11.205C68.3571 11.4516 67.8745 11.5771 67.3851 11.5677C66.8956 11.5584 66.4182 11.4146 66.005 11.152L64.539 10.226C63.8815 9.80889 63.1221 9.58026 62.3435 9.56509C61.565 9.54993 60.7973 9.74881 60.124 10.14L58.764 10.927C58.3368 11.1764 57.8487 11.302 57.3542 11.2898C56.8597 11.2776 56.3784 11.1281 55.964 10.858L53.621 9.341V8.32602L55.103 9.285C55.7624 9.71394 56.528 9.95134 57.3144 9.97076C58.1008 9.99019 58.8772 9.79089 59.557 9.39502L60.917 8.608C61.3398 8.36233 61.822 8.23736 62.3109 8.2467C62.7999 8.25605 63.2769 8.39936 63.69 8.66101L65.157 9.58801C65.8146 10.005 66.5741 10.2334 67.3526 10.2484C68.1311 10.2634 68.8988 10.0644 69.572 9.673L70.965 8.867C71.3862 8.62249 71.8661 8.49764 72.353 8.50592C72.84 8.5142 73.3154 8.65531 73.728 8.914L76.074 10.381V11.417L74.571 10.474ZM74.266 12.152H70.311L70.968 11.772C71.389 11.5272 71.8691 11.4021 72.356 11.4104C72.843 11.4187 73.3185 11.56 73.731 11.819L74.266 12.152ZM64.622 12.152H59.822L60.922 11.513C61.3446 11.2666 61.8268 11.1412 62.3159 11.1505C62.805 11.1599 63.2821 11.3036 63.695 11.566L64.622 12.152ZM74.571 7.56799C73.9139 7.15592 73.1568 6.93122 72.3813 6.91818C71.6058 6.90514 70.8415 7.10427 70.171 7.49402L68.78 8.30002C68.3569 8.54587 67.8744 8.67091 67.3851 8.66156C66.8958 8.65222 66.4185 8.50884 66.005 8.24701L64.539 7.32001C63.8814 6.9032 63.122 6.67477 62.3435 6.65961C61.5651 6.64444 60.7974 6.84313 60.124 7.23401L58.764 8.02301C58.3367 8.27224 57.8486 8.39771 57.3541 8.38535C56.8596 8.37298 56.3783 8.22328 55.964 7.953L53.621 6.43802V5.41901L55.103 6.37802C55.7625 6.80679 56.528 7.04415 57.3143 7.06375C58.1006 7.08335 58.877 6.8844 59.557 6.48901L60.917 5.70001C61.3399 5.45421 61.8222 5.32932 62.3112 5.33902C62.8002 5.34872 63.2772 5.49262 63.69 5.755L65.157 6.67999C65.8146 7.0968 66.574 7.32523 67.3525 7.34039C68.1309 7.35556 68.8986 7.1569 69.572 6.76602L70.965 5.96002C71.386 5.71521 71.8658 5.59 72.3528 5.59793C72.8397 5.60586 73.3152 5.74661 73.728 6.005L76.074 7.47101V8.509L74.571 7.56799ZM74.571 4.668C73.9141 4.25545 73.157 4.0304 72.3814 4.01718C71.6059 4.00396 70.8415 4.2031 70.171 4.59302L68.78 5.39902C68.357 5.64519 67.8744 5.77042 67.3851 5.76108C66.8957 5.75173 66.4183 5.60815 66.005 5.34601L64.539 4.41901C63.8814 4.00203 63.1219 3.77359 62.3434 3.75861C61.5649 3.74362 60.7972 3.94266 60.124 4.33401L58.764 5.121C58.3367 5.36994 57.8486 5.49531 57.3542 5.48312C56.8598 5.47094 56.3785 5.32169 55.964 5.052L53.621 3.535V2.51801L55.103 3.47601C55.7622 3.90554 56.5278 4.14339 57.3143 4.16299C58.1008 4.1826 58.8773 3.98317 59.557 3.58701L60.917 2.80002C61.3397 2.55391 61.8219 2.42867 62.3109 2.43802C62.7999 2.44737 63.277 2.59092 63.69 2.853L65.157 3.78C65.8147 4.19682 66.5742 4.4251 67.3528 4.43991C68.1313 4.45472 68.8989 4.25552 69.572 3.86401L70.965 3.05801C71.3862 2.8135 71.8661 2.68865 72.353 2.69693C72.84 2.70521 73.3154 2.84632 73.728 3.10501L76.074 4.57101V5.60699L74.571 4.668ZM55.514 1.854H59.391L58.765 2.21701C58.3377 2.46613 57.8495 2.59152 57.3551 2.57916C56.8606 2.5668 56.3793 2.41717 55.965 2.147L55.514 1.854ZM65.08 1.854H69.88L68.78 2.49402C68.3568 2.73989 67.8742 2.86477 67.3848 2.85507C66.8954 2.84537 66.4181 2.70145 66.005 2.439L65.08 1.854ZM76.08 2.70401L74.723 1.854H76.08V2.70401ZM1.85098 12.157V1.85699H51.778V12.157H1.85098ZM53.627 11.237L55.05 12.157H53.627V11.237Z" fill="#7BFFA0"/>
<path d="M9.24008 6.826C9.41443 6.51099 9.50078 6.15487 9.49008 5.79499C9.50467 5.5399 9.46596 5.28455 9.37643 5.04524C9.28691 4.80592 9.14853 4.5879 8.97009 4.40501C8.78492 4.23522 8.56803 4.10363 8.33191 4.01783C8.09579 3.93203 7.84506 3.89371 7.59409 3.90501H5.08008V9.78401H6.29608V7.66999H7.27707L8.42609 9.78401H9.79108L8.54507 7.47401C8.83684 7.33311 9.07913 7.1072 9.24008 6.826ZM8.03207 6.38499C7.87196 6.53009 7.66092 6.60595 7.44507 6.59599H6.29007V4.97801H7.44507C7.55213 4.97302 7.65911 4.98927 7.75986 5.02583C7.8606 5.06239 7.95313 5.1185 8.03207 5.19099C8.10837 5.27034 8.16746 5.3646 8.20566 5.46785C8.24386 5.57109 8.26036 5.68109 8.25409 5.791C8.26125 5.90008 8.24515 6.00946 8.20688 6.11186C8.16861 6.21426 8.10902 6.30734 8.03207 6.38499V6.38499Z" fill="#7BFFA0"/>
<path d="M12.32 7.29401H14.538V6.246H12.32V4.97601H14.876V3.90601H11.104V9.785H14.884V8.70602H12.321L12.32 7.29401Z" fill="#7BFFA0"/>
<path d="M20.077 8.47002C19.7813 8.69205 19.4186 8.80637 19.049 8.79403C18.8169 8.79626 18.5866 8.75313 18.371 8.66705C18.1653 8.58452 17.9795 8.45906 17.826 8.29903C17.6618 8.12284 17.5374 7.91345 17.461 7.68502C17.3687 7.41477 17.3237 7.13059 17.328 6.84502C17.3012 6.32985 17.4681 5.8233 17.796 5.42504C17.9511 5.24997 18.1432 5.1115 18.3583 5.01968C18.5735 4.92785 18.8063 4.88494 19.04 4.89404C19.4111 4.88085 19.7753 4.99718 20.07 5.22305C20.3573 5.46251 20.5475 5.79845 20.605 6.16802L21.871 6.05703C21.7879 5.41211 21.4537 4.82604 20.941 4.42605C20.4091 4.017 19.7528 3.80305 19.082 3.82003C18.5484 3.80999 18.0205 3.93158 17.545 4.17403C17.0958 4.4113 16.7261 4.77539 16.482 5.22103C16.2254 5.72301 16.0916 6.27874 16.0916 6.84252C16.0916 7.40631 16.2254 7.96206 16.482 8.46404C16.7276 8.91033 17.0981 9.27524 17.548 9.51403C18.0242 9.75797 18.5532 9.88059 19.088 9.87103C19.7558 9.88876 20.4095 9.67701 20.94 9.27105C21.4508 8.87426 21.7871 8.29438 21.878 7.65405L20.604 7.54302C20.5497 7.9068 20.3618 8.2373 20.077 8.47002V8.47002Z" fill="#7BFFA0"/>
<path d="M27.4191 6.826C27.5924 6.51063 27.6783 6.1547 27.6681 5.79499C27.6826 5.5399 27.6439 5.28455 27.5544 5.04524C27.4649 4.80592 27.3265 4.5879 27.1481 4.40501C26.9629 4.23522 26.746 4.10363 26.5099 4.01783C26.2738 3.93203 26.023 3.89371 25.7721 3.90501H23.2581V9.78401H24.4741V7.66999H25.4571L26.6041 9.78401H27.9701L26.7231 7.47401C27.0147 7.3326 27.2572 7.10684 27.4191 6.826V6.826ZM26.2091 6.38499C26.049 6.53009 25.8379 6.60595 25.6221 6.59599H24.4671V4.97801H25.6221C25.7291 4.97307 25.8361 4.98933 25.9368 5.02589C26.0376 5.06244 26.1301 5.11855 26.2091 5.19099C26.2854 5.27034 26.3445 5.3646 26.3827 5.46785C26.4209 5.57109 26.4373 5.68109 26.4311 5.791C26.4382 5.90008 26.4222 6.00946 26.3839 6.11186C26.3456 6.21426 26.286 6.30734 26.2091 6.38499V6.38499Z" fill="#7BFFA0"/>
<path d="M30.498 7.29401H32.712V6.246H30.494V4.97601H33.05V3.90601H29.282V9.785H33.062V8.70602H30.499L30.498 7.29401Z" fill="#7BFFA0"/>
<path d="M36.474 3.90698L33.949 9.78598H35.276L35.7639 8.65298H38.207L38.687 9.78598H40.022L37.4969 3.90698H36.474ZM36.197 7.66299L36.991 5.78598L37.791 7.66299H36.197Z" fill="#7BFFA0"/>
<path d="M39.5649 4.97601H41.537V9.784H42.7459V4.97601H44.7109V3.90601H39.5649V4.97601Z" fill="#7BFFA0"/>
<path d="M47.1369 8.70602V7.29401H49.3549V6.246H47.1369V4.97601H49.6929V3.90601H45.9199V9.785H49.6999V8.70602H47.1369Z" fill="#7BFFA0"/>
</g>
<defs>
<clipPath id="clip0">
<rect width="77.927" height="14" fill="white"/>
</clipPath>
</defs>
</svg>
