<svg width="453" height="154" viewBox="0 0 453 154" fill="none" xmlns="http://www.w3.org/2000/svg">
<g filter="url(#filter0_d)">
<path d="M45.088 113C43.552 113 42.208 112.472 41.056 111.416C40 110.264 39.472 108.92 39.472 107.384V0.535997H50.704V107.384C50.704 108.92 50.176 110.264 49.12 111.416C48.064 112.472 46.72 113 45.088 113ZM5.344 10.76C3.808 10.76 2.56 10.28 1.6 9.32C0.64 8.36 0.16 7.16 0.16 5.71999C0.16 4.18399 0.64 2.936 1.6 1.976C2.56 1.016 3.808 0.535997 5.344 0.535997H84.976C86.512 0.535997 87.76 1.016 88.72 1.976C89.68 2.936 90.16 4.18399 90.16 5.71999C90.16 7.16 89.68 8.36 88.72 9.32C87.76 10.28 86.512 10.76 84.976 10.76H5.344ZM86.0234 113.72C78.6314 113.72 72.0074 111.992 66.1514 108.536C60.2954 104.984 55.6394 100.184 52.1834 94.136C48.8234 88.088 47.1434 81.272 47.1434 73.688C47.1434 66.008 48.8714 59.144 52.3274 53.096C55.8794 47.048 60.6794 42.296 66.7274 38.84C72.7754 35.288 79.5914 33.512 87.1754 33.512C94.7594 33.512 101.527 35.288 107.479 38.84C113.527 42.296 118.279 47.048 121.735 53.096C125.287 59.144 127.111 66.008 127.207 73.688L122.743 77.144C122.743 84.056 121.111 90.296 117.847 95.864C114.679 101.336 110.311 105.704 104.743 108.968C99.2714 112.136 93.0314 113.72 86.0234 113.72ZM87.1754 103.64C92.7434 103.64 97.6874 102.344 102.007 99.752C106.423 97.16 109.879 93.608 112.375 89.096C114.967 84.488 116.263 79.352 116.263 73.688C116.263 67.928 114.967 62.792 112.375 58.28C109.879 53.768 106.423 50.216 102.007 47.624C97.6874 44.936 92.7434 43.592 87.1754 43.592C81.7034 43.592 76.7594 44.936 72.3434 47.624C67.9274 50.216 64.4234 53.768 61.8314 58.28C59.2394 62.792 57.9434 67.928 57.9434 73.688C57.9434 79.352 59.2394 84.488 61.8314 89.096C64.4234 93.608 67.9274 97.16 72.3434 99.752C76.7594 102.344 81.7034 103.64 87.1754 103.64ZM121.591 113C119.959 113 118.615 112.52 117.559 111.56C116.503 110.504 115.975 109.16 115.975 107.528V82.904L118.711 71.528L127.207 73.688V107.528C127.207 109.16 126.679 110.504 125.623 111.56C124.567 112.52 123.223 113 121.591 113ZM148.197 113.72C142.533 113.72 136.917 112.76 131.348 110.84C125.78 108.92 121.268 106.04 117.812 102.2C116.756 101.048 116.324 99.752 116.516 98.312C116.708 96.872 117.428 95.624 118.676 94.568C120.02 93.608 121.412 93.224 122.852 93.416C124.292 93.608 125.492 94.232 126.452 95.288C128.757 97.976 131.78 100.04 135.524 101.48C139.364 102.92 143.589 103.64 148.197 103.64C155.301 103.64 160.437 102.44 163.604 100.04C166.773 97.544 168.405 94.568 168.501 91.112C168.501 87.656 166.869 84.824 163.604 82.616C160.34 80.312 154.964 78.536 147.477 77.288C137.781 75.752 130.676 73.064 126.164 69.224C121.652 65.384 119.396 60.824 119.396 55.544C119.396 50.648 120.692 46.568 123.284 43.304C125.876 40.04 129.332 37.592 133.652 35.96C137.972 34.328 142.724 33.512 147.909 33.512C154.341 33.512 159.861 34.616 164.469 36.824C169.173 39.032 172.965 42.008 175.845 45.752C176.805 47 177.189 48.296 176.997 49.64C176.805 50.984 176.037 52.088 174.693 52.952C173.541 53.624 172.196 53.864 170.66 53.672C169.221 53.384 167.973 52.664 166.917 51.512C164.516 48.728 161.732 46.712 158.565 45.464C155.397 44.12 151.749 43.448 147.62 43.448C142.341 43.448 138.117 44.552 134.948 46.76C131.78 48.872 130.196 51.56 130.196 54.824C130.196 57.032 130.772 58.952 131.924 60.584C133.172 62.216 135.236 63.656 138.116 64.904C141.092 66.152 145.221 67.208 150.501 68.072C157.701 69.224 163.365 70.952 167.493 73.256C171.717 75.464 174.693 78.104 176.421 81.176C178.245 84.152 179.157 87.416 179.157 90.968C179.157 95.48 177.813 99.464 175.125 102.92C172.533 106.28 168.885 108.92 164.181 110.84C159.573 112.76 154.245 113.72 148.197 113.72ZM238.493 113C236.862 113 235.518 112.472 234.462 111.416C233.406 110.36 232.878 109.064 232.878 107.528V70.088C232.878 64.136 231.726 59.24 229.422 55.4C227.214 51.56 224.141 48.68 220.205 46.76C216.365 44.84 211.998 43.88 207.102 43.88C202.398 43.88 198.126 44.792 194.285 46.616C190.541 48.44 187.565 50.936 185.357 54.104C183.149 57.272 182.045 60.872 182.045 64.904H174.125C174.317 58.856 175.949 53.48 179.021 48.776C182.093 43.976 186.173 40.232 191.261 37.544C196.349 34.76 202.013 33.368 208.253 33.368C215.069 33.368 221.165 34.808 226.541 37.688C231.917 40.472 236.141 44.6 239.213 50.072C242.381 55.544 243.965 62.216 243.965 70.088V107.528C243.965 109.064 243.437 110.36 242.382 111.416C241.326 112.472 240.03 113 238.493 113ZM176.573 113C174.845 113 173.453 112.52 172.397 111.56C171.437 110.504 170.957 109.16 170.957 107.528V39.848C170.957 38.12 171.437 36.776 172.397 35.816C173.453 34.76 174.845 34.232 176.573 34.232C178.205 34.232 179.501 34.76 180.461 35.816C181.517 36.776 182.045 38.12 182.045 39.848V107.528C182.045 109.16 181.517 110.504 180.461 111.56C179.501 112.52 178.205 113 176.573 113ZM260.203 113.864C253.387 113.864 247.291 112.472 241.915 109.688C236.539 106.808 232.267 102.632 229.099 97.16C226.027 91.688 224.491 85.016 224.491 77.144V39.704C224.491 38.168 225.019 36.872 226.075 35.816C227.131 34.76 228.427 34.232 229.963 34.232C231.595 34.232 232.939 34.76 233.995 35.816C235.051 36.872 235.579 38.168 235.579 39.704V77.144C235.579 83.096 236.683 87.992 238.891 91.832C241.195 95.672 244.267 98.552 248.107 100.472C252.043 102.392 256.459 103.352 261.355 103.352C266.059 103.352 270.283 102.44 274.027 100.616C277.867 98.792 280.891 96.296 283.099 93.128C285.307 89.96 286.411 86.36 286.411 82.328H294.331C294.043 88.376 292.363 93.8 289.291 98.6C286.315 103.304 282.283 107.048 277.195 109.832C272.107 112.52 266.443 113.864 260.203 113.864ZM291.883 113C290.251 113 288.907 112.52 287.851 111.56C286.891 110.504 286.411 109.112 286.411 107.384V39.704C286.411 38.072 286.891 36.776 287.851 35.816C288.907 34.76 290.251 34.232 291.883 34.232C293.515 34.232 294.859 34.76 295.915 35.816C296.971 36.776 297.499 38.072 297.499 39.704V107.384C297.499 109.112 296.971 110.504 295.915 111.56C294.859 112.52 293.515 113 291.883 113ZM322.952 113C320.648 113 318.92 111.752 317.768 109.256L285.8 41.432C285.224 40.184 285.176 38.936 285.656 37.688C286.136 36.44 287.096 35.48 288.536 34.808C289.88 34.136 291.176 34.04 292.424 34.52C293.672 35 294.632 35.864 295.304 37.112L325.976 103.496H320.072L350.312 37.112C350.888 35.768 351.848 34.904 353.192 34.52C354.632 34.04 356.024 34.088 357.368 34.664C358.712 35.336 359.624 36.344 360.104 37.688C360.584 38.936 360.536 40.136 359.96 41.288L328.424 109.256C327.272 111.752 325.448 113 322.952 113ZM371.442 113.72C364.049 113.72 357.425 111.992 351.569 108.536C345.713 104.984 341.057 100.184 337.601 94.136C334.241 88.088 332.561 81.272 332.561 73.688C332.561 66.008 334.289 59.144 337.745 53.096C341.297 47.048 346.097 42.296 352.145 38.84C358.193 35.288 365.009 33.512 372.593 33.512C380.177 33.512 386.945 35.288 392.897 38.84C398.946 42.296 403.698 47.048 407.154 53.096C410.706 59.144 412.53 66.008 412.626 73.688L408.161 77.144C408.161 84.056 406.53 90.296 403.266 95.864C400.098 101.336 395.73 105.704 390.161 108.968C384.689 112.136 378.449 113.72 371.442 113.72ZM372.593 103.64C378.161 103.64 383.105 102.344 387.426 99.752C391.842 97.16 395.297 93.608 397.793 89.096C400.385 84.488 401.681 79.352 401.681 73.688C401.681 67.928 400.385 62.792 397.793 58.28C395.297 53.768 391.842 50.216 387.426 47.624C383.105 44.936 378.161 43.592 372.593 43.592C367.121 43.592 362.177 44.936 357.761 47.624C353.345 50.216 349.841 53.768 347.249 58.28C344.657 62.792 343.361 67.928 343.361 73.688C343.361 79.352 344.657 84.488 347.249 89.096C349.841 93.608 353.345 97.16 357.761 99.752C362.177 102.344 367.121 103.64 372.593 103.64ZM407.009 113C405.378 113 404.034 112.52 402.977 111.56C401.922 110.504 401.394 109.16 401.394 107.528V82.904L404.13 71.528L412.626 73.688V107.528C412.626 109.16 412.098 110.504 411.041 111.56C409.985 112.52 408.641 113 407.009 113Z" fill="#7AF84D"/>
</g>
<defs>
<filter id="filter0_d" x="0.160156" y="0.536011" width="452.466" height="153.328" filterUnits="userSpaceOnUse" color-interpolation-filters="sRGB">
<feFlood flood-opacity="0" result="BackgroundImageFix"/>
<feColorMatrix in="SourceAlpha" type="matrix" values="0 0 0 0 0 0 0 0 0 0 0 0 0 0 0 0 0 0 127 0"/>
<feOffset dx="20" dy="20"/>
<feGaussianBlur stdDeviation="10"/>
<feColorMatrix type="matrix" values="0 0 0 0 0 0 0 0 0 0 0 0 0 0 0 0 0 0 0.4 0"/>
<feBlend mode="normal" in2="BackgroundImageFix" result="effect1_dropShadow"/>
<feBlend mode="normal" in="SourceGraphic" in2="effect1_dropShadow" result="shape"/>
</filter>
</defs>
</svg>
