<svg width="619" height="149" viewBox="0 0 619 149" fill="none" xmlns="http://www.w3.org/2000/svg">
<path d="M67.42 86.5H58.7V111H53.32V86.5H44.6V82.08H67.42V86.5ZM96.2869 90.48L89.7669 111H85.8069C85.3535 111 85.0402 110.707 84.8669 110.12L81.1869 98.26C81.0669 97.86 80.9535 97.4667 80.8469 97.08C80.7535 96.68 80.6735 96.28 80.6069 95.88C80.5269 96.28 80.4335 96.6867 80.3269 97.1C80.2335 97.5 80.1269 97.9 80.0069 98.3L76.2669 110.12C76.1069 110.707 75.7535 111 75.2069 111H71.4069L64.9069 90.48H68.8469C69.2069 90.48 69.5135 90.5667 69.7669 90.74C70.0202 90.9133 70.1869 91.1333 70.2669 91.4L73.2069 102.36C73.3535 102.96 73.4802 103.547 73.5869 104.12C73.7069 104.693 73.8069 105.267 73.8869 105.84C74.0335 105.267 74.1869 104.693 74.3469 104.12C74.5202 103.547 74.7002 102.96 74.8869 102.36L78.2869 91.36C78.3669 91.0933 78.5202 90.8733 78.7469 90.7C78.9869 90.5267 79.2735 90.44 79.6069 90.44H81.7869C82.1335 90.44 82.4269 90.5267 82.6669 90.7C82.9202 90.8733 83.0869 91.0933 83.1669 91.36L86.4669 102.36C86.6402 102.96 86.8002 103.553 86.9469 104.14C87.1069 104.713 87.2602 105.287 87.4069 105.86C87.5802 104.727 87.8269 103.56 88.1469 102.36L91.1669 91.4C91.2602 91.1333 91.4269 90.9133 91.6669 90.74C91.9069 90.5667 92.1935 90.48 92.5269 90.48H96.2869ZM104.216 90.48V111H99.2563V90.48H104.216ZM104.896 84.5C104.896 84.9267 104.81 85.3267 104.636 85.7C104.463 86.0733 104.23 86.4 103.936 86.68C103.656 86.96 103.323 87.1867 102.936 87.36C102.55 87.52 102.136 87.6 101.696 87.6C101.27 87.6 100.863 87.52 100.476 87.36C100.103 87.1867 99.7763 86.96 99.4963 86.68C99.2163 86.4 98.9896 86.0733 98.8163 85.7C98.6563 85.3267 98.5763 84.9267 98.5763 84.5C98.5763 84.06 98.6563 83.6467 98.8163 83.26C98.9896 82.8733 99.2163 82.54 99.4963 82.26C99.7763 81.98 100.103 81.76 100.476 81.6C100.863 81.4267 101.27 81.34 101.696 81.34C102.136 81.34 102.55 81.4267 102.936 81.6C103.323 81.76 103.656 81.98 103.936 82.26C104.23 82.54 104.463 82.8733 104.636 83.26C104.81 83.6467 104.896 84.06 104.896 84.5ZM116.093 111.32C114.306 111.32 112.933 110.82 111.973 109.82C111.026 108.807 110.553 107.413 110.553 105.64V94.18H108.453C108.186 94.18 107.959 94.0933 107.773 93.92C107.586 93.7467 107.493 93.4867 107.493 93.14V91.18L110.793 90.64L111.833 85.04C111.899 84.7733 112.026 84.5667 112.213 84.42C112.399 84.2733 112.639 84.2 112.933 84.2H115.493V90.66H124.033L125.093 85.04C125.159 84.7733 125.279 84.5667 125.453 84.42C125.639 84.2733 125.886 84.2 126.193 84.2H128.733V90.66H134.213V94.18H128.733V105.3C128.733 105.94 128.893 106.44 129.213 106.8C129.533 107.16 129.966 107.34 130.513 107.34C130.806 107.34 131.059 107.307 131.273 107.24C131.486 107.16 131.666 107.08 131.812 107C131.973 106.92 132.113 106.847 132.233 106.78C132.353 106.7 132.473 106.66 132.593 106.66C132.739 106.66 132.859 106.7 132.953 106.78C133.046 106.847 133.146 106.953 133.253 107.1L134.733 109.5C134.013 110.1 133.186 110.553 132.253 110.86C131.319 111.167 130.353 111.32 129.353 111.32C127.566 111.32 126.193 110.82 125.233 109.82C124.273 108.807 123.793 107.413 123.793 105.64V94.18H115.493V105.3C115.493 105.94 115.646 106.44 115.953 106.8C116.273 107.16 116.706 107.34 117.253 107.34C117.559 107.34 117.813 107.307 118.013 107.24C118.226 107.16 118.406 107.08 118.553 107C118.713 106.92 118.853 106.847 118.973 106.78C119.093 106.7 119.213 106.66 119.333 106.66C119.479 106.66 119.599 106.7 119.693 106.78C119.786 106.847 119.886 106.953 119.993 107.1L121.473 109.5C120.753 110.1 119.926 110.553 118.993 110.86C118.059 111.167 117.093 111.32 116.093 111.32ZM150.441 98.38C150.441 97.74 150.348 97.14 150.161 96.58C149.988 96.0067 149.721 95.5067 149.361 95.08C149.001 94.6533 148.541 94.32 147.981 94.08C147.435 93.8267 146.795 93.7 146.061 93.7C144.635 93.7 143.508 94.1067 142.681 94.92C141.868 95.7333 141.348 96.8867 141.121 98.38H150.441ZM141.021 101.36C141.101 102.413 141.288 103.327 141.581 104.1C141.875 104.86 142.261 105.493 142.741 106C143.221 106.493 143.788 106.867 144.441 107.12C145.108 107.36 145.841 107.48 146.641 107.48C147.441 107.48 148.128 107.387 148.701 107.2C149.288 107.013 149.795 106.807 150.221 106.58C150.661 106.353 151.041 106.147 151.361 105.96C151.695 105.773 152.015 105.68 152.321 105.68C152.735 105.68 153.041 105.833 153.241 106.14L154.661 107.94C154.115 108.58 153.501 109.12 152.821 109.56C152.141 109.987 151.428 110.333 150.681 110.6C149.948 110.853 149.195 111.033 148.421 111.14C147.661 111.247 146.921 111.3 146.201 111.3C144.775 111.3 143.448 111.067 142.221 110.6C140.995 110.12 139.928 109.42 139.021 108.5C138.115 107.567 137.401 106.42 136.881 105.06C136.361 103.687 136.101 102.1 136.101 100.3C136.101 98.9 136.328 97.5867 136.781 96.36C137.235 95.12 137.881 94.0467 138.721 93.14C139.575 92.22 140.608 91.4933 141.821 90.96C143.048 90.4267 144.428 90.16 145.961 90.16C147.255 90.16 148.448 90.3667 149.541 90.78C150.635 91.1933 151.575 91.8 152.361 92.6C153.148 93.3867 153.761 94.36 154.201 95.52C154.655 96.6667 154.881 97.98 154.881 99.46C154.881 100.207 154.801 100.713 154.641 100.98C154.481 101.233 154.175 101.36 153.721 101.36H141.021ZM163.248 94.04C163.888 92.8133 164.648 91.8533 165.528 91.16C166.408 90.4533 167.448 90.1 168.648 90.1C169.595 90.1 170.355 90.3067 170.928 90.72L170.608 94.42C170.542 94.66 170.442 94.8333 170.308 94.94C170.188 95.0333 170.022 95.08 169.808 95.08C169.608 95.08 169.308 95.0467 168.908 94.98C168.522 94.9133 168.142 94.88 167.768 94.88C167.222 94.88 166.735 94.96 166.308 95.12C165.882 95.28 165.495 95.5133 165.148 95.82C164.815 96.1133 164.515 96.4733 164.248 96.9C163.995 97.3267 163.755 97.8133 163.528 98.36V111H158.588V90.48H161.488C161.995 90.48 162.348 90.5733 162.548 90.76C162.748 90.9333 162.882 91.2533 162.948 91.72L163.248 94.04Z" fill="#676777"/>
<rect x="1.12891" y="0.5" width="616.743" height="145" stroke="white"/>
<path d="M1 145H618.7" stroke="#7BFFA0" stroke-width="8"/>
<g clip-path="url(#clip0)">
<path d="M529 52.291V49.7133L529.079 49.2581L529.497 46.4209C530.547 41.2723 533.453 36.6889 537.668 33.5482C540.171 31.5798 543.082 30.1963 546.189 29.4991C549.297 28.8019 552.52 28.8087 555.624 29.519C560.75 30.5527 565.309 33.4426 568.435 37.6302C571.9 42.0377 573.495 47.6306 572.879 53.2015C572.465 57.7724 570.582 62.0864 567.511 65.498C564.23 69.2862 559.734 71.8162 554.793 72.6547L552.291 72.9978H549.713C549.604 72.9666 549.493 72.943 549.381 72.9274C545.982 72.7141 542.688 71.6738 539.782 69.8989C537.043 68.2953 534.688 66.1108 532.885 63.4991C531.081 60.8874 529.872 57.9121 529.343 54.7828L529 52.291ZM539.503 65.399C544.897 69.7581 552.298 70.6819 558.599 67.7831C557.83 63.2475 556.591 58.8043 554.901 54.5255C550.439 55.4272 542.383 61.1125 539.501 65.399H539.503ZM536.916 62.9226C541.254 57.521 547.04 53.4566 553.596 51.2133L551.931 47.6592C551.761 47.2787 551.601 47.2193 551.198 47.3469C546.143 48.9893 540.888 49.935 535.578 50.1576L532.538 50.2764C532.37 54.8901 533.93 59.4004 536.913 62.9248L536.916 62.9226ZM550.014 44.0083C548.099 40.5546 545.946 37.2381 543.571 34.0826C540.968 35.2466 538.665 36.989 536.837 39.177C535.01 41.365 533.705 43.9411 533.024 46.709C538.788 46.6431 544.512 45.7325 550.014 44.0083ZM565.315 39.3896C562.28 42.1112 558.814 44.3104 555.059 45.8975L557.098 50.3182C559.129 49.9289 561.19 49.7463 563.258 49.7683C565.326 49.8035 567.39 50.0257 569.418 50.4281C569.323 46.3937 567.879 42.5074 565.315 39.3896ZM547.275 32.895L553.501 42.7041C556.931 41.2976 560.095 39.3153 562.856 36.8428C558.533 33.2359 552.806 31.7887 547.289 32.906L547.275 32.895ZM561.879 65.9137C565.782 63.0503 568.418 58.7806 569.227 54.0087C565.68 53.18 562.005 53.0582 558.412 53.6502C559.918 57.6309 561.078 61.7339 561.879 65.9137Z" fill="#676777"/>
</g>
<defs>
<clipPath id="clip0">
<rect width="44" height="44" fill="white" transform="translate(529 29)"/>
</clipPath>
</defs>
</svg>
