<svg width="28" height="21" viewBox="0 0 28 21" fill="none" xmlns="http://www.w3.org/2000/svg">
<rect width="28" height="20.7742" rx="2" fill="#26284C"/>
<circle cx="13.8872" cy="9.88721" r="7.8872" fill="black"/>
<path d="M13.8839 17.7744C12.324 17.7738 10.7992 17.3105 9.50256 16.4433C8.20588 15.5761 7.19548 14.3439 6.59912 12.9025C6.00276 11.461 5.84723 9.87509 6.1522 8.34525C6.45717 6.81541 7.20894 5.41036 8.31245 4.30777C9.41596 3.20519 10.8216 2.4546 12.3517 2.15091C13.8818 1.84722 15.4676 2.00408 16.9086 2.60165C18.3495 3.19922 19.5809 4.21066 20.447 5.50806C21.3131 6.80547 21.7751 8.33057 21.7744 9.89052C21.7723 11.982 20.9401 13.987 19.4606 15.4653C17.9811 16.9435 15.9753 17.7741 13.8839 17.7744V17.7744ZM15.8555 16.2024C17.0505 15.8298 18.1153 15.1261 18.9265 14.1728C19.7377 13.2196 20.2621 12.0559 20.4388 10.8167C20.6154 9.57759 20.4372 8.31373 19.9247 7.17176C19.4122 6.0298 18.5865 5.05652 17.5433 4.36481C16.5001 3.6731 15.2822 3.29132 14.0308 3.26373C12.7794 3.23614 11.5458 3.56388 10.4731 4.20894C9.40046 4.854 8.53264 5.78994 7.97032 6.90821C7.408 8.02648 7.17423 9.28125 7.29612 10.527C7.43182 12.076 8.1229 13.5237 9.24195 14.6033C10.0067 15.3714 10.9547 15.9321 11.9963 16.2322C11.9963 16.1581 11.9963 16.1065 11.9963 16.0549C11.9963 15.6539 11.9897 15.253 12.0062 14.8527C12.0076 14.6559 12.0481 14.4613 12.1255 14.2804C12.2028 14.0994 12.3155 13.9357 12.4568 13.7987C12.5004 13.757 12.5474 13.718 12.6076 13.6664C12.5527 13.6565 12.5236 13.6499 12.4945 13.6465C11.9488 13.5964 11.4144 13.4611 10.9106 13.2456C10.5631 13.1016 10.2485 12.8885 9.98575 12.6193C9.72304 12.3502 9.51772 12.0304 9.38222 11.6795C9.19602 11.1732 9.09692 10.639 9.08912 10.0996C9.05948 9.71357 9.10673 9.3255 9.22814 8.95788C9.34954 8.59025 9.54269 8.25036 9.79639 7.95792C9.82044 7.93429 9.83659 7.9038 9.84263 7.87064C9.84867 7.83747 9.84431 7.80325 9.83014 7.77266C9.63904 7.17154 9.66955 6.52185 9.91615 5.94129C9.92787 5.91862 9.94487 5.8991 9.96571 5.88436C9.98655 5.86962 10.0106 5.8601 10.0359 5.8566C10.1913 5.85496 10.3466 5.86937 10.499 5.89961C11.0097 6.04209 11.4916 6.27271 11.9228 6.58108C11.9557 6.60412 11.9935 6.61936 12.0331 6.62567C12.0728 6.63197 12.1134 6.62917 12.1518 6.61747C13.3127 6.3162 14.5312 6.3162 15.6921 6.61747C15.7347 6.6299 15.7797 6.63218 15.8233 6.62414C15.867 6.6161 15.9081 6.59795 15.9435 6.57115C16.373 6.26655 16.8527 6.0399 17.3607 5.90159C17.5117 5.87195 17.6654 5.8582 17.8192 5.86057C17.8408 5.86344 17.8613 5.87142 17.8792 5.88385C17.897 5.89628 17.9116 5.9128 17.9218 5.93203C18.167 6.50364 18.2031 7.14336 18.0237 7.73892C18.0052 7.78094 17.9999 7.82756 18.0084 7.87266C18.0169 7.91777 18.0388 7.95925 18.0713 7.99166C18.5026 8.48763 18.7434 9.12082 18.7508 9.77804C18.7708 10.3344 18.7025 10.8905 18.5483 11.4255C18.3801 12.0145 18.0231 12.5319 17.5321 12.8983C17.0102 13.261 16.4107 13.4964 15.7814 13.5857C15.6068 13.6188 15.4301 13.6386 15.2647 13.6631C15.3979 13.8098 15.522 13.9645 15.6365 14.1262C15.7977 14.4137 15.8734 14.7413 15.8549 15.0704C15.8582 15.4429 15.8582 15.8167 15.8582 16.2024H15.8555Z" fill="#676777"/>
</svg>
