<svg width="180" height="201" viewBox="0 0 180 201" fill="none" xmlns="http://www.w3.org/2000/svg">
<rect width="180" height="180" rx="90" fill="#26284C"/>
<g filter="url(#filter0_d)">
<path d="M84.336 154.84L81.5076 157.668L81.5076 157.668L84.336 154.84ZM82.176 58.36H86.176V54.36H82.176V58.36ZM46.032 56.488L43.1008 59.2098L43.2016 59.3184L43.3102 59.4192L46.032 56.488ZM46.032 46.552L43.2036 43.7236L43.2036 43.7236L46.032 46.552ZM133.008 46.552L130.077 49.2738L130.178 49.3824L130.286 49.4832L133.008 46.552ZM133.008 56.488L135.836 59.3164L135.836 59.3164L133.008 56.488ZM97.152 58.36V54.36H93.152V58.36H97.152ZM94.992 154.84L97.8204 157.668L97.8204 157.668L94.992 154.84ZM89.664 153C88.5689 153 87.8238 152.671 87.1644 152.012L81.5076 157.668C83.7282 159.889 86.5351 161 89.664 161V153ZM87.1644 152.012C86.5051 151.352 86.176 150.607 86.176 149.512H78.176C78.176 152.641 79.2869 155.448 81.5076 157.668L87.1644 152.012ZM86.176 149.512V58.36H78.176V149.512H86.176ZM82.176 54.36H51.072V62.36H82.176V54.36ZM51.072 54.36C49.9568 54.36 49.2819 54.0472 48.7538 53.5568L43.3102 59.4192C45.4701 61.4248 48.1552 62.36 51.072 62.36V54.36ZM48.9632 53.7662C48.4728 53.2381 48.16 52.5632 48.16 51.448H40.16C40.16 54.3648 41.0952 57.0499 43.1008 59.2098L48.9632 53.7662ZM48.16 51.448C48.16 50.3289 48.4711 49.7698 48.8604 49.3804L43.2036 43.7236C41.0969 45.8302 40.16 48.5351 40.16 51.448H48.16ZM48.8604 49.3804C49.4052 48.8356 50.0454 48.536 51.072 48.536V40.536C48.0666 40.536 45.3468 41.5804 43.2036 43.7236L48.8604 49.3804ZM51.072 48.536H128.112V40.536H51.072V48.536ZM128.112 48.536C129.138 48.536 129.665 48.8306 130.077 49.2738L135.939 43.8302C133.855 41.5854 131.118 40.536 128.112 40.536V48.536ZM130.286 49.4832C130.729 49.8947 131.024 50.4216 131.024 51.448H139.024C139.024 48.4424 137.975 45.7053 135.73 43.6208L130.286 49.4832ZM131.024 51.448C131.024 52.4746 130.724 53.1148 130.18 53.6596L135.836 59.3164C137.98 57.1732 139.024 54.4534 139.024 51.448H131.024ZM130.18 53.6596C129.79 54.0489 129.231 54.36 128.112 54.36V62.36C131.025 62.36 133.73 61.4231 135.836 59.3164L130.18 53.6596ZM128.112 54.36H97.152V62.36H128.112V54.36ZM93.152 58.36V149.512H101.152V58.36H93.152ZM93.152 149.512C93.152 150.607 92.8229 151.352 92.1636 152.012L97.8204 157.668C100.041 155.448 101.152 152.641 101.152 149.512H93.152ZM92.1636 152.012C91.5042 152.671 90.7591 153 89.664 153V161C92.7929 161 95.5998 159.889 97.8204 157.668L92.1636 152.012Z" fill="#7AF84D"/>
</g>
<defs>
<filter id="filter0_d" x="40.1602" y="40.5359" width="138.864" height="160.464" filterUnits="userSpaceOnUse" color-interpolation-filters="sRGB">
<feFlood flood-opacity="0" result="BackgroundImageFix"/>
<feColorMatrix in="SourceAlpha" type="matrix" values="0 0 0 0 0 0 0 0 0 0 0 0 0 0 0 0 0 0 127 0"/>
<feOffset dx="20" dy="20"/>
<feGaussianBlur stdDeviation="10"/>
<feColorMatrix type="matrix" values="0 0 0 0 0 0 0 0 0 0 0 0 0 0 0 0 0 0 0.4 0"/>
<feBlend mode="normal" in2="BackgroundImageFix" result="effect1_dropShadow"/>
<feBlend mode="normal" in="SourceGraphic" in2="effect1_dropShadow" result="shape"/>
</filter>
</defs>
</svg>
