<svg width="44" height="44" viewBox="0 0 44 44" fill="none" xmlns="http://www.w3.org/2000/svg">
<path d="M0 23.291V20.7133L0.0792 20.2581L0.4972 17.4209C1.5466 12.2723 4.4528 7.68886 8.668 4.5482C11.1707 2.57981 14.0823 1.1963 17.1894 0.499105C20.2965 -0.198087 23.5203 -0.191287 26.6244 0.519006C31.7504 1.5527 36.3088 4.44263 39.435 8.63017C42.9 13.0377 44.495 18.6306 43.879 24.2015C43.4652 28.7724 41.5819 33.0864 38.511 36.498C35.2304 40.2862 30.7343 42.8162 25.7928 43.6547L23.2914 43.9978H20.713C20.6041 43.9666 20.493 43.943 20.3808 43.9274C16.9818 43.714 13.6884 42.6738 10.7822 40.8989C8.04266 39.2953 5.68816 37.1108 3.88455 34.4991C2.08094 31.8874 0.872107 28.9121 0.3432 25.7828L0 23.291ZM10.5028 36.399C15.8972 40.7581 23.298 41.6819 29.5988 38.7831C28.8302 34.2475 27.5908 29.8043 25.9006 25.5255C21.439 26.4272 13.3826 32.1125 10.5006 36.399H10.5028ZM7.9156 33.9226C12.254 28.521 18.04 24.4566 24.596 22.2133L22.9306 18.6592C22.7612 18.2787 22.6006 18.2193 22.198 18.3469C17.1434 19.9893 11.8883 20.935 6.578 21.1576L3.5376 21.2764C3.37006 25.8901 4.93041 30.4004 7.9134 33.9248L7.9156 33.9226ZM21.0144 15.0083C19.0988 11.5546 16.9457 8.23814 14.5706 5.08264C11.9677 6.24665 9.66482 7.98899 7.83717 10.177C6.00951 12.365 4.7053 14.9411 4.0238 17.709C9.7878 17.6431 15.5122 16.7325 21.0144 15.0083ZM36.3154 10.3896C33.2803 13.1112 29.8144 15.3104 26.059 16.8975L28.0984 21.3182C30.129 20.9289 32.1904 20.7463 34.2584 20.7683C36.3264 20.8035 38.39 21.0257 40.4184 21.4281C40.3231 17.3937 38.8785 13.5074 36.3154 10.3896V10.3896ZM18.2754 3.89499L24.5014 13.7041C27.9309 12.2976 31.0947 10.3153 33.8558 7.84281C29.5328 4.23589 23.8062 2.78873 18.2886 3.90599L18.2754 3.89499ZM32.879 36.9137C36.7824 34.0503 39.4177 29.7806 40.227 25.0087C36.6805 24.18 33.0054 24.0582 29.4118 24.6502C30.9176 28.6309 32.0776 32.7339 32.879 36.9137V36.9137Z" fill="#676777"/>
</svg>
