<svg width="42" height="42" viewBox="0 0 42 42" fill="none" xmlns="http://www.w3.org/2000/svg">
<g clip-path="url(#clip0)">
<path d="M20.9912 42C16.8378 41.9983 12.7782 40.7649 9.32571 38.456C5.87325 36.147 3.183 32.8661 1.59517 29.0282C0.00733948 25.1903 -0.406759 20.9677 0.405239 16.8945C1.21724 12.8212 3.21886 9.08021 6.157 6.14454C9.09513 3.20887 12.8378 1.21038 16.9118 0.401802C20.9857 -0.406779 25.2079 0.010862 29.0445 1.60191C32.8811 3.19296 36.1597 5.88596 38.4658 9.34036C40.7718 12.7948 42.0017 16.8554 42 21.0088C41.9944 26.5774 39.7786 31.916 35.8394 35.8519C31.9002 39.7878 26.5597 41.9991 20.9912 42V42ZM26.2408 37.8144C29.4224 36.8224 32.2575 34.9487 34.4174 32.4106C36.5773 29.8726 37.9734 26.7743 38.4438 23.4749C38.9142 20.1756 38.4396 16.8106 37.0751 13.77C35.7106 10.7295 33.512 8.1381 30.7345 6.2964C27.9569 4.4547 24.7141 3.43818 21.3822 3.36472C18.0504 3.29127 14.766 4.16389 11.9099 5.88139C9.05387 7.59888 6.74326 10.0909 5.24606 13.0683C3.74886 16.0457 3.12644 19.3866 3.45098 22.7035C3.81229 26.8277 5.65231 30.6823 8.63183 33.5567C10.6681 35.602 13.192 37.0946 15.9654 37.8937C15.9654 37.6964 15.9654 37.559 15.9654 37.4216C15.9654 36.3541 15.9477 35.2866 15.9918 34.2208C15.9954 33.6968 16.1034 33.1788 16.3093 32.697C16.5153 32.2152 16.8152 31.7792 17.1914 31.4146C17.3077 31.3036 17.4328 31.1997 17.5931 31.0622C17.4469 31.0358 17.3694 31.0182 17.2918 31.0094C15.839 30.8759 14.416 30.5157 13.0746 29.9419C12.1494 29.5584 11.3117 28.9912 10.6122 28.2744C9.91275 27.5577 9.36606 26.7064 9.00529 25.7722C8.50952 24.4241 8.24566 23.0017 8.22491 21.5655C8.14598 20.5377 8.27179 19.5044 8.59504 18.5256C8.9183 17.5468 9.43256 16.6418 10.1081 15.8632C10.1721 15.8003 10.2151 15.7191 10.2312 15.6308C10.2472 15.5425 10.2356 15.4514 10.1979 15.3699C9.68909 13.7694 9.77033 12.0396 10.4269 10.4938C10.4581 10.4335 10.5034 10.3815 10.5589 10.3423C10.6143 10.303 10.6784 10.2777 10.7458 10.2684C11.1596 10.264 11.5729 10.3023 11.9789 10.3829C13.3386 10.7622 14.6215 11.3763 15.7698 12.1973C15.8574 12.2586 15.9578 12.2992 16.0634 12.316C16.169 12.3328 16.2771 12.3253 16.3793 12.2942C19.4702 11.492 22.7147 11.492 25.8056 12.2942C25.9191 12.3273 26.0387 12.3334 26.155 12.312C26.2712 12.2906 26.3808 12.2422 26.4751 12.1709C27.6185 11.3599 28.8958 10.7564 30.2484 10.3881C30.6504 10.3092 31.0596 10.2726 31.4692 10.2789C31.5266 10.2866 31.5813 10.3078 31.6288 10.3409C31.6763 10.374 31.7152 10.418 31.7422 10.4692C32.3952 11.9911 32.4912 13.6944 32.0135 15.2801C31.9643 15.392 31.9501 15.5161 31.9728 15.6362C31.9954 15.7563 32.0538 15.8667 32.1404 15.953C33.2887 17.2736 33.9299 18.9595 33.9495 20.7093C34.0028 22.1908 33.8209 23.6713 33.4105 25.0957C32.9625 26.664 32.0119 28.0417 30.7046 29.017C29.3152 29.9828 27.7188 30.6096 26.0435 30.8473C25.5784 30.9354 25.1081 30.9883 24.6677 31.0534C25.0222 31.4442 25.3528 31.856 25.6577 32.2866C26.0868 33.0521 26.2884 33.9242 26.239 34.8004C26.2478 35.7921 26.2478 36.7874 26.2478 37.8144H26.2408Z" fill="#676777"/>
</g>
<defs>
<clipPath id="clip0">
<rect width="42" height="42" fill="white"/>
</clipPath>
</defs>
</svg>
