<svg width="44" height="44" viewBox="0 0 44 44" fill="none" xmlns="http://www.w3.org/2000/svg">
<g clip-path="url(#clip0)">
<path d="M43.9982 25.351C43.9754 24.3311 43.8223 23.3332 43.5936 22.3298C43.2959 20.3434 42.4367 18.4947 41.126 17.0201C39.8153 15.5454 38.1125 14.5117 36.2353 14.0513C31.9386 13.0057 28.0765 13.7945 25.2525 17.72C25.0505 17.9348 24.8329 18.1329 24.6014 18.3125V14.3925H15.3781V43.9883H24.6331V28.2127C24.6219 27.3382 24.6914 26.4647 24.8407 25.6042C25.3686 23.1461 27.487 21.3851 29.9081 21.3979C32.2183 21.3374 34.1749 23.1626 34.3702 25.562C34.5427 26.5639 34.6275 27.58 34.6236 28.5979L34.6341 43.9516H44L43.9824 25.351H43.9982ZM0.647515 43.9608H9.92715V14.4053H0.647515V43.9608ZM5.31373 -4.56227e-05C3.94659 -0.0862613 2.60409 0.412689 1.58357 1.38307C0.563058 2.35346 0.0176113 3.70906 1.61957e-05 5.13621C-0.00350282 6.56702 0.566577 7.92813 1.57302 8.89668C2.07128 9.37539 2.65951 9.74097 3.30041 9.97022C3.94132 10.1995 4.62092 10.2874 5.29613 10.2284C5.97067 10.29 6.65011 10.2043 7.29114 9.97694C7.93217 9.74954 8.52071 9.38538 9.01925 8.90768C9.51712 8.42897 9.91382 7.84732 10.184 7.19986C10.4543 6.55239 10.5921 5.85331 10.5887 5.14721C10.5893 4.44073 10.4506 3.74167 10.1811 3.09343C9.9117 2.44519 9.51733 1.86161 9.0225 1.37893C8.52767 0.896244 7.94296 0.524761 7.30465 0.287543C6.66635 0.050325 5.98808 -0.0475637 5.31197 -4.56227e-05H5.31373Z" fill="#676777"/>
</g>
<defs>
<clipPath id="clip0">
<rect width="44" height="44" fill="white"/>
</clipPath>
</defs>
</svg>
