<svg width="1280" height="720" viewBox="0 0 1280 720" fill="none" xmlns="http://www.w3.org/2000/svg">
<rect width="1280" height="720" fill="white"/>
<path d="M725.469 163H553.531C492.487 163 443 212.487 443 273.531V445.469C443 506.513 492.487 556 553.531 556H725.469C786.513 556 836 506.513 836 445.469V273.531C836 212.487 786.513 163 725.469 163Z" fill="#68A5F9"/>
<path d="M632.801 519.52C634.575 521.303 636.985 522.305 639.5 522.305C642.015 522.305 644.425 521.303 646.199 519.52C688.419 477.078 762.312 386.058 762.312 323.286C762.312 255.22 707.219 199.844 639.5 199.844C571.781 199.844 516.688 255.22 516.688 323.286C516.688 386.348 591.165 477.665 632.801 519.52ZM639.5 218.738C696.801 218.738 743.418 265.639 743.418 323.286C743.418 383.784 663.458 473.633 639.499 499.194C615.532 473.638 535.582 383.831 535.582 323.286C535.582 265.639 582.199 218.738 639.5 218.738Z" fill="#292D2E"/>
<path d="M578.305 332.32L639.922 270.703L701.539 332.32H578.305Z" stroke="#292D2E" stroke-width="10"/>
<path d="M579.094 365.851L640.711 304.234L702.327 365.851H579.094Z" stroke="#292D2E" stroke-width="10"/>
</svg>
