<svg width="164" height="77" viewBox="0 0 164 77" fill="none" xmlns="http://www.w3.org/2000/svg">
<g filter="url(#filter0_d)">
<mask id="path-1-outside-1" maskUnits="userSpaceOnUse" x="0" y="0" width="124" height="37" fill="black">
<rect fill="white" width="124" height="37"/>
<path d="M15.2216 34.7901C14.6079 34.7901 14.0919 34.5802 13.6735 34.1603C13.2551 33.7405 13.0459 33.2226 13.0459 32.6069V6.03053H4.00834C3.42257 6.03053 2.93444 5.8486 2.54393 5.48473C2.18131 5.09288 2 4.60305 2 4.01527C2 3.42748 2.18131 2.95165 2.54393 2.58779C2.93444 2.19593 3.42257 2 4.00834 2H26.393C26.9787 2 27.4529 2.19593 27.8155 2.58779C28.2061 2.95165 28.4013 3.42748 28.4013 4.01527C28.4013 4.60305 28.2061 5.09288 27.8155 5.48473C27.4529 5.8486 26.9787 6.03053 26.393 6.03053H17.3973V32.6069C17.3973 33.2226 17.1881 33.7405 16.7697 34.1603C16.3513 34.5802 15.8352 34.7901 15.2216 34.7901Z"/>
<path d="M26.6496 34.958C24.6133 34.958 22.7863 34.4542 21.1685 33.4466C19.5506 32.4109 18.2675 31.0254 17.3192 29.2901C16.3987 27.5267 15.9384 25.5394 15.9384 23.3282C15.9384 21.117 16.4405 19.1298 17.4447 17.3664C18.4767 15.6031 19.8575 14.2176 21.5869 13.2099C23.3442 12.1743 25.3107 11.6565 27.4864 11.6565C29.6621 11.6565 31.6146 12.1743 33.344 13.2099C35.0734 14.2176 36.4402 15.6031 37.4444 17.3664C38.4765 19.1298 38.9925 21.117 38.9925 23.3282V32.6908C38.9925 33.3066 38.7833 33.8244 38.3649 34.2443C37.9744 34.6361 37.4723 34.8321 36.8586 34.8321C36.245 34.8321 35.7289 34.6361 35.3105 34.2443C34.92 33.8244 34.7248 33.3066 34.7248 32.6908V31.1374C33.7485 32.313 32.563 33.2506 31.1683 33.9504C29.8016 34.6221 28.2953 34.958 26.6496 34.958ZM27.4864 31.1794C28.909 31.1794 30.1781 30.8435 31.2939 30.1718C32.4096 29.472 33.2883 28.5344 33.9298 27.3588C34.5714 26.1552 34.8921 24.8117 34.8921 23.3282C34.8921 21.8168 34.5714 20.4733 33.9298 19.2977C33.2883 18.0941 32.4096 17.1565 31.2939 16.4847C30.1781 15.785 28.909 15.4351 27.4864 15.4351C26.0917 15.4351 24.8225 15.785 23.6789 16.4847C22.5632 17.1565 21.6706 18.0941 21.0011 19.2977C20.3596 20.4733 20.0388 21.8168 20.0388 23.3282C20.0388 24.8117 20.3596 26.1552 21.0011 27.3588C21.6706 28.5344 22.5632 29.472 23.6789 30.1718C24.8225 30.8435 26.0917 31.1794 27.4864 31.1794Z"/>
<path d="M45.5114 34.958C43.5589 34.958 41.7458 34.6641 40.0722 34.0763C38.4265 33.4606 37.1433 32.6908 36.2229 31.7672C35.8045 31.3193 35.6231 30.8155 35.6789 30.2557C35.7626 29.6679 36.0415 29.1921 36.5157 28.8282C37.0736 28.3804 37.6175 28.1985 38.1475 28.2824C38.7054 28.3384 39.1796 28.5763 39.5701 28.9962C40.0443 29.528 40.7974 30.0318 41.8295 30.5076C42.8894 30.9555 44.061 31.1794 45.3441 31.1794C46.9619 31.1794 48.1892 30.9135 49.026 30.3817C49.8907 29.8499 50.337 29.1641 50.3649 28.3244C50.3928 27.4847 49.9884 26.757 49.1516 26.1412C48.3426 25.5254 46.8503 25.0216 44.6746 24.6298C41.8574 24.07 39.8072 23.2303 38.5241 22.1107C37.2689 20.9911 36.6413 19.6196 36.6413 17.9962C36.6413 16.5687 37.0597 15.3931 37.8965 14.4695C38.7333 13.5178 39.8072 12.8181 41.1182 12.3702C42.4292 11.8944 43.796 11.6565 45.2186 11.6565C47.0595 11.6565 48.6913 11.9504 50.1139 12.5382C51.5365 13.126 52.6662 13.9377 53.503 14.9733C53.8935 15.4211 54.0748 15.8969 54.0469 16.4008C54.019 16.8766 53.7819 17.2824 53.3356 17.6183C52.8893 17.9262 52.3593 18.0242 51.7457 17.9122C51.132 17.8003 50.616 17.5483 50.1976 17.1565C49.5002 16.4847 48.7471 16.0229 47.9382 15.771C47.1293 15.5191 46.1948 15.3931 45.1349 15.3931C43.9076 15.3931 42.8615 15.6031 41.9968 16.0229C41.16 16.4427 40.7416 17.0585 40.7416 17.8702C40.7416 18.374 40.8671 18.8359 41.1182 19.2557C41.3971 19.6476 41.9271 20.0114 42.7081 20.3473C43.4891 20.6552 44.6328 20.9631 46.139 21.271C49.291 21.8868 51.4667 22.7684 52.6662 23.916C53.8935 25.0356 54.5071 26.4211 54.5071 28.0725C54.5071 29.3601 54.1585 30.5216 53.4611 31.5573C52.7917 32.5929 51.7875 33.4186 50.4486 34.0343C49.1376 34.6501 47.4919 34.958 45.5114 34.958Z"/>
<path d="M54.0874 34.8321C53.4738 34.8321 52.9577 34.6361 52.5393 34.2443C52.1488 33.8244 51.9536 33.3066 51.9536 32.6908V13.9656C51.9536 13.3219 52.1488 12.8041 52.5393 12.4122C52.9577 12.0204 53.4738 11.8244 54.0874 11.8244C54.729 11.8244 55.245 12.0204 55.6355 12.4122C56.026 12.8041 56.2213 13.3219 56.2213 13.9656V14.4275C57.086 13.5598 58.132 12.874 59.3593 12.3702C60.5866 11.8664 61.9116 11.6145 63.3342 11.6145C65.2588 11.6145 66.9743 12.0343 68.4805 12.874C70.0147 13.6857 71.2141 14.8893 72.0788 16.4847C72.9714 18.0802 73.4177 20.0394 73.4177 22.3626V32.6908C73.4177 33.3066 73.2085 33.8244 72.7901 34.2443C72.3996 34.6361 71.8975 34.8321 71.2838 34.8321C70.6702 34.8321 70.1541 34.6361 69.7357 34.2443C69.3452 33.8244 69.15 33.3066 69.15 32.6908V22.3626C69.15 19.9835 68.5084 18.2481 67.2253 17.1565C65.9701 16.0369 64.3941 15.4771 62.4973 15.4771C61.3258 15.4771 60.2659 15.715 59.3175 16.1908C58.3691 16.6667 57.616 17.3104 57.0581 18.1221C56.5002 18.9059 56.2213 19.8155 56.2213 20.8511V32.6908C56.2213 33.3066 56.026 33.8244 55.6355 34.2443C55.245 34.6361 54.729 34.8321 54.0874 34.8321Z"/>
<path d="M77.5449 35C75.6202 35 73.8908 34.5941 72.3567 33.7824C70.8504 32.9427 69.651 31.7252 68.7584 30.1298C67.8937 28.5343 67.4613 26.5751 67.4613 24.2519V13.9237C67.4613 13.3079 67.6566 12.8041 68.0471 12.4122C68.4655 11.9924 68.9815 11.7824 69.5952 11.7824C70.2088 11.7824 70.7109 11.9924 71.1014 12.4122C71.5198 12.8041 71.729 13.3079 71.729 13.9237V24.2519C71.729 26.631 72.3567 28.3804 73.6119 29.5C74.895 30.5916 76.4849 31.1374 78.3817 31.1374C79.5811 31.1374 80.6411 30.8995 81.5615 30.4237C82.5099 29.9478 83.2631 29.3041 83.8209 28.4924C84.3788 27.6807 84.6577 26.771 84.6577 25.7634V13.9237C84.6577 13.2799 84.853 12.7621 85.2435 12.3702C85.6619 11.9784 86.1779 11.7824 86.7916 11.7824C87.4332 11.7824 87.9492 11.9784 88.3397 12.3702C88.7302 12.7621 88.9255 13.2799 88.9255 13.9237V32.6489C88.9255 33.2646 88.7302 33.7824 88.3397 34.2023C87.9492 34.5941 87.4332 34.7901 86.7916 34.7901C86.1779 34.7901 85.6619 34.5941 85.2435 34.2023C84.853 33.7824 84.6577 33.2646 84.6577 32.6489V32.187C83.793 33.0547 82.747 33.7405 81.5197 34.2443C80.2924 34.7481 78.9674 35 77.5449 35Z"/>
<path d="M96.2325 34.7481C95.3678 34.7481 94.6983 34.2863 94.2242 33.3626L85.354 14.5954C85.1308 14.1196 85.103 13.6578 85.2703 13.2099C85.4656 12.7341 85.8282 12.3702 86.3582 12.1183C86.8324 11.8664 87.3065 11.8244 87.7807 11.9924C88.2828 12.1603 88.6594 12.4822 88.9104 12.958L96.1907 28.7023L103.387 12.958C103.638 12.4822 104.015 12.1603 104.517 11.9924C105.047 11.8244 105.577 11.8664 106.107 12.1183C106.609 12.3422 106.944 12.6921 107.111 13.1679C107.278 13.6438 107.25 14.1196 107.027 14.5954L98.1572 33.3626C97.7388 34.2863 97.0972 34.7481 96.2325 34.7481Z"/>
<path d="M109.657 34.958C107.621 34.958 105.794 34.4542 104.176 33.4466C102.558 32.4109 101.275 31.0254 100.327 29.2901C99.4062 27.5267 98.9459 25.5394 98.9459 23.3282C98.9459 21.117 99.448 19.1298 100.452 17.3664C101.484 15.6031 102.865 14.2176 104.594 13.2099C106.352 12.1743 108.318 11.6565 110.494 11.6565C112.67 11.6565 114.622 12.1743 116.352 13.2099C118.081 14.2176 119.448 15.6031 120.452 17.3664C121.484 19.1298 122 21.117 122 23.3282V32.6908C122 33.3066 121.791 33.8244 121.372 34.2443C120.982 34.6361 120.48 34.8321 119.866 34.8321C119.252 34.8321 118.736 34.6361 118.318 34.2443C117.928 33.8244 117.732 33.3066 117.732 32.6908V31.1374C116.756 32.313 115.571 33.2506 114.176 33.9504C112.809 34.6221 111.303 34.958 109.657 34.958ZM110.494 31.1794C111.916 31.1794 113.186 30.8435 114.301 30.1718C115.417 29.472 116.296 28.5344 116.937 27.3588C117.579 26.1552 117.9 24.8117 117.9 23.3282C117.9 21.8168 117.579 20.4733 116.937 19.2977C116.296 18.0941 115.417 17.1565 114.301 16.4847C113.186 15.785 111.916 15.4351 110.494 15.4351C109.099 15.4351 107.83 15.785 106.686 16.4847C105.571 17.1565 104.678 18.0941 104.009 19.2977C103.367 20.4733 103.046 21.8168 103.046 23.3282C103.046 24.8117 103.367 26.1552 104.009 27.3588C104.678 28.5344 105.571 29.472 106.686 30.1718C107.83 30.8435 109.099 31.1794 110.494 31.1794Z"/>
</mask>
<path d="M15.2216 34.7901C14.6079 34.7901 14.0919 34.5802 13.6735 34.1603C13.2551 33.7405 13.0459 33.2226 13.0459 32.6069V6.03053H4.00834C3.42257 6.03053 2.93444 5.8486 2.54393 5.48473C2.18131 5.09288 2 4.60305 2 4.01527C2 3.42748 2.18131 2.95165 2.54393 2.58779C2.93444 2.19593 3.42257 2 4.00834 2H26.393C26.9787 2 27.4529 2.19593 27.8155 2.58779C28.2061 2.95165 28.4013 3.42748 28.4013 4.01527C28.4013 4.60305 28.2061 5.09288 27.8155 5.48473C27.4529 5.8486 26.9787 6.03053 26.393 6.03053H17.3973V32.6069C17.3973 33.2226 17.1881 33.7405 16.7697 34.1603C16.3513 34.5802 15.8352 34.7901 15.2216 34.7901Z" stroke="#7AF84D" stroke-width="4" mask="url(#path-1-outside-1)"/>
<path d="M26.6496 34.958C24.6133 34.958 22.7863 34.4542 21.1685 33.4466C19.5506 32.4109 18.2675 31.0254 17.3192 29.2901C16.3987 27.5267 15.9384 25.5394 15.9384 23.3282C15.9384 21.117 16.4405 19.1298 17.4447 17.3664C18.4767 15.6031 19.8575 14.2176 21.5869 13.2099C23.3442 12.1743 25.3107 11.6565 27.4864 11.6565C29.6621 11.6565 31.6146 12.1743 33.344 13.2099C35.0734 14.2176 36.4402 15.6031 37.4444 17.3664C38.4765 19.1298 38.9925 21.117 38.9925 23.3282V32.6908C38.9925 33.3066 38.7833 33.8244 38.3649 34.2443C37.9744 34.6361 37.4723 34.8321 36.8586 34.8321C36.245 34.8321 35.7289 34.6361 35.3105 34.2443C34.92 33.8244 34.7248 33.3066 34.7248 32.6908V31.1374C33.7485 32.313 32.563 33.2506 31.1683 33.9504C29.8016 34.6221 28.2953 34.958 26.6496 34.958ZM27.4864 31.1794C28.909 31.1794 30.1781 30.8435 31.2939 30.1718C32.4096 29.472 33.2883 28.5344 33.9298 27.3588C34.5714 26.1552 34.8921 24.8117 34.8921 23.3282C34.8921 21.8168 34.5714 20.4733 33.9298 19.2977C33.2883 18.0941 32.4096 17.1565 31.2939 16.4847C30.1781 15.785 28.909 15.4351 27.4864 15.4351C26.0917 15.4351 24.8225 15.785 23.6789 16.4847C22.5632 17.1565 21.6706 18.0941 21.0011 19.2977C20.3596 20.4733 20.0388 21.8168 20.0388 23.3282C20.0388 24.8117 20.3596 26.1552 21.0011 27.3588C21.6706 28.5344 22.5632 29.472 23.6789 30.1718C24.8225 30.8435 26.0917 31.1794 27.4864 31.1794Z" stroke="#7AF84D" stroke-width="4" mask="url(#path-1-outside-1)"/>
<path d="M45.5114 34.958C43.5589 34.958 41.7458 34.6641 40.0722 34.0763C38.4265 33.4606 37.1433 32.6908 36.2229 31.7672C35.8045 31.3193 35.6231 30.8155 35.6789 30.2557C35.7626 29.6679 36.0415 29.1921 36.5157 28.8282C37.0736 28.3804 37.6175 28.1985 38.1475 28.2824C38.7054 28.3384 39.1796 28.5763 39.5701 28.9962C40.0443 29.528 40.7974 30.0318 41.8295 30.5076C42.8894 30.9555 44.061 31.1794 45.3441 31.1794C46.9619 31.1794 48.1892 30.9135 49.026 30.3817C49.8907 29.8499 50.337 29.1641 50.3649 28.3244C50.3928 27.4847 49.9884 26.757 49.1516 26.1412C48.3426 25.5254 46.8503 25.0216 44.6746 24.6298C41.8574 24.07 39.8072 23.2303 38.5241 22.1107C37.2689 20.9911 36.6413 19.6196 36.6413 17.9962C36.6413 16.5687 37.0597 15.3931 37.8965 14.4695C38.7333 13.5178 39.8072 12.8181 41.1182 12.3702C42.4292 11.8944 43.796 11.6565 45.2186 11.6565C47.0595 11.6565 48.6913 11.9504 50.1139 12.5382C51.5365 13.126 52.6662 13.9377 53.503 14.9733C53.8935 15.4211 54.0748 15.8969 54.0469 16.4008C54.019 16.8766 53.7819 17.2824 53.3356 17.6183C52.8893 17.9262 52.3593 18.0242 51.7457 17.9122C51.132 17.8003 50.616 17.5483 50.1976 17.1565C49.5002 16.4847 48.7471 16.0229 47.9382 15.771C47.1293 15.5191 46.1948 15.3931 45.1349 15.3931C43.9076 15.3931 42.8615 15.6031 41.9968 16.0229C41.16 16.4427 40.7416 17.0585 40.7416 17.8702C40.7416 18.374 40.8671 18.8359 41.1182 19.2557C41.3971 19.6476 41.9271 20.0114 42.7081 20.3473C43.4891 20.6552 44.6328 20.9631 46.139 21.271C49.291 21.8868 51.4667 22.7684 52.6662 23.916C53.8935 25.0356 54.5071 26.4211 54.5071 28.0725C54.5071 29.3601 54.1585 30.5216 53.4611 31.5573C52.7917 32.5929 51.7875 33.4186 50.4486 34.0343C49.1376 34.6501 47.4919 34.958 45.5114 34.958Z" stroke="#7AF84D" stroke-width="4" mask="url(#path-1-outside-1)"/>
<path d="M54.0874 34.8321C53.4738 34.8321 52.9577 34.6361 52.5393 34.2443C52.1488 33.8244 51.9536 33.3066 51.9536 32.6908V13.9656C51.9536 13.3219 52.1488 12.8041 52.5393 12.4122C52.9577 12.0204 53.4738 11.8244 54.0874 11.8244C54.729 11.8244 55.245 12.0204 55.6355 12.4122C56.026 12.8041 56.2213 13.3219 56.2213 13.9656V14.4275C57.086 13.5598 58.132 12.874 59.3593 12.3702C60.5866 11.8664 61.9116 11.6145 63.3342 11.6145C65.2588 11.6145 66.9743 12.0343 68.4805 12.874C70.0147 13.6857 71.2141 14.8893 72.0788 16.4847C72.9714 18.0802 73.4177 20.0394 73.4177 22.3626V32.6908C73.4177 33.3066 73.2085 33.8244 72.7901 34.2443C72.3996 34.6361 71.8975 34.8321 71.2838 34.8321C70.6702 34.8321 70.1541 34.6361 69.7357 34.2443C69.3452 33.8244 69.15 33.3066 69.15 32.6908V22.3626C69.15 19.9835 68.5084 18.2481 67.2253 17.1565C65.9701 16.0369 64.3941 15.4771 62.4973 15.4771C61.3258 15.4771 60.2659 15.715 59.3175 16.1908C58.3691 16.6667 57.616 17.3104 57.0581 18.1221C56.5002 18.9059 56.2213 19.8155 56.2213 20.8511V32.6908C56.2213 33.3066 56.026 33.8244 55.6355 34.2443C55.245 34.6361 54.729 34.8321 54.0874 34.8321Z" stroke="#7AF84D" stroke-width="4" mask="url(#path-1-outside-1)"/>
<path d="M77.5449 35C75.6202 35 73.8908 34.5941 72.3567 33.7824C70.8504 32.9427 69.651 31.7252 68.7584 30.1298C67.8937 28.5343 67.4613 26.5751 67.4613 24.2519V13.9237C67.4613 13.3079 67.6566 12.8041 68.0471 12.4122C68.4655 11.9924 68.9815 11.7824 69.5952 11.7824C70.2088 11.7824 70.7109 11.9924 71.1014 12.4122C71.5198 12.8041 71.729 13.3079 71.729 13.9237V24.2519C71.729 26.631 72.3567 28.3804 73.6119 29.5C74.895 30.5916 76.4849 31.1374 78.3817 31.1374C79.5811 31.1374 80.6411 30.8995 81.5615 30.4237C82.5099 29.9478 83.2631 29.3041 83.8209 28.4924C84.3788 27.6807 84.6577 26.771 84.6577 25.7634V13.9237C84.6577 13.2799 84.853 12.7621 85.2435 12.3702C85.6619 11.9784 86.1779 11.7824 86.7916 11.7824C87.4332 11.7824 87.9492 11.9784 88.3397 12.3702C88.7302 12.7621 88.9255 13.2799 88.9255 13.9237V32.6489C88.9255 33.2646 88.7302 33.7824 88.3397 34.2023C87.9492 34.5941 87.4332 34.7901 86.7916 34.7901C86.1779 34.7901 85.6619 34.5941 85.2435 34.2023C84.853 33.7824 84.6577 33.2646 84.6577 32.6489V32.187C83.793 33.0547 82.747 33.7405 81.5197 34.2443C80.2924 34.7481 78.9674 35 77.5449 35Z" stroke="#7AF84D" stroke-width="4" mask="url(#path-1-outside-1)"/>
<path d="M96.2325 34.7481C95.3678 34.7481 94.6983 34.2863 94.2242 33.3626L85.354 14.5954C85.1308 14.1196 85.103 13.6578 85.2703 13.2099C85.4656 12.7341 85.8282 12.3702 86.3582 12.1183C86.8324 11.8664 87.3065 11.8244 87.7807 11.9924C88.2828 12.1603 88.6594 12.4822 88.9104 12.958L96.1907 28.7023L103.387 12.958C103.638 12.4822 104.015 12.1603 104.517 11.9924C105.047 11.8244 105.577 11.8664 106.107 12.1183C106.609 12.3422 106.944 12.6921 107.111 13.1679C107.278 13.6438 107.25 14.1196 107.027 14.5954L98.1572 33.3626C97.7388 34.2863 97.0972 34.7481 96.2325 34.7481Z" stroke="#7AF84D" stroke-width="4" mask="url(#path-1-outside-1)"/>
<path d="M109.657 34.958C107.621 34.958 105.794 34.4542 104.176 33.4466C102.558 32.4109 101.275 31.0254 100.327 29.2901C99.4062 27.5267 98.9459 25.5394 98.9459 23.3282C98.9459 21.117 99.448 19.1298 100.452 17.3664C101.484 15.6031 102.865 14.2176 104.594 13.2099C106.352 12.1743 108.318 11.6565 110.494 11.6565C112.67 11.6565 114.622 12.1743 116.352 13.2099C118.081 14.2176 119.448 15.6031 120.452 17.3664C121.484 19.1298 122 21.117 122 23.3282V32.6908C122 33.3066 121.791 33.8244 121.372 34.2443C120.982 34.6361 120.48 34.8321 119.866 34.8321C119.252 34.8321 118.736 34.6361 118.318 34.2443C117.928 33.8244 117.732 33.3066 117.732 32.6908V31.1374C116.756 32.313 115.571 33.2506 114.176 33.9504C112.809 34.6221 111.303 34.958 109.657 34.958ZM110.494 31.1794C111.916 31.1794 113.186 30.8435 114.301 30.1718C115.417 29.472 116.296 28.5344 116.937 27.3588C117.579 26.1552 117.9 24.8117 117.9 23.3282C117.9 21.8168 117.579 20.4733 116.937 19.2977C116.296 18.0941 115.417 17.1565 114.301 16.4847C113.186 15.785 111.916 15.4351 110.494 15.4351C109.099 15.4351 107.83 15.785 106.686 16.4847C105.571 17.1565 104.678 18.0941 104.009 19.2977C103.367 20.4733 103.046 21.8168 103.046 23.3282C103.046 24.8117 103.367 26.1552 104.009 27.3588C104.678 28.5344 105.571 29.472 106.686 30.1718C107.83 30.8435 109.099 31.1794 110.494 31.1794Z" stroke="#7AF84D" stroke-width="4" mask="url(#path-1-outside-1)"/>
</g>
<defs>
<filter id="filter0_d" x="0" y="0" width="164" height="77" filterUnits="userSpaceOnUse" color-interpolation-filters="sRGB">
<feFlood flood-opacity="0" result="BackgroundImageFix"/>
<feColorMatrix in="SourceAlpha" type="matrix" values="0 0 0 0 0 0 0 0 0 0 0 0 0 0 0 0 0 0 127 0"/>
<feOffset dx="20" dy="20"/>
<feGaussianBlur stdDeviation="10"/>
<feColorMatrix type="matrix" values="0 0 0 0 0 0 0 0 0 0 0 0 0 0 0 0 0 0 0.4 0"/>
<feBlend mode="normal" in2="BackgroundImageFix" result="effect1_dropShadow"/>
<feBlend mode="normal" in="SourceGraphic" in2="effect1_dropShadow" result="shape"/>
</filter>
</defs>
</svg>
